<svg width="360" height="547" viewBox="0 0 360 547" fill="none" xmlns="http://www.w3.org/2000/svg">
<path fill-rule="evenodd" clip-rule="evenodd" d="M115.489 74.6581C109.707 76.2132 105.796 78.5282 101.975 82.6557C98.7236 86.1677 98.343 86.4253 98.0034 85.3513C96.2049 79.6885 88.2922 76.5189 82.8629 79.288C75.4369 83.0774 69.9949 100.534 72.0254 114.056C72.4909 117.152 73.081 123.099 73.3371 127.274C73.855 135.696 74.3686 137.207 78.308 141.91C86.8645 152.128 85.4962 161.103 73.7984 171.494C71.0349 173.95 71.1679 174.581 74.387 174.27C85.6688 173.18 98.9005 152.978 96.7893 140.068C96.0139 135.333 96.178 135.41 98.3147 140.783C100.852 147.166 108.418 162.124 108.6 161.117C108.682 160.66 109.015 156.681 109.339 152.274C110.073 142.304 111.217 134.824 113.1 127.677C114.345 122.952 114.565 120.946 114.607 113.858C114.658 105.216 115.235 102.844 118.067 99.623C118.747 98.8504 118.943 96.885 119.035 89.95C119.098 85.1631 119.336 79.5682 119.564 77.5164C120.033 73.2813 120.195 73.3931 115.489 74.6581ZM140.098 77.4584C139.906 78.8678 139.747 80.9648 139.747 82.1194C139.747 85.6074 137.08 100.147 135.091 107.502C132.57 116.818 132.45 117.688 132.481 126.44C132.505 132.747 133.789 144.118 134.991 148.673C135.488 150.55 137.371 142.243 136.947 140.048C135.296 131.499 139.427 117.013 144.998 111.822C146.214 110.688 148.3 108.75 149.634 107.516L152.058 105.272L151.669 99.9739L151.28 94.6761L153.528 95.9397C156.791 97.7736 160.519 101.696 163.184 106.099C165.261 109.532 171.644 114.973 170.532 112.362C162.952 94.5714 153.372 81.7798 143.815 76.6901L140.449 74.8973L140.098 77.4584ZM152.061 282.731C144.649 284.157 137.333 286.518 127.999 290.494C123.817 292.274 118.913 294.038 117.1 294.412C113.148 295.228 113.236 295.049 113.798 301.215C114.379 307.601 117.353 313.942 122.017 318.737C123.735 320.503 124.883 322.036 124.567 322.14C123.183 322.603 124.478 328.082 129.49 342.966C134.984 359.283 139.248 372.905 140.544 378.278C140.954 379.985 142.327 385.361 143.592 390.226L145.893 399.07L145.001 402.662C144.512 404.638 143.013 408.618 141.673 411.506C137.124 421.306 135.611 444.399 139.143 450.114C139.899 451.335 160.655 449.645 166.14 447.914L167.937 447.348L167.968 434.539C168.016 415.434 169.243 408.159 173.334 402.723L174.743 400.85L172.994 393.879C170.945 385.718 170.815 381.819 172.079 366.458C173.246 352.26 173.153 340.565 171.824 334.69C170.543 329.028 169.551 329.507 178.723 331.362C196.718 335 204.261 335.328 223.763 333.316C232.768 332.388 248.948 332.181 249.448 332.99C249.626 333.279 249.206 333.807 248.514 334.163C247 334.942 244.214 337.476 244.214 338.073C244.214 338.308 242.97 339.664 241.45 341.086C239.931 342.508 238.687 343.967 238.687 344.329C238.687 345.836 249.315 355.229 254.173 358.013L256.669 359.444L262.463 355.548C281.169 342.972 290.607 332.952 289.284 327.077C288.236 322.42 277.925 313.216 266.626 306.847C247.809 296.24 233.874 291.82 213.261 289.915C196.417 288.359 186.755 286.342 182.588 283.515C179.597 281.484 161.02 281.008 152.061 282.731ZM185.071 372.364C179.929 373 179.575 373.352 178.824 378.565C177.618 386.932 180.519 396.572 187.206 406.419L189.472 409.756L188.327 412.345C186.541 416.381 188.336 421.347 195.15 431.247C200.032 438.337 201.697 437.017 201.583 426.153C201.526 420.73 203.254 414.185 206.723 406.691C208.651 402.526 210.497 397.345 210.497 396.102C210.497 395.212 209.531 394.29 204.516 390.387C198.584 385.771 197.566 383.038 199.361 376.561C200.076 373.982 200.209 372.697 199.803 372.291C199.109 371.596 190.95 371.637 185.071 372.364ZM171.271 496.388C169.786 497.776 167.744 500.511 166.734 502.466C164.593 506.607 164.66 506.591 158.352 504.365C148.355 500.836 146.536 502.039 144.145 513.762C143.247 518.17 142.511 522.731 142.511 523.898V526.019L144.86 525.644C146.152 525.439 150.118 524.546 153.672 523.662C164.003 521.089 169.138 521.592 177.086 525.951C184.485 530.009 190.612 530.69 200.261 528.522L205.778 527.283L206.486 524.098C207.666 518.777 205.832 516.526 199.443 515.445C191.863 514.161 190.949 513.515 185.094 505.291C180.972 499.503 175.874 493.863 174.763 493.863C174.327 493.863 172.755 494.999 171.271 496.388ZM178.439 534.74C178.895 535.048 179.745 535.306 180.328 535.31C181.742 535.321 181.3 535.004 179.268 534.55C178.057 534.28 177.833 534.331 178.439 534.74Z" fill="#1C2F2C"/>
<path fill-rule="evenodd" clip-rule="evenodd" d="M146.795 166.156C144.54 167.298 144.274 167.997 145.556 169.413C147.245 171.28 149.151 180.374 148.495 183.435C147.813 186.617 148.26 193.014 149.436 196.89C152.655 207.497 147.84 214.732 137.564 214.732H134.764L136.489 216.529C144.727 225.108 147.07 234.147 143.281 242.729C142.857 243.687 142.511 244.694 142.511 244.967C142.511 245.812 141.154 248.44 140.715 248.444C140.487 248.447 140.301 248.917 140.301 249.487C140.301 250.057 139.927 250.834 139.471 251.213C139.016 251.591 138.642 252.164 138.642 252.485C138.642 253.112 132.563 261.315 131.871 261.622C131.644 261.724 131.457 262.284 131.457 262.866C131.457 263.449 131.083 263.926 130.628 263.926C130.172 263.926 129.798 264.175 129.798 264.479C129.798 266.035 128.729 264.742 128.543 262.958C128.349 261.107 128.315 261.173 128.233 263.575C128.161 265.665 127.724 266.838 126.278 268.826C123.645 272.451 117.07 284.459 117.416 285.016C117.574 285.272 117.447 285.482 117.133 285.482C116.202 285.482 114.91 288.521 115.228 289.957C115.462 291.01 115.399 291.113 114.931 290.457C114.58 289.966 114.335 289.892 114.33 290.273C114.325 290.628 114.174 291.375 113.993 291.931C113.72 292.773 113.765 292.804 114.262 292.115C114.791 291.378 114.859 291.378 114.874 292.115C114.889 292.782 114.983 292.799 115.36 292.206C115.617 291.8 116.296 291.517 116.871 291.579C118.698 291.773 119.373 291.579 118.995 290.969C118.793 290.642 119.162 290.704 119.814 291.106C120.957 291.812 120.904 291.886 118.352 293.127C113.083 295.689 118.988 293.936 127.393 290.441C145.212 283.032 152.229 281.527 168.681 281.578C175.019 281.599 180.43 281.753 180.704 281.923C180.978 282.093 181.203 281.719 181.203 281.092C181.203 280.467 180.953 279.955 180.649 279.955C180.346 279.955 180.097 280.204 180.097 280.508C180.097 281.46 178.527 281.109 178.241 280.093C177.816 278.584 177.406 276.082 177.04 272.769C174.844 252.887 171.347 243.258 164.798 239.061L162.488 237.581L169.459 236.666C179.966 235.285 183.788 231.692 179.268 227.445C177.676 225.95 177.601 225.597 178.651 224.548C179.072 224.127 179.952 222.804 180.605 221.607C181.259 220.41 182.517 218.436 183.4 217.219C187.086 212.144 188.297 205.21 186.367 200.234C183.843 193.723 180.399 189.947 165.727 177.606C162.062 174.523 161.06 172.449 163.239 172.449C163.865 172.449 164.278 172.766 164.193 173.18C164.109 173.582 164.307 173.748 164.634 173.545C165.046 173.291 165.052 172.967 164.653 172.487C164.336 172.105 164.256 171.614 164.476 171.396C165.055 170.816 161.742 172.132 160.934 172.802C160.173 173.433 158.36 173.016 157.3 171.963C155.519 170.196 150.576 167.312 149.768 167.568C149.042 167.799 149.017 167.748 149.64 167.305C150.404 166.76 150.129 164.931 149.3 165.047C149.062 165.079 147.934 165.579 146.795 166.156ZM169.866 175.99C170.913 177.189 172.912 178.547 172.912 178.061C172.912 177.933 171.978 177.132 170.839 176.28C169.141 175.011 168.966 174.959 169.866 175.99ZM144.217 204.994L142.883 206.717L144.463 205.214C145.334 204.388 145.934 203.611 145.798 203.491C145.662 203.369 144.95 204.046 144.217 204.994ZM129.522 210.296C130.916 210.913 135.378 210.989 136.289 210.41C136.667 210.17 135.051 209.935 132.696 209.89C129.805 209.832 128.775 209.965 129.522 210.296ZM125.725 231.314C125.914 232.682 126.255 234.005 126.48 234.254C127.065 234.901 126.542 230.759 125.907 229.704C125.548 229.107 125.488 229.622 125.725 231.314ZM127.162 240.158C127.162 241.222 127.277 241.658 127.416 241.126C127.554 240.594 127.554 239.723 127.416 239.191C127.277 238.659 127.162 239.094 127.162 240.158ZM182.448 240.987C182.453 242.202 182.567 242.635 182.7 241.948C182.831 241.26 182.826 240.265 182.688 239.738C182.55 239.208 182.441 239.772 182.448 240.987ZM128.14 249.371C128.14 250.484 128.304 251.233 128.505 251.032C129.017 250.52 129.06 247.343 128.555 247.343C128.327 247.343 128.14 248.256 128.14 249.371ZM181.945 257.569C181.947 260.002 182.044 260.927 182.16 259.627C182.278 258.328 182.277 256.337 182.158 255.205C182.039 254.073 181.943 255.137 181.945 257.569ZM181.353 276.086C181.353 277.454 181.461 278.013 181.593 277.33C181.725 276.645 181.725 275.526 181.593 274.842C181.461 274.157 181.353 274.718 181.353 276.086ZM118.718 285.79C118.153 286.471 118.191 286.553 118.941 286.264C119.953 285.876 120.099 286.441 119.309 287.69C118.86 288.401 118.677 288.365 117.997 287.437C117.307 286.492 117.321 286.205 118.113 285.142C118.613 284.473 119.105 284.16 119.21 284.446C119.315 284.733 119.094 285.337 118.718 285.79ZM123.718 286.699C123.718 287.591 123.554 287.751 123.103 287.299C122.764 286.96 122.655 286.414 122.859 286.083C123.431 285.158 123.718 285.364 123.718 286.699ZM117.508 288.834C117.687 289.499 117.631 289.496 117.157 288.814C116.332 287.625 115.783 288.504 116.507 289.857C116.847 290.491 117 291.01 116.848 291.01C116.287 291.01 115.388 288.757 115.729 288.206C116.19 287.457 117.235 287.826 117.508 288.834ZM124.547 289.912C124.547 291.038 124.271 291.29 123.016 291.311C120.984 291.345 120.285 290.85 120.73 289.691C121.061 288.828 121.226 288.858 122.496 290.013C123.267 290.713 123.728 290.992 123.521 290.634C123.316 290.274 123.446 289.796 123.81 289.571C124.276 289.284 124.154 289.025 123.405 288.708C122.372 288.271 122.374 288.259 123.442 288.397C124.213 288.494 124.547 288.953 124.547 289.912ZM280.936 341.446L279.313 343.243L281.109 341.619C282.098 340.726 282.906 339.918 282.906 339.823C282.906 339.396 282.45 339.772 280.936 341.446ZM196.817 371.538C197.349 371.676 198.219 371.676 198.751 371.538C199.283 371.398 198.849 371.284 197.785 371.284C196.721 371.284 196.285 371.398 196.817 371.538ZM171.431 383.178C171.619 386.446 172.169 390.487 172.656 392.16C173.141 393.832 173.92 396.568 174.384 398.24C174.849 399.913 175.384 401.529 175.575 401.833C175.766 402.137 175.942 402.634 175.967 402.938C176.082 404.378 176.956 406.531 177.426 406.531C177.715 406.531 177.798 406.78 177.61 407.084C177.422 407.388 177.532 407.637 177.853 407.637C178.176 407.637 178.388 407.823 178.326 408.05C177.978 409.321 179.673 412.53 180.545 412.253C181.353 411.994 181.367 412.042 180.649 412.601C180.02 413.092 179.988 413.316 180.515 413.529C180.897 413.685 181.07 414.036 180.9 414.312C180.73 414.588 180.871 415.25 181.214 415.785C181.804 416.702 181.821 416.7 181.527 415.761C181.355 415.213 181.44 414.903 181.715 415.073C181.989 415.243 182.357 415.069 182.533 414.687C182.707 414.306 182.718 414.531 182.557 415.19C182.395 415.848 182.521 416.547 182.838 416.743C183.155 416.938 183.431 416.648 183.452 416.099C183.488 415.183 183.527 415.189 183.908 416.164C184.282 417.116 184.364 417.13 184.681 416.301C185.198 414.953 185.878 415.164 186.585 416.894L187.208 418.415L186.925 416.961C186.759 416.107 187.151 414.324 187.871 412.651L189.1 409.794L187.392 407.472C186.452 406.194 185.404 405.218 185.06 405.301C184.717 405.385 184.58 405.22 184.756 404.937C184.931 404.653 183.834 401.798 182.318 398.59C178.946 391.458 178.47 389.494 178.452 382.626L178.439 377.236H174.763H171.088L171.431 383.178ZM186.721 409.124C186.727 408.878 186.991 408.839 187.31 409.035C187.713 409.284 187.71 409.61 187.3 410.104C186.976 410.493 186.858 411.279 187.038 411.85C187.348 412.829 187.329 412.832 186.731 411.896C185.906 410.609 185.346 407.534 186.156 408.742C186.462 409.198 186.717 409.369 186.721 409.124ZM181.756 417.29C181.756 417.432 182.169 418.417 182.676 419.478C183.51 421.23 184.519 421.67 184.519 420.285C184.519 419.98 184.294 419.87 184.02 420.04C183.745 420.209 183.261 419.602 182.943 418.691C182.449 417.275 181.756 416.457 181.756 417.29ZM187.291 420.488C187.308 421.864 188.201 422.738 188.582 421.749C188.812 421.148 188.713 420.978 188.287 421.241C187.86 421.504 187.765 421.33 188 420.716C188.194 420.211 188.112 419.796 187.818 419.796C187.523 419.796 187.287 420.108 187.291 420.488ZM186.454 426.43C186.925 427.341 187.436 428.088 187.587 428.088C187.74 428.088 187.478 427.341 187.007 426.43C186.534 425.517 186.025 424.771 185.872 424.771C185.721 424.771 185.982 425.517 186.454 426.43ZM201.794 428.364C201.799 429.58 201.912 430.013 202.044 429.325C202.177 428.637 202.171 427.642 202.034 427.113C201.895 426.585 201.787 427.149 201.794 428.364ZM168.129 434.72C168.129 437.304 168.226 438.361 168.342 437.069C168.458 435.777 168.458 433.663 168.342 432.371C168.226 431.08 168.129 432.137 168.129 434.72ZM168.077 445.498C168.083 446.715 168.196 447.147 168.327 446.459C168.46 445.771 168.455 444.777 168.316 444.249C168.179 443.72 168.07 444.283 168.077 445.498ZM160.198 522.446C159.438 522.579 156.454 523.272 153.566 523.988C150.678 524.703 147.108 525.463 145.634 525.677C144.159 525.889 143.165 526.218 143.422 526.407C146.559 528.698 143.138 530.343 135.241 530.343C130.493 530.343 128.14 530.543 128.14 530.945C128.14 531.344 127.367 531.416 125.839 531.158C123.047 530.686 60.3573 531.444 61.1596 531.941C61.4723 532.133 58.0777 532.194 53.6162 532.077C43.2188 531.801 9.78234 533.052 8.9291 533.748C8.57252 534.041 7.391 534.111 6.30428 533.908C5.00106 533.663 4.32752 533.746 4.32752 534.151C4.32752 534.53 5.54725 534.768 7.50561 534.774C10.77 534.781 25.4478 535.896 54.0733 538.311C63.0415 539.068 74.4832 539.958 79.4994 540.288C84.5156 540.617 91.1067 541.12 94.1475 541.404C102.148 542.151 161.135 544.175 207.181 545.283C220.709 545.608 239.612 546.096 249.189 546.367C263.813 546.781 267.219 546.729 270.469 546.043C275.151 545.054 278.399 544.558 292.025 542.754C306.985 540.773 310.531 540.36 318.005 539.732C324.553 539.181 327.679 538.856 341.772 537.251C345.725 536.803 350.961 536.303 353.411 536.142C369.84 535.064 352.31 534.24 311.697 534.179C251.44 534.092 225.543 533.138 215.986 530.66C214.345 530.234 212.812 530.004 212.579 530.147C212.347 530.291 212.156 530.145 212.156 529.824C212.156 529.501 211.72 529.22 211.188 529.197C210.656 529.174 209.249 528.727 208.059 528.202C205.965 527.277 205.753 527.287 201.151 528.55C197.128 529.653 195.42 529.822 189.971 529.656L183.54 529.459L177.791 526.565C169.785 522.538 165.455 521.523 160.198 522.446ZM169.141 528.715C170.259 529.015 172.422 530.1 173.948 531.127C179.243 534.69 187.281 535.906 192.395 533.917C193.507 533.486 193.714 534.734 192.813 536.421C191.417 539.027 180.068 538.198 173.011 534.973C168.206 532.778 166.046 532.286 157.496 531.431C148.721 530.554 147.541 530.163 151.079 529.312C158.029 527.636 164.337 527.427 169.141 528.715ZM0.327309 534.051C1.01358 534.184 2.00975 534.178 2.53755 534.039C3.06534 533.902 2.50358 533.793 1.2881 533.8C0.0711955 533.806 -0.360381 533.919 0.327309 534.051Z" fill="#F5D00B"/>
<path fill-rule="evenodd" clip-rule="evenodd" d="M151.908 3.12856C150.844 3.42854 149.737 3.90398 149.449 4.18415C149.158 4.46432 148.51 4.69355 148.005 4.69355C147.204 4.69355 147.162 4.97513 147.677 6.90378C148.118 8.55791 148.084 9.9149 147.541 12.2935C146.33 17.6012 146.241 18.4219 146.611 20.8925C146.863 22.5678 147.636 24.0408 149.224 25.8662C151.499 28.4854 152.881 29.2495 152.219 27.5246C151.905 26.7039 152 26.7152 152.989 27.6109C154.231 28.7344 154.52 29.8353 153.427 29.282C153.048 29.0896 153.171 29.2891 153.703 29.7249C154.235 30.1607 154.671 30.8003 154.671 31.147C154.671 31.4936 154.869 31.7781 155.113 31.7781C155.356 31.7781 155.87 32.6483 156.255 33.7124C156.64 34.7764 157.169 35.6467 157.431 35.6467C158.763 35.6467 163.214 45.7922 164.646 52.0946C166.577 60.6002 168.272 101.484 166.652 100.482C166.382 100.315 166.321 100.769 166.519 101.491C166.877 102.801 166.876 102.801 166.045 101.422C165.055 99.7787 164.913 100.246 165.807 102.208C166.155 102.972 166.649 103.469 166.905 103.311C167.161 103.152 167.235 103.377 167.069 103.809C166.904 104.242 167.156 104.744 167.628 104.926C168.102 105.108 168.486 105.575 168.482 105.965C168.475 106.46 168.312 106.424 167.937 105.843C167.201 104.704 167.248 105.492 168.018 107.182C168.366 107.948 168.902 108.417 169.209 108.228C169.515 108.039 169.6 108.153 169.397 108.481C168.964 109.181 170.099 111.924 170.822 111.924C171.095 111.924 171.157 112.184 170.961 112.504C170.716 112.9 170.355 112.879 169.822 112.436C169.079 111.819 168.817 112.093 168.991 113.306C169.035 113.61 168.584 113.24 167.989 112.485C166.782 110.952 165.875 111.243 166.753 112.883C167.253 113.818 168.044 119.05 168.657 125.465C169.566 134.99 165.118 149.84 160.524 152.622C154.405 156.326 141.653 151.252 138.608 143.901C137.787 141.919 137.421 142.254 136.102 146.194C135.116 149.142 135.075 149.183 134.718 147.575C134.5 146.597 134.476 146.825 134.658 148.128C135.061 151.027 135.119 158.685 134.776 163.858L134.503 167.983L136.159 168.337C138.753 168.892 142.095 170.451 143.544 171.784L144.867 173.001L144.11 171.757C143.498 170.755 143.484 170.299 144.036 169.415C144.414 168.812 144.724 168.003 144.727 167.619C144.728 167.235 145.785 166.299 147.076 165.539C150.244 163.672 150.249 163.67 150.249 164.645C150.249 165.923 153.05 168.869 156.567 171.293C160.033 173.679 160.791 173.601 163.925 170.537C164.716 169.765 165.158 169.482 164.907 169.908C164.599 170.433 164.657 170.557 165.088 170.29C165.439 170.073 165.727 169.715 165.727 169.493C165.725 169.271 166.955 167.781 168.458 166.179C172.4 161.981 181.157 146.355 180.324 145.006C180.104 144.654 180.162 144.511 180.451 144.689C180.965 145.006 183.761 139.554 185.634 134.586C194.083 112.173 193.514 114.558 192.463 105.952C191.545 98.4401 187.816 78.6231 186.461 74.0611C186.009 72.5414 185.003 68.9345 184.226 66.0465C182.152 58.3433 177.9 43.8339 177.342 42.5561C176.58 40.8072 174.156 32.9511 173.165 29.0132C172.667 27.0378 172.015 25.1247 171.716 24.7625C171.343 24.3111 171.555 23.5852 172.396 22.449C177.248 15.8876 169.751 3.79644 160.974 4.02708C159.329 4.06953 157.364 3.74974 156.495 3.29694C154.742 2.38285 154.572 2.37578 151.908 3.12856ZM139.876 76.5487C139.876 77.6127 139.989 78.0486 140.128 77.5165C140.268 76.9845 140.268 76.1143 140.128 75.5822C139.989 75.0502 139.876 75.4846 139.876 76.5487ZM119.455 80.1413C119.459 81.6611 119.567 82.2171 119.692 81.3781C119.82 80.5375 119.817 79.2938 119.685 78.6146C119.554 77.9339 119.451 78.6216 119.455 80.1413ZM118.883 87.88C118.889 89.0955 119.002 89.5285 119.135 88.8408C119.267 88.1531 119.262 87.1583 119.124 86.6291C118.985 86.1013 118.877 86.6645 118.883 87.88ZM151.483 97.5529C151.483 98.617 151.596 99.0514 151.737 98.5194C151.875 97.9873 151.875 97.1171 151.737 96.5851C151.596 96.053 151.483 96.4888 151.483 97.5529ZM117.779 99.9018C116.997 100.889 115.896 103.08 116.182 103.08C116.315 103.08 116.937 102.21 117.564 101.146C118.706 99.2127 118.811 98.5986 117.779 99.9018ZM114.473 108.607C114.473 109.975 114.58 110.536 114.712 109.851C114.843 109.167 114.843 108.048 114.712 107.363C114.58 106.68 114.473 107.24 114.473 108.607ZM132.137 121.873C132.137 122.937 132.251 123.372 132.391 122.84C132.529 122.308 132.529 121.438 132.391 120.906C132.251 120.374 132.137 120.808 132.137 121.873ZM132.167 129.887C132.171 131.408 132.279 131.964 132.406 131.124C132.532 130.283 132.529 129.04 132.398 128.36C132.268 127.68 132.163 128.367 132.167 129.887ZM108.934 157.525C108.94 158.74 109.053 159.173 109.185 158.486C109.318 157.798 109.312 156.803 109.175 156.274C109.036 155.746 108.927 156.308 108.934 157.525ZM145.828 189.848C145.828 190.247 144.994 191.843 143.975 193.395C142.956 194.946 141.662 197.459 141.097 198.98C139.643 202.9 136.588 207.977 135.256 208.69C133.332 209.719 134.59 209.948 138.092 209.205C141.118 208.563 141.652 208.226 143.682 205.674L145.928 202.854L145.779 198.43C145.699 195.996 145.83 193.061 146.072 191.907C146.314 190.752 146.358 189.654 146.17 189.466C145.982 189.276 145.828 189.449 145.828 189.848ZM253.567 359.963C252.944 360.787 252.95 360.828 253.609 360.239C254.583 359.372 255.465 359.336 254.94 360.187C254.693 360.586 254.788 360.675 255.193 360.425C255.862 360.011 255.548 358.997 254.751 358.997C254.502 358.997 253.969 359.431 253.567 359.963ZM164.873 448.576C164.672 448.902 164.138 449.025 163.686 448.851C163.233 448.678 162.575 448.712 162.226 448.929C161.875 449.145 160.095 449.405 158.268 449.506C156.441 449.606 154.879 449.884 154.796 450.121C154.712 450.361 152.1 450.484 148.993 450.397C145.129 450.291 143.777 450.4 144.722 450.743C145.84 451.149 145.577 451.227 143.34 451.153L140.576 451.064L140.487 452.98C140.381 455.231 141.796 461.678 144.424 470.925C145.461 474.573 147.459 481.662 148.863 486.678C152.501 499.679 153.572 502.533 155.069 503.215C155.827 503.56 156.33 503.58 156.33 503.266C156.33 502.977 156.702 502.884 157.156 503.059C157.61 503.233 157.827 503.625 157.639 503.93C157.423 504.278 157.76 504.337 158.54 504.09C159.349 503.832 159.659 503.896 159.428 504.271C159.185 504.664 159.648 504.688 160.879 504.347C162.587 503.876 162.625 503.896 161.581 504.716C160.493 505.571 160.495 505.58 161.718 505.214C162.464 504.992 162.962 505.08 162.962 505.434C162.962 506.348 164.399 506.13 165.244 505.089C165.888 504.295 165.887 504.223 165.24 504.613C164.739 504.914 164.554 504.842 164.701 504.401C164.824 504.031 165.137 503.767 165.396 503.811C165.656 503.856 166.474 502.817 167.215 501.504C167.955 500.19 169.602 498.04 170.874 496.727C172.147 495.414 172.848 494.419 172.432 494.516C172.016 494.613 171.605 494.319 171.515 493.863C170.303 487.605 168.919 474.025 167.91 458.491C167.565 453.174 167.167 448.634 167.024 448.405C166.644 447.788 165.294 447.896 164.873 448.576Z" fill="#DCA172"/>
<path fill-rule="evenodd" clip-rule="evenodd" d="M143.93 169.844C143.757 170.387 144.111 171.804 144.717 172.991C145.322 174.18 145.976 176.342 146.169 177.796C146.362 179.251 146.73 180.312 146.988 180.154C147.56 179.8 147.119 186.255 146.289 190.412C145.953 192.085 145.695 193.95 145.712 194.558C145.727 195.165 145.795 197.483 145.861 199.709L145.982 203.754L143.583 206.2C142.013 207.8 140.511 208.771 139.236 209.01C138.164 209.211 136.926 209.737 136.484 210.179C135.088 211.575 125.692 210.174 122.271 208.059C120.045 206.683 120.028 206.805 121.726 212.036C122.455 214.279 123.581 218.851 124.229 222.195C124.878 225.538 125.668 228.929 125.985 229.73C126.302 230.529 126.642 232.271 126.738 233.598C127.079 238.259 128.347 247.344 128.657 247.344C128.828 247.344 128.896 251.323 128.806 256.187C128.699 262.064 128.838 265.031 129.221 265.031C129.538 265.031 129.798 264.782 129.798 264.479C129.798 264.175 130.172 263.926 130.628 263.926C131.083 263.926 131.457 263.449 131.457 262.866C131.457 262.285 131.644 261.724 131.871 261.622C132.563 261.315 138.642 253.112 138.642 252.486C138.642 252.164 139.016 251.591 139.471 251.214C139.927 250.834 140.301 250.057 140.301 249.487C140.301 248.917 140.487 248.447 140.715 248.444C141.154 248.44 142.511 245.812 142.511 244.968C142.511 244.695 142.857 243.687 143.281 242.729C147.07 234.147 144.727 225.108 136.489 216.529L134.764 214.732H137.564C147.84 214.732 152.655 207.497 149.436 196.89C148.26 193.015 147.813 186.617 148.495 183.435C149.611 178.228 145.322 165.457 143.93 169.844ZM164.242 172.037C164.912 172.793 165.045 173.291 164.643 173.54C164.307 173.748 164.108 173.588 164.193 173.181C164.278 172.766 163.865 172.449 163.239 172.449C161.06 172.449 162.062 174.523 165.727 177.607C180.399 189.947 183.843 193.724 186.367 200.234C188.297 205.21 187.086 212.144 183.4 217.22C182.517 218.436 181.259 220.41 180.605 221.607C179.952 222.805 179.072 224.128 178.651 224.548C177.601 225.598 177.676 225.95 179.268 227.446C183.788 231.692 179.966 235.285 169.459 236.666L162.488 237.581L164.798 239.062C171.347 243.258 174.844 252.887 177.04 272.77C177.924 280.779 178.535 282.15 180.389 280.295C181.245 279.439 181.405 276.645 182.333 246.238C182.981 225.005 183.663 220.536 186.82 216.838C191.215 211.688 192.889 202.219 190.376 196.729C188.958 193.632 183.611 187.241 182.681 187.533C182.431 187.612 182.353 187.469 182.509 187.217C182.947 186.508 175.775 180.336 175.039 180.792C174.655 181.028 174.548 180.945 174.771 180.582C174.978 180.251 174.498 179.528 173.706 178.978C172.915 178.426 171.446 177.291 170.444 176.456C168.538 174.867 167.593 174.485 168.267 175.573C168.504 175.96 168.418 176.063 168.046 175.832C167.709 175.624 167.586 175.026 167.773 174.504C167.96 173.981 167.909 173.739 167.66 173.964C167.411 174.191 166.862 173.882 166.438 173.278C166.015 172.674 165.122 171.894 164.455 171.543C163.263 170.919 163.259 170.929 164.242 172.037ZM174.163 282.01C175.003 282.137 176.247 282.134 176.926 282.003C177.606 281.871 176.919 281.768 175.398 281.772C173.878 281.776 173.322 281.884 174.163 282.01ZM118.573 284.578C118.367 285.114 117.97 285.411 117.69 285.239C117.025 284.828 117.23 286.018 118.064 287.418C118.631 288.367 118.801 288.407 119.278 287.694C120.103 286.46 119.964 285.873 118.941 286.265C118.191 286.553 118.153 286.471 118.718 285.79C119.094 285.338 119.299 284.66 119.173 284.285C119.027 283.848 118.812 283.952 118.573 284.578ZM122.859 286.083C122.656 286.414 122.764 286.961 123.103 287.299C123.554 287.752 123.718 287.592 123.718 286.699C123.718 285.365 123.431 285.158 122.859 286.083ZM115.429 288.796C115.084 289.44 114.924 290.263 115.071 290.626C115.22 290.989 115.36 290.804 115.384 290.214C115.426 289.151 115.436 289.151 116.287 290.214C117.106 291.235 117.117 291.225 116.519 289.996C115.8 288.52 116.305 287.588 117.157 288.814C117.631 289.496 117.687 289.499 117.508 288.834C117.161 287.552 116.104 287.534 115.429 288.796ZM123.311 288.596C123.888 288.766 124.119 289.147 123.878 289.532C123.203 290.613 123.237 291.472 123.966 291.752C124.436 291.932 124.641 291.459 124.603 290.277C124.562 288.966 124.276 288.51 123.442 288.424C122.569 288.333 122.542 288.37 123.311 288.596ZM120.747 289.649C120.288 290.843 120.29 290.849 121.143 291.176C122.58 291.728 123.264 290.718 122.142 289.702C121.181 288.833 121.061 288.828 120.747 289.649ZM118.995 290.969C119.373 291.579 118.698 291.773 116.871 291.579C116.296 291.517 115.617 291.8 115.36 292.206C114.983 292.799 114.889 292.782 114.874 292.116C114.848 290.817 113.788 292.655 113.778 294.017C113.769 295.08 113.778 295.08 114.606 294.017C115.077 293.415 115.38 293.277 115.297 293.705C115.217 294.122 115.524 294.592 115.98 294.747C116.437 294.903 116.626 294.835 116.403 294.595C116.18 294.355 117.123 293.638 118.5 293C120.914 291.879 120.959 291.813 119.814 291.107C119.162 290.705 118.793 290.643 118.995 290.969ZM173.11 347.388C173.11 350.276 173.204 351.458 173.318 350.015C173.431 348.57 173.431 346.207 173.318 344.763C173.204 343.319 173.11 344.5 173.11 347.388ZM182.32 398.398C182.313 398.635 182.939 400.074 183.71 401.596C184.481 403.117 184.959 404.608 184.774 404.908C184.589 405.208 184.765 405.385 185.169 405.301C185.573 405.218 185.818 405.519 185.716 405.979C185.615 406.435 185.708 406.632 185.923 406.416C186.138 406.201 186.803 406.575 187.399 407.246C188.159 408.099 188.099 407.888 187.204 406.544C186.499 405.485 185.115 403.122 184.127 401.293C183.141 399.462 182.327 398.158 182.32 398.398ZM185.848 409.409C185.984 410.231 186.381 411.351 186.731 411.897C187.329 412.832 187.348 412.829 187.038 411.85C186.858 411.28 186.976 410.493 187.3 410.104C187.71 409.61 187.713 409.285 187.31 409.036C186.991 408.839 186.727 408.879 186.721 409.125C186.717 409.37 186.462 409.198 186.156 408.743C185.735 408.113 185.66 408.273 185.848 409.409ZM182.308 414.855C182.308 415.177 182.063 415.288 181.763 415.103C181.405 414.882 181.406 415.204 181.764 416.038C182.066 416.737 182.584 417.994 182.916 418.829C183.256 419.682 183.781 420.187 184.115 419.982C184.491 419.749 184.574 419.961 184.342 420.564C183.537 422.665 194.236 437.681 197.041 438.384C199.571 439.019 201.229 436.454 198.917 435.482C197.99 435.093 197.232 434.499 197.232 434.162C197.232 433.825 196.944 433.727 196.593 433.944C196.243 434.162 196.098 434.107 196.274 433.824C196.449 433.541 196.093 432.693 195.483 431.942C194.871 431.19 194.557 430.924 194.782 431.352C195.054 431.868 194.975 431.994 194.545 431.728C194.188 431.509 194.063 431.059 194.267 430.729C194.471 430.401 194.263 429.859 193.807 429.525C193.35 429.191 192.876 428.669 192.755 428.364C192.633 428.06 192.329 427.881 192.078 427.964C191.828 428.048 191.79 427.844 191.995 427.513C192.2 427.18 191.908 426.533 191.345 426.075C190.783 425.618 190.655 425.413 191.059 425.621C191.606 425.901 191.566 425.554 190.907 424.279C189.896 422.327 189.134 421.899 190.058 423.804C190.641 425.01 190.632 425.014 189.789 423.958C189.309 423.36 189.039 422.55 189.187 422.163C189.337 421.773 189.219 421.455 188.923 421.455C188.628 421.455 188.371 421.766 188.351 422.146C188.33 422.526 188.036 422.259 187.695 421.551C187.235 420.596 187.239 420.166 187.709 419.874C188.176 419.587 188.128 418.836 187.525 417.015C186.771 414.738 186.725 414.696 186.942 416.481C187.172 418.373 187.164 418.382 186.57 416.895C185.879 415.165 185.2 414.952 184.681 416.302C184.364 417.131 184.282 417.117 183.908 416.164C183.527 415.189 183.488 415.184 183.452 416.099C183.431 416.648 183.155 416.938 182.838 416.743C182.521 416.548 182.414 415.911 182.599 415.328C182.785 414.746 182.794 414.27 182.622 414.27C182.449 414.27 182.308 414.533 182.308 414.855ZM168.136 425.325C168.136 428.213 168.23 429.393 168.343 427.95C168.458 426.505 168.458 424.144 168.343 422.699C168.23 421.256 168.136 422.436 168.136 425.325ZM157.435 528.183C146.81 529.551 146.824 530.365 157.496 531.432C164.602 532.142 168.647 532.858 170.174 533.674C170.78 533.999 171.558 534.09 171.903 533.877C172.25 533.663 172.379 533.734 172.192 534.035C171.688 534.852 177.604 537.141 179.039 536.686C179.768 536.454 180.104 536.517 179.901 536.847C179.448 537.58 186.608 538.251 189.787 537.774C192.282 537.4 193.363 536.407 193.363 534.488C193.363 533.844 193.053 533.684 192.281 533.929C190.121 534.615 179.284 535.228 178.446 534.712C177.862 534.352 178.109 534.289 179.268 534.499C180.519 534.726 180.315 534.539 178.439 533.738C177.071 533.154 175.726 532.811 175.452 532.977C175.176 533.142 175.121 533.005 175.327 532.671C175.899 531.746 170.942 529.103 167.137 528.305C163.423 527.526 162.615 527.516 157.435 528.183Z" fill="#E2A300"/>
<path fill-rule="evenodd" clip-rule="evenodd" d="M128.416 0.0975436C127.14 0.240459 125.621 0.889944 124.823 1.63282C124.063 2.34032 122.636 3.08885 121.652 3.29544C117.707 4.12746 118.302 10.7214 123.156 19.984C125.597 24.6393 125.737 27.5514 124.069 38.9633C120.999 59.9676 118.862 84.1103 119.216 93.8257C119.366 97.9448 119.289 98.249 117.262 101.564L115.15 105.014L115.044 112.876C114.958 119.2 114.654 121.905 113.493 126.695C106.905 153.897 107.447 168.42 116.018 194.354C118.125 200.733 119.869 206.372 119.892 206.887C119.92 207.469 120.042 207.561 120.216 207.129C120.425 206.608 120.868 206.692 121.969 207.459C125.43 209.867 132.408 210.609 135.086 208.854C136.675 207.812 139.604 203.001 141.097 198.98C141.662 197.459 142.898 194.973 143.845 193.452C146.733 188.818 146.933 188.307 146.933 185.583C146.933 175.207 143.031 169.068 135.879 168.195C135.119 168.102 134.506 167.778 134.517 167.474C134.529 167.169 134.742 163.64 134.991 159.63C135.291 154.821 135.243 151.436 134.854 149.681C131.403 134.17 131.276 119.235 134.506 108.884C138.46 96.2128 139.709 85.1008 140.81 52.7808C141.147 42.9013 141.686 33.2001 142.007 31.2247C142.705 26.9344 145.225 19.0642 145.901 19.0642C146.164 19.0642 146.381 18.5435 146.381 17.9053C146.381 17.2686 146.781 15.3668 147.272 13.6787C148.056 10.9803 148.107 8.00315 147.414 5.2722C146.873 3.14545 142.297 0.207914 140.885 1.08097C140.564 1.27907 140.301 1.20407 140.301 0.912584C140.301 0.621094 139.368 0.383374 138.228 0.383374C137.087 0.384789 134.911 0.264514 133.391 0.117354C131.871 -0.0312208 129.633 -0.0397114 128.416 0.0975436ZM174.156 17.1299C174.163 18.3454 174.276 18.7784 174.408 18.0907C174.541 17.403 174.535 16.4082 174.396 15.879C174.258 15.3512 174.15 15.9144 174.156 17.1299ZM171.787 23.2328C171.302 23.8172 171.258 24.2643 171.647 24.6535C172.036 25.0426 172.301 24.7737 172.486 23.8016C172.803 22.1447 172.735 22.0895 171.787 23.2328ZM147.39 24.3153C148.28 26.067 152.087 29.4319 153.152 29.405C154.419 29.3753 154.373 28.8631 152.989 27.6108C152 26.7151 151.905 26.7038 152.219 27.5245C152.417 28.0395 152.342 28.4612 152.052 28.4612C151.471 28.4612 149.613 26.5722 149.833 26.2057C149.91 26.0784 149.874 26.0317 149.753 26.1024C149.631 26.1732 148.924 25.5506 148.179 24.72C147.298 23.7351 147.023 23.595 147.39 24.3153ZM153.253 30.5016C154.271 33.1534 153.811 73.9337 152.682 81.3016C152.462 82.7293 152.82 83.4679 154.823 85.7234C158.51 89.8779 163.74 96.9656 165.386 100.04C166.198 101.56 166.706 102.212 166.512 101.491C166.318 100.769 166.382 100.315 166.652 100.482C168.272 101.484 166.577 60.6001 164.646 52.0946C163.214 45.7921 158.763 35.6466 157.431 35.6466C157.169 35.6466 156.64 34.7764 156.255 33.7123C155.87 32.6482 155.356 31.778 155.113 31.778C154.869 31.778 154.671 31.4313 154.671 31.0068C154.671 30.5837 154.271 30.0842 153.781 29.896C153.109 29.6385 152.98 29.7871 153.253 30.5016ZM151.98 99.0726C152.529 104.117 151.827 106.551 149.272 108.461C138.839 116.256 133.534 133.971 138.638 143.975C142.579 151.699 154.36 156.353 160.524 152.622C165.118 149.84 169.566 134.99 168.657 125.465C168.044 119.05 167.253 113.818 166.753 112.883C165.878 111.249 166.784 110.947 167.945 112.485C168.693 113.474 168.944 113.592 168.845 112.908C168.769 112.386 167.868 111.392 166.842 110.698C165.817 110.005 163.965 107.773 162.727 105.739C160.007 101.274 157.961 99.0259 154.701 96.926C151.454 94.8318 151.513 94.7851 151.98 99.0726ZM148.039 164.986C147.278 165.58 146.918 166.073 147.237 166.08C147.557 166.086 148.094 165.815 148.433 165.477C149.151 164.758 150.249 165.278 150.249 166.337C150.249 166.741 150.931 167.518 151.765 168.062L153.28 169.056L151.765 167.254C150.931 166.264 150.249 165.101 150.249 164.668C150.249 163.612 149.692 163.693 148.039 164.986ZM236.91 347.61C232.379 353.29 210.622 369.407 203.687 372.221C199.49 373.925 196.7 381.679 199.336 384.315C199.951 384.931 200.347 385.544 200.214 385.677C199.957 385.934 203.132 388.883 209.834 394.609C211.305 395.867 212.215 395.021 213.882 390.848C214.374 389.613 215.229 388.347 215.779 388.033C217.479 387.065 232.676 376.908 236.477 374.2C238.452 372.79 240.691 371.229 241.45 370.731C242.21 370.233 243.952 368.933 245.32 367.842C246.687 366.752 249.616 364.655 251.828 363.181C257.071 359.69 257.071 360.078 251.822 356.612C249.309 354.953 245.463 351.826 243.274 349.663C238.656 345.101 238.861 345.167 236.91 347.61ZM255.521 359.51C255.697 359.793 255.548 360.205 255.193 360.424C254.788 360.675 254.693 360.586 254.94 360.187C255.465 359.336 254.583 359.372 253.609 360.239C252.95 360.828 252.944 360.787 253.567 359.963C254.381 358.888 255.043 358.735 255.521 359.51ZM139.418 452.067C139.592 452.711 139.736 453.424 139.74 453.652C139.744 453.88 139.962 454.066 140.224 454.066C140.486 454.066 140.609 453.383 140.497 452.547C140.385 451.71 140.442 451.337 140.62 451.717C140.799 452.097 141.188 452.408 141.485 452.408C141.781 452.408 141.878 452.174 141.701 451.887C141.525 451.601 142.443 451.27 143.742 451.153C145.399 451.001 145.059 450.931 142.604 450.917C139.304 450.898 139.122 450.963 139.418 452.067ZM167.512 452.408C167.512 453.472 167.626 453.908 167.766 453.376C167.904 452.844 167.904 451.974 167.766 451.441C167.626 450.909 167.512 451.344 167.512 452.408ZM168.066 461.252C168.066 462.316 168.179 462.752 168.318 462.22C168.458 461.688 168.458 460.817 168.318 460.285C168.179 459.753 168.066 460.188 168.066 461.252ZM168.618 468.99C168.618 470.054 168.732 470.489 168.871 469.957C169.009 469.425 169.009 468.555 168.871 468.022C168.732 467.49 168.618 467.926 168.618 468.99ZM164.459 504.382C163.945 504.981 163.741 505.47 164.006 505.47C164.613 505.47 165.966 503.869 165.638 503.539C165.502 503.403 164.971 503.782 164.459 504.382ZM159.194 504.385C159.594 504.596 160.668 504.917 161.581 505.098C162.492 505.278 162.926 505.291 162.544 505.125C162.162 504.96 161.951 504.658 162.075 504.456C162.199 504.254 161.436 504.07 160.382 504.046C159.328 504.022 158.793 504.176 159.194 504.385Z" fill="#F0C698"/>
</svg>
