<svg width="331" height="383" viewBox="0 0 331 383" fill="none" xmlns="http://www.w3.org/2000/svg">
<path fill-rule="evenodd" clip-rule="evenodd" d="M173.704 34.9513C174.91 35.6246 176.587 36.9775 177.432 37.9563L178.967 39.7369L184.494 39.7693C194.058 39.8254 198.69 43.9239 197.549 51.318C195.922 61.8593 196.054 61.4964 190.865 69.6349C186.948 75.7759 185.009 76.3781 186.644 70.9442C188.351 65.272 187.056 61.6722 183.117 61.1436C180.622 60.8094 178.939 62.2097 178.103 65.3169C177.122 68.9591 175.194 67.403 174.179 62.1498C172.666 54.3255 169.012 52.0749 161.133 54.1173C149.788 57.0575 143.868 52.732 141.581 39.8279C140.939 36.2044 141.377 35.7031 143.817 37.273C148.406 40.2244 152.058 40.2169 158.23 37.2418C166.085 33.4562 169.996 32.8777 173.704 34.9513ZM181.009 91.6601C181.009 92.6401 176.072 100.444 175.134 100.946C174.594 101.234 173.23 101.403 172.103 101.321L170.05 101.173L172.323 99.735C173.882 98.7487 175.316 97.1788 176.885 94.7424C178.942 91.5466 181.009 90.0017 181.009 91.6601ZM186.562 190.05C187.875 190.819 190.576 192.026 192.566 192.733C204.678 197.033 209.511 201.187 212.126 209.545C213.202 212.982 215.592 224.891 215.592 226.811C215.592 227.634 217.182 229.764 220.77 233.749C227.125 240.807 229.83 244.394 231.911 248.52C234.052 252.765 236.959 260.358 237.328 262.672C237.719 265.113 238.564 265.798 242.38 266.767C247.773 268.136 271.657 276.303 275.338 278.036C281.162 280.78 287.986 288.122 297.59 301.983C299.684 305.005 302.603 308.841 304.077 310.506C308.021 314.965 308.118 315.301 306.238 317.92C305.265 319.273 304.519 321.039 304.28 322.554C303.781 325.707 303.563 325.872 301.705 324.498C291.342 316.836 287.74 314.723 273.065 307.696C254.678 298.892 248.192 296.567 230.716 292.522C221.273 290.337 221.272 290.335 210.455 280.081C201.203 271.309 192.261 261.805 181.794 249.616C177.054 244.097 174.052 241.854 166.042 237.851C160.069 234.866 160.353 234.881 155.455 237.265C148.943 240.436 132.844 244.794 112.905 248.786C94.9673 252.377 92.7666 253.397 96.8688 256.22C102.951 260.405 108.581 272.494 107.683 279.44C107.262 282.693 102.848 305.095 101.914 308.717C100.333 314.852 98.7005 323.381 98.698 325.524C98.6918 331.161 95.4574 331.838 93.1132 326.695C91.6331 323.445 91.2104 322.933 89.2166 321.964C87.562 321.16 87.0682 320.684 87.3189 320.129C90.1942 313.773 84.3438 286.202 73.901 256.886C70.4621 247.233 70.6267 246.229 76.3711 241.824C78.037 240.546 82.6692 236.65 86.6655 233.168C105.426 216.817 119.681 206.845 130.607 202.424C136.168 200.175 136.2 200.146 136.2 197.31C136.2 194.563 136.297 194.528 139.443 196.147C148.485 200.805 169.224 198.283 179.867 191.232C182.052 189.786 183.915 188.612 184.008 188.626C184.1 188.64 185.25 189.28 186.562 190.05ZM321.3 310.883C322.238 312.634 321.563 312.904 320.091 311.367C318.745 309.963 318.725 309.882 319.716 309.882C320.293 309.882 321.006 310.332 321.3 310.883ZM313.157 318.962C313.669 319.475 313.557 325.982 313.002 327.906C312.731 328.842 312.37 331.433 312.196 333.664C311.849 338.151 311.32 338.887 308.064 339.416L306.43 339.68L306.307 337.079C306.24 335.649 306.13 333.398 306.063 332.078C305.946 329.744 305.987 329.665 307.523 329.263C309.645 328.709 310.582 327.114 311.063 323.227C311.442 320.169 312.403 318.21 313.157 318.962ZM82.6218 321.858C82.6218 324.103 81.355 327.125 79.628 329.002C75.835 333.121 77.6217 336.646 84.249 338.119C85.5458 338.407 87.3239 338.942 88.1992 339.307C90.3201 340.194 94.683 339.169 95.7728 337.528C98.1245 333.983 99.0634 333.744 105.893 334.946C110.874 335.822 110.871 335.821 110.871 338.125C110.871 340.565 110.088 341.286 106.106 342.512C98.4973 344.853 93.5334 344.93 91.1718 342.74C90.3039 341.936 89.5259 341.599 89.0184 341.806C86.1443 342.984 82.3412 343.377 80.7976 342.656C79.7851 342.184 78.6193 342.03 77.5557 342.23C74.8761 342.732 72.0394 337.992 74.113 336.477C75.3898 335.543 75.1666 333.257 73.6716 331.972C72.0506 330.578 72.0681 330.401 73.8873 329.767C75.022 329.372 75.6516 328.634 76.5083 326.695C77.9297 323.482 82.6218 319.77 82.6218 321.858ZM62.6516 333.599C62.25 333.79 60.6066 334.394 58.9994 334.942C56.124 335.923 56.0742 335.972 55.932 337.904C55.7836 339.921 58.0318 343.977 59.2986 343.977C59.6278 343.977 59.7176 344.447 59.5293 345.198C59.3211 346.023 59.4134 346.378 59.8123 346.294C60.1365 346.224 60.4919 346.579 60.6004 347.083C60.7725 347.871 60.5742 347.962 59.169 347.741C56.8946 347.383 49.3896 348.312 48.629 349.047C47.8073 349.839 48.6078 352.073 49.8384 352.423C52.6876 353.233 71.4509 353.655 77.7514 353.052C84.0832 352.446 94.7628 351.22 97.2342 350.817C98.708 350.577 100.571 350.381 101.374 350.383L102.835 350.387L101.374 351.041C100.571 351.4 98.2691 351.841 96.2603 352.021C94.2504 352.201 91.7279 352.637 90.6531 352.988C89.5783 353.34 88.1244 353.517 87.4199 353.382C86.7166 353.248 85.6667 353.391 85.0869 353.701C83.7752 354.403 67.8174 354.974 56.1091 354.738C48.2399 354.578 45.0541 352.753 46.791 349.396C47.8147 347.415 47.7599 346.852 46.3359 344.754C43.7573 340.954 45.2112 338.214 50.6227 336.671C52.5504 336.121 55.0953 335.224 56.2786 334.678C57.4607 334.13 59.543 333.586 60.9059 333.468C62.2675 333.35 63.0543 333.408 62.6516 333.599ZM320.309 347.628L324.447 348.738L324.844 350.862C326.049 357.33 324.584 362.425 321.184 363.596C316.427 365.234 311.45 366.376 310.315 366.092C309.635 365.921 308.254 366.13 307.15 366.572C306.074 367.003 304.238 367.356 303.07 367.356C300.832 367.356 299.643 368.187 300.117 369.42C300.905 371.472 309.169 372.688 314.642 371.556C319.301 370.593 321.443 370.533 321.167 371.374C320.447 373.569 307.855 374.203 301.968 372.34C295.231 370.209 291.453 366.472 295.451 365.895C296.752 365.707 297.198 365.374 297.413 364.433C297.776 362.844 300.433 361.514 303.264 361.507C309.24 361.492 313.135 357.417 314.204 350.064C314.539 347.756 315.19 346.347 315.866 346.464C316.034 346.494 318.033 347.017 320.309 347.628ZM112.246 347.24C112.007 348.472 107.217 350.795 104.911 350.795C102.388 350.795 103.157 349.57 105.982 349.094C107.012 348.92 108.576 348.245 109.458 347.594C111.33 346.213 112.471 346.068 112.246 347.24Z" fill="#242B38"/>
<path d="M177.706 4.55197C175.947 2.57688 173.833 0.667888 173.011 0.308782C170.312 -0.865794 165.462 1.45966 163.722 4.76269C163.149 5.84998 161.599 7.69913 160.277 8.87121C145.788 21.7217 134.243 36.379 134.262 41.9027C134.287 49.5063 139.348 64.1137 147.757 80.8458C150.361 86.0254 150.482 86.4244 149.924 87.9668C149.089 90.276 149.504 90.9332 153.519 93.6427C158.323 96.8846 158.398 97.725 153.978 98.7749C148.777 100.011 140.096 106.253 140.096 108.755C140.096 111.044 147.1 114.642 153.495 115.635C160.534 116.73 165.254 114.561 171.685 107.274C176.421 101.908 176.295 101.256 171.025 103.851C169.418 104.643 167.512 105.296 166.791 105.301C166.032 105.309 165.185 105.731 164.782 106.307C163.782 107.735 160.553 108.214 160.553 106.935C160.553 106.418 160.313 105.755 160.02 105.462C159.155 104.597 160.249 103.173 163.341 101.135C164.888 100.115 166.227 99.1041 166.317 98.8871C166.406 98.6714 167.345 98.4943 168.402 98.4943C169.661 98.4943 170.422 98.2412 170.605 97.7637C170.76 97.3609 171.407 97.033 172.045 97.033C173.149 97.033 175.651 93.9968 175.651 92.6589C175.651 92.2025 174.302 91.9407 172.877 92.1202C170.149 92.4619 173.021 86.3508 175.931 85.6214C177.312 85.2747 178.173 85.6575 177.281 86.2211C176.484 86.7261 175.952 90.5279 176.619 90.9394C177.577 91.5317 179.471 90.7399 179.816 89.604C180.228 88.2473 182.367 85.3433 182.953 85.3433C183.478 85.3433 182.084 89.6065 181.427 90.0129C181.142 90.19 181.171 90.5528 181.504 90.9531C181.918 91.4519 181.578 92.5192 180.067 95.4531C177.883 99.6938 177.67 101.094 178.935 102.891C179.418 103.579 179.928 105.555 180.125 107.504C180.314 109.38 180.622 112.289 180.807 113.97C181.416 119.441 177.933 124.93 170.781 129.774C168.164 131.547 167.589 132.182 167.466 133.432C167.145 136.669 172.241 143.738 176.171 145.51L178.223 146.435L179.494 144.906C181.31 142.723 187.725 129.346 191.461 119.953C194.044 113.456 194.997 111.607 196.513 110.15C204.582 102.398 220.899 60.6498 220.298 49.2993C219.782 39.5635 213.59 20.1756 209.227 14.6393C208.455 13.658 207.592 11.8301 207.311 10.577C205.402 2.05818 200.114 0.613028 192.337 6.48466C185.955 11.3039 185.306 16.38 190.639 19.7691C191.638 20.4038 192.894 21.4125 193.428 22.011C194.7 23.4312 196.729 24.4599 198.259 24.4599C200.263 24.4599 200.477 25.5809 199.997 33.5884C199.396 43.6372 198.998 44.9663 196.924 43.8566C196.192 43.4651 196.286 43.7531 197.35 45.1459C198.902 47.1821 198.958 47.8828 198.13 54.9016C197.491 60.3293 196.24 63.3231 191.561 70.6274C188.46 75.4679 188.043 75.8956 186.002 76.322C184.046 76.731 183.948 75.9255 185.4 71.2958C187.235 65.4404 186.203 61.964 182.627 61.964C181.087 61.964 179.062 64.0264 179.062 65.595C179.062 67.3244 177.367 68.9529 176.21 68.3332C174.691 67.5202 174.251 66.6461 173.299 62.5563C171.454 54.6385 168.89 53.0874 161.04 55.1447C148.78 58.358 142.195 52.8068 140.371 37.7231C139.97 34.4101 140.745 34.0435 143.687 36.157C147.623 38.9825 156.656 38.899 156.656 36.0373C156.656 34.4051 160.311 27.1707 163.53 22.43C165.813 19.0683 166.538 18.9224 171.306 20.8601C176.219 22.8564 179.6 22.1494 183.81 18.2479C186.615 15.6481 186.549 14.5084 183.393 10.9485C182.024 9.40488 179.466 6.52705 177.706 4.55197Z" fill="#E6C297"/>
<path fill-rule="evenodd" clip-rule="evenodd" d="M173.072 162.909C173.326 163.243 173.81 164.504 174.149 165.71C174.805 168.046 178.711 175.622 182.562 182.026C184.824 185.787 185.589 188.421 184.297 187.995C183.963 187.884 183.466 187.373 183.194 186.858C182.922 186.343 181.607 184.278 180.27 182.27C178.935 180.261 177.549 177.959 177.193 177.155C176.836 176.352 175.548 174.18 174.331 172.328L172.119 168.961L170.966 170.867C168.456 175.014 171.631 186.853 176.11 190.041C177.378 190.944 177.498 191.214 176.994 192.022C174.751 195.611 167.372 181.942 167.372 174.198C167.372 165.47 170.427 159.419 173.072 162.909ZM317.056 312.049C321.869 313.765 323.02 318.394 322.655 334.575C322.372 347.129 322.2 347.442 316.902 344.999C314.304 343.802 312.763 334.089 314.462 329.62C315.694 326.378 315.569 317.487 314.266 315.753C311.686 312.322 312.986 310.596 317.056 312.049ZM308.814 316.984C309.196 317.983 309.184 322.756 308.792 325.129C308.526 326.742 308.18 327.136 306.118 328.181C303.55 329.482 302.966 331.62 304.252 335.003C304.645 336.034 304.532 336.962 303.73 339.277C302.87 341.763 302.759 342.864 303.034 346.172C303.38 350.311 303.265 350.719 300.17 356.396C299.732 357.2 299.372 358.361 299.371 358.976C299.368 359.708 298.862 360.382 297.908 360.925C297.074 361.399 296.222 362.434 295.922 363.338C295.532 364.512 295.107 364.92 294.275 364.92C289.615 364.92 292.72 369.969 299.049 372.682C306.962 376.073 322.746 374.864 322.746 370.866C322.746 370.48 323.405 369.414 324.208 368.498C325.012 367.583 325.669 366.608 325.669 366.33C325.669 366.053 326.163 365.896 326.765 365.982C328.261 366.195 330.547 372.935 330.897 378.168C331.222 382.995 331.536 382.919 319.082 381.03C311.047 379.812 298.222 378.277 284.025 376.835C274.522 375.869 262.006 375.471 230.691 375.138C194.649 374.755 190.441 374.545 182.746 372.744C181.426 372.435 178.32 372.234 175.846 372.296C172.544 372.38 171.125 372.227 170.515 371.72C168.535 370.077 150.324 370.111 150.324 371.758C150.324 372.737 147.927 373.204 142.454 373.295C139.965 373.336 139.268 373.501 139.459 373.999C139.986 375.374 128.814 376.356 110.385 376.556C106.768 376.595 102.056 376.843 99.9125 377.107C97.7703 377.371 86.4822 377.798 74.8287 378.055C63.1752 378.312 42.064 378.886 27.9142 379.333C10.3442 379.888 2.02744 379.986 1.68704 379.646C1.00748 378.966 -0.26062 372.234 0.0473633 370.946C0.18454 370.375 1.53491 368.183 3.04739 366.074C15.1223 349.251 20.2783 340.236 23.6262 330.095L24.9117 326.199L39.2772 325.827C55.5555 325.406 73.1105 325.532 73.6504 326.074C74.4359 326.862 72.9297 328.877 71.5519 328.882C70.8087 328.885 69.0543 329.421 67.6528 330.073C66.2513 330.726 63.9496 331.484 62.5381 331.759C44.4044 335.279 41.2972 337.67 44.8745 345.355C45.7798 347.299 45.9618 348.179 45.6002 348.855C44.7536 350.438 45.074 351.736 46.7698 353.587L48.4219 355.389L55.5492 355.712C61.8111 355.996 73.5718 355.877 81.648 355.45C85.739 355.233 91.7316 354.316 92.8027 353.743C93.3301 353.461 94.6643 353.23 95.7691 353.23C97.8788 353.23 103.156 352.543 107.142 351.749C111.56 350.869 115.046 347.371 113.274 345.599C112.905 345.23 112.976 344.547 113.517 343.25C115.658 338.125 113.774 334.049 108.924 333.316C102.985 332.418 97.3302 333.276 95.688 335.324C93.9249 337.522 91.2017 338.451 88.8114 337.669C87.9523 337.388 86.3512 336.94 85.2527 336.671C79.7302 335.326 78.0257 332.32 81.037 329.237C83.153 327.069 84.0832 325.235 84.0832 323.229C84.0832 318.772 90.6817 322.277 93.0446 327.988C94.5571 331.643 94.9785 331.967 97.016 331.048C100.023 329.691 100.971 328.585 100.022 327.537C97.5297 324.782 98.7816 324.138 105.653 324.633C108.657 324.848 115.499 324.885 120.857 324.712C126.215 324.54 133.614 324.323 137.299 324.23C140.984 324.136 144.19 323.942 144.422 323.798C145.043 323.416 172.002 321.665 182.471 321.328C187.427 321.17 194.551 320.841 198.301 320.598C202.051 320.356 208.82 320.141 213.344 320.121C217.866 320.103 221.732 319.985 221.932 319.861C222.133 319.736 237.996 319.626 257.183 319.616L292.069 319.598L294.726 320.813C296.189 321.482 298.214 322.757 299.227 323.646C303.205 327.135 304.245 326.963 305.151 322.663C305.896 319.131 308.241 315.493 308.814 316.984ZM325.546 346.655C325.541 347.726 325.441 348.108 325.325 347.502C325.208 346.896 325.213 346.019 325.335 345.553C325.456 345.088 325.552 345.584 325.546 346.655ZM139.609 372.227C139.609 372.495 139.938 372.713 140.339 372.713C140.741 372.713 141.07 372.495 141.07 372.227C141.07 371.959 140.741 371.739 140.339 371.739C139.938 371.739 139.609 371.959 139.609 372.227Z" fill="#F5D00B"/>
<path d="M185.984 116.779C187.282 116.849 187.323 116.587 186.232 115.175C185.666 114.445 184.934 114.381 184.833 115.054C184.619 116.483 184.774 116.715 185.984 116.779Z" fill="#56DBF8"/>
<path d="M182.471 121.407C182.471 122.501 184.827 120.684 185.008 119.451C185.171 118.341 185.05 118.158 184.287 118.357C183.464 118.572 182.471 120.24 182.471 121.407Z" fill="#56DBF8"/>
<path d="M182.661 126.009C182.51 124.94 182.296 123.77 182.184 123.41C182.054 122.997 180.577 124.124 178.206 126.438C174.042 130.506 171.413 132.588 170.443 132.588C168.782 132.588 170.781 137.205 173.362 139.331C174.158 139.986 176.389 138.901 177.843 137.153C178.111 136.831 178.769 136.492 179.305 136.4C180.003 136.28 180.322 135.786 180.432 134.654C180.515 133.786 180.775 133.076 181.008 133.076C181.241 133.076 181.584 132.582 181.771 131.98C181.958 131.377 182.523 130.3 183.025 129.586C183.552 128.839 183.726 128.218 183.437 128.12C183.161 128.029 182.812 127.078 182.661 126.009Z" fill="#56DBF8"/>
<path d="M177.185 177.155C176.832 176.352 175.548 174.18 174.331 172.328L172.119 168.961L170.965 170.867C168.444 175.031 171.631 186.853 176.141 190.065C177.352 190.927 177.529 191.266 177.064 191.827C175.716 193.45 177.356 192.99 180.449 190.877C182.281 189.625 184.083 188.601 184.452 188.601C184.846 188.601 184.676 188.288 184.04 187.843C183.446 187.427 182.958 186.902 182.958 186.677C182.958 186.453 181.803 184.547 180.392 182.443C178.981 180.338 177.538 177.959 177.185 177.155Z" fill="#56DBF8"/>
<path fill-rule="evenodd" clip-rule="evenodd" d="M173.553 33.1669C174.675 33.6956 176.538 34.9949 177.693 36.056L179.792 37.9849L184.906 38.1869C191.554 38.4513 195.857 40.283 197.652 43.6134C198.31 44.8354 196.806 44.0299 195.177 42.2867C193.178 40.1508 189.417 39.071 183.972 39.071H179.178L177.906 37.4039C174.451 32.8739 168.422 32.1395 161.01 35.344C157.316 36.9413 155.752 37.2729 156.932 36.2106C160.059 33.3951 170.119 31.5534 173.553 33.1669ZM181.536 89.9231C180.772 90.8421 179.38 90.968 179.668 90.0914C179.779 89.7573 180.388 89.4069 181.024 89.3146C182.034 89.1675 182.099 89.2448 181.536 89.9231ZM178.241 99.5803C178.04 100.891 178.214 101.772 178.863 102.746C179.386 103.529 179.911 105.524 180.115 107.504C180.31 109.38 180.622 112.289 180.807 113.969C181.416 119.441 177.933 124.93 170.781 129.774C168.164 131.547 167.589 132.182 167.466 133.432C167.045 137.688 175.367 147.188 178.473 145.996C179.148 145.737 179.141 145.818 178.423 146.612C176.978 148.208 173.61 157.885 173.532 160.664C173.487 162.266 173.289 163.041 172.998 162.754C168.815 158.642 165.791 170.86 168.595 180.539C170.438 186.895 173.775 192.498 175.719 192.498C177.22 192.498 175.03 193.622 171.129 194.856C158.287 198.914 143.334 198.721 138.452 194.433C135.933 192.222 134.577 193.682 135.422 197.696C135.834 199.66 135.466 199.99 130.842 201.811C126.764 203.417 119.212 207.765 109.654 214.007C104.369 217.459 99.607 221.295 87.9635 231.474C83.8201 235.097 79.4435 238.806 78.2377 239.716C70.0444 245.907 69.8112 246.734 73.406 256.874C82.3325 282.051 86.3014 298.236 87.3051 313.548C87.6767 319.215 87.5807 319.381 83.7265 319.732C80.2302 320.051 77.6454 321.913 75.9858 325.305C74.3087 328.732 72.6578 329.854 73.6865 326.868C75.2389 322.363 79.0694 319.181 83.522 318.699L86.2752 318.401L86.1655 314.262C85.8101 300.813 81.4796 282.868 72.4334 257.361C68.8012 247.122 69.0294 245.972 75.7701 240.475C77.7415 238.867 82.8836 234.483 87.1979 230.733C102.984 217.009 104.88 215.584 119.152 206.71C121.965 204.96 126.458 202.591 129.137 201.445L134.008 199.363L134.303 194.834C134.52 191.526 134.414 189.781 133.909 188.358C127.666 170.731 127.191 149.326 132.798 138.253C134.945 134.011 135.065 133.33 134.019 131.313C132.033 127.483 131.838 120.026 133.62 115.998C134.762 113.415 140.051 107.538 140.079 108.821C140.155 112.392 153.29 116.937 159.77 115.635C164.374 114.71 175.857 104.896 174.987 102.629C174.855 102.282 175.15 101.893 175.645 101.764C176.14 101.634 176.989 100.681 177.532 99.6451L178.519 97.7636L178.241 99.5803ZM164.053 163.395C163.861 164.408 165.848 164.602 166.787 163.663C167.781 162.669 167.439 162.232 165.793 162.39C164.754 162.491 164.159 162.834 164.053 163.395ZM185.355 186.998C185.411 187.846 188.961 189.799 193.186 191.307C209.53 197.136 213.04 201.813 216.566 222.453L217.563 228.297L221.128 231.951C230.535 241.59 237.01 252.577 238.749 261.848C239.087 263.651 240.482 265.071 241.914 265.071C243.299 265.071 273.217 275.243 276.232 276.739C282.479 279.839 288.936 286.802 299.075 301.372C301.319 304.594 304.13 308.309 305.326 309.63L307.499 312.029L308.181 310.609C309.346 308.186 311.726 306.959 315.259 306.959C323.189 306.959 324.463 309.294 325.632 325.954C326.561 339.207 327.212 357.09 326.879 360.206C326.624 362.576 326.725 363.665 327.3 364.778C328.046 366.219 328.041 366.234 326.862 366.008C326.205 365.884 325.669 366.008 325.669 366.288C325.669 367.325 323.123 369.821 322.324 369.568C321.886 369.428 319.082 369.832 316.094 370.465C310.892 371.567 310.507 371.584 306.963 370.88C302.042 369.9 302.3 369.485 308.013 369.188C315.382 368.805 323.723 365.65 325.143 362.708C325.826 361.294 325.935 355.468 325.443 346.655C325.34 344.78 325.017 338.643 324.729 333.017C323.717 313.322 323.133 310.439 319.824 308.786C316.491 307.121 309.714 308.241 309.552 310.483C309.527 310.822 309.544 314.343 309.592 318.308C309.688 326.453 309.403 327.359 306.357 328.633L304.6 329.367L304.94 333.709C305.209 337.146 305.125 338.348 304.538 339.483C303.952 340.616 303.857 341.974 304.085 345.993C304.393 351.433 304.252 351.987 301.554 355.965C300.887 356.946 300.341 358.258 300.341 358.877C300.341 359.541 299.822 360.364 299.078 360.879C298.382 361.36 297.396 362.138 296.886 362.607C296.376 363.076 295.962 363.295 295.966 363.094C295.978 362.471 296.634 361.766 298.028 360.88C298.831 360.369 299.368 359.592 299.371 358.942C299.372 358.346 299.732 357.2 300.17 356.396C303.265 350.719 303.38 350.311 303.034 346.171C302.759 342.863 302.87 341.762 303.73 339.277C304.532 336.962 304.645 336.034 304.252 335.003C302.966 331.62 303.55 329.482 306.118 328.181C311.034 325.69 310.3 316.847 304.651 310.516C303.219 308.909 300.312 305.096 298.193 302.041C287.913 287.227 281.846 280.645 275.829 277.779C272.15 276.026 248.374 267.804 243.354 266.548C239.096 265.482 238.526 265.101 237.986 262.944C235.135 251.546 230.072 242.862 220.214 232.461C217.258 229.341 216.078 227.744 216.078 226.861C216.078 226.181 215.518 222.719 214.833 219.168C211.522 202.024 208.481 198.181 193.917 192.748C186.011 189.798 184.378 188.745 185.065 187.034C185.245 186.586 185.327 186.576 185.355 186.998ZM166.641 238.672C175.204 243.15 176.655 244.354 184.678 253.626C198.081 269.114 217.392 288.292 221.986 290.673C222.691 291.039 227.123 292.228 231.837 293.318C248.983 297.282 255.72 299.786 275.745 309.631C286.841 315.086 296.444 320.514 296.444 321.329C296.444 321.586 294.927 321.068 294.254 320.581C293.986 320.387 293.237 320.066 292.59 319.868C291.944 319.669 290.381 318.765 289.118 317.857C286.34 315.861 264.299 305.019 256.505 301.814C249.537 298.949 242.687 296.897 231.484 294.315C226.697 293.213 222.204 292.011 221.5 291.645C216.319 288.949 198.578 271.24 181.536 251.754C175.635 245.008 173.984 243.713 166.154 239.688L160.31 236.683L156.169 238.64C149.046 242.009 134.307 246.029 113.763 250.207C97.1244 253.589 96.9523 253.669 99.7641 256.704C111.366 269.225 111.527 272.708 102.376 313.46C101.424 317.705 100.643 321.802 100.643 322.564C100.643 323.918 99.8975 324.884 99.3077 324.295C99.1444 324.131 99.7167 320.766 100.58 316.818C107.738 284.042 108.64 278.885 107.954 274.597C106.906 268.041 103.839 262.353 98.5122 257.088C94.5384 253.162 94.7803 253.037 114.1 249.034C135.544 244.593 148.487 241.064 155.55 237.736C160.591 235.361 160.255 235.332 166.641 238.672ZM318.334 311.258C319.971 312.136 321.79 314.77 321.754 316.206C321.743 316.611 321.432 316.248 321.062 315.398C320.31 313.667 318.794 312.511 316.364 311.816C313.369 310.957 312.18 312.268 313.563 314.905C314.117 315.962 314.114 315.963 313.077 315.041C309.647 311.996 313.943 308.904 318.334 311.258ZM84.0507 323.413C84.1043 325.234 82.86 327.549 80.8537 329.363L78.9684 331.068L80.8624 329.03C82.042 327.762 82.9934 326.11 83.3861 324.647C83.734 323.357 84.032 322.802 84.0507 323.413ZM300.585 324.265C301.388 324.924 301.811 325.464 301.522 325.465C301.234 325.467 300.483 324.919 299.855 324.25C298.411 322.714 298.7 322.72 300.585 324.265ZM109.167 333.292C112.534 333.852 114.282 335.793 114.282 338.976C114.282 342.088 112.97 345.437 111.752 345.437C111.237 345.437 110.006 346.058 109.017 346.817C106.984 348.377 104.671 348.992 96.991 350.009C79.8537 352.282 74.8873 352.629 65.5742 352.204C61.4221 352.014 56.5829 351.977 54.821 352.12C50.9756 352.433 48.8908 351.684 50.1377 350.437C50.7998 349.775 51.4531 349.761 55.629 350.314C69.2151 352.112 109.406 346.352 112.698 342.134C115.731 338.251 111.726 333.843 105.027 333.692C102.779 333.643 102.583 333.573 103.809 333.261C105.651 332.792 106.173 332.796 109.167 333.292ZM52.7075 334.739C46.1526 336.853 44.8221 337.842 44.1887 341.073L43.7635 343.246L43.7099 341.395C43.5952 337.412 45.9556 335.557 53.417 333.768C59.4794 332.315 59.2512 332.628 52.7075 334.739Z" fill="#62E9A0"/>
<path fill-rule="evenodd" clip-rule="evenodd" d="M175.113 3.41497C179.282 7.75417 184.906 14.3577 184.898 14.9051C184.861 17.6982 178.922 20.7157 178.418 18.1982C178.206 17.142 177.371 16.3253 174.937 14.7991C170.971 12.3128 170.699 11.6994 172.665 9.67065C174.61 7.66315 174.583 6.87511 172.486 4.55339C168.979 0.671804 171.448 -0.398035 175.113 3.41497ZM203.037 4.73544C205.426 6.07835 206.475 9.82526 204.268 9.12825C200.072 7.80405 199.031 8.37263 199.031 11.9899C199.031 17.1795 191.542 20.7605 189.152 16.7131C185.877 11.1707 197.167 1.43242 203.037 4.73544ZM210.487 27.7544C210.76 27.9514 211.263 28.7444 211.603 29.5175C212.175 30.818 212.269 30.8591 212.854 30.0586C213.636 28.9901 213.599 28.904 215.303 35.9053C216.02 38.8517 216.816 42.0563 217.073 43.0251C218.735 49.302 216.714 62.6475 213.441 67.0029C212.806 67.8471 212.132 69.4817 211.944 70.6339C211.739 71.8833 211.375 72.6551 211.04 72.5441C210.269 72.291 210.041 70.3184 210.639 69.0752C210.911 68.5129 211.268 67.4306 211.434 66.6712C211.599 65.9106 212.242 64.7834 212.86 64.1637C214.288 62.736 215.679 50.5102 214.73 47.7247C214.432 46.8493 213.728 44.8194 213.164 43.2121C210.715 36.2258 208.719 27.3728 209.596 27.389C209.813 27.394 210.214 27.5574 210.487 27.7544ZM170.416 33.5699C169.813 33.6871 168.827 33.6871 168.224 33.5699C167.621 33.4539 168.115 33.3592 169.32 33.3592C170.525 33.3592 171.019 33.4539 170.416 33.5699ZM174.24 34.6834C175.204 35.1934 176.721 36.4403 177.613 37.4552L179.233 39.2994L183.653 39.1535C186.083 39.0724 188.552 39.1859 189.138 39.4041C189.785 39.646 187.996 39.7894 184.585 39.7695L178.967 39.737L177.432 37.9565C176.587 36.9777 174.91 35.6248 173.704 34.9515C171.166 33.5325 171.626 33.3018 174.24 34.6834ZM163.962 34.8205C158.978 36.6622 158.687 36.7295 161.326 35.429C162.689 34.7569 164.553 34.0824 165.467 33.9302C166.466 33.7619 165.866 34.1173 163.962 34.8205ZM143.872 36.2495C146.407 38.1298 152.271 38.6971 156.29 37.449C159.416 36.4802 158.763 37.2981 155.411 38.5525C151.122 40.1572 147.063 39.656 143.435 37.0737C141.407 35.6285 140.955 36.2994 141.581 39.8281C143.868 52.7322 149.788 57.0577 161.133 54.1175C169.012 52.0751 172.666 54.3257 174.179 62.15C175.194 67.4032 177.122 68.9593 178.103 65.3171C178.939 62.2098 180.622 60.8096 183.117 61.1437C187.056 61.6724 188.351 65.2722 186.644 70.9444C185.009 76.3783 186.948 75.7761 190.865 69.6351C196.054 61.4966 195.922 61.8595 197.549 51.3182C198.253 46.7596 196.084 42.6236 192.133 40.9864C191.356 40.6647 190.826 40.2944 190.957 40.1647C192.25 38.8717 198.728 45.8568 198.713 48.5289C198.667 56.9866 197 62.1388 191.561 70.6276C188.46 75.4681 188.043 75.8958 186.002 76.3222C184.046 76.7312 183.948 75.9257 185.4 71.296C187.235 65.4406 186.203 61.9642 182.627 61.9642C181.087 61.9642 179.062 64.0266 179.062 65.5952C179.062 67.3246 177.367 68.9531 176.21 68.3334C174.691 67.5204 174.251 66.6463 173.299 62.5565C171.454 54.6387 168.89 53.0876 161.04 55.1449C148.814 58.3494 141.323 51.9616 140.494 37.626C140.303 34.3342 140.94 34.0749 143.872 36.2495ZM183.445 77.1813C183.445 77.3846 182.787 77.5504 181.984 77.5504C181.18 77.5504 180.504 77.7137 180.483 77.9157C180.008 82.2425 179.605 83.3946 178.565 83.3946C177.383 83.3946 177.37 82.9544 178.452 79.7013C179.286 77.1975 179.351 77.1377 181.375 76.9768C182.513 76.8858 183.445 76.9781 183.445 77.1813ZM207.967 81.8123C208.391 82.4981 205.431 90.3822 203.35 94.1104C203.126 94.5119 202.613 95.6079 202.21 96.5456C201.806 97.4833 201.265 98.5793 201.006 98.9808C200.748 99.3823 199.658 101.274 198.587 103.182C196.644 106.64 194.223 109.209 192.906 109.209C191.739 109.209 192.113 108.424 194.567 105.718C195.862 104.289 197.657 101.697 198.556 99.9546C199.455 98.2139 200.503 96.4147 200.886 95.9571C201.268 95.4995 201.995 93.3511 202.5 91.1827C203.608 86.4208 207.108 80.422 207.967 81.8123ZM177.843 84.3684C178.009 84.6365 177.821 84.856 177.426 84.856C177.029 84.856 176.305 84.9956 175.814 85.1652C175.029 85.437 175.039 85.3796 175.896 84.6939C177.043 83.7737 177.436 83.7088 177.843 84.3684ZM177.6 85.7899C177.6 86.0355 177.391 86.3086 177.134 86.3984C176.877 86.4881 176.603 87.5468 176.525 88.7525C176.383 90.9396 176.386 90.9446 177.953 90.8735L179.524 90.8037L177.981 93.0481C177.131 94.2825 175.058 96.6703 173.375 98.3549C170.375 101.354 170.341 101.416 171.725 101.416C174.959 101.416 174.887 102.014 171.453 103.67C169.61 104.558 167.512 105.291 166.791 105.299C166.034 105.308 165.184 105.734 164.782 106.308C163.782 107.735 160.553 108.214 160.553 106.935C160.553 106.419 160.313 105.755 160.02 105.462C159.155 104.597 160.249 103.173 163.341 101.135C164.888 100.115 166.227 99.1042 166.317 98.8873C166.406 98.6716 167.345 98.4945 168.402 98.4945C169.661 98.4945 170.422 98.2414 170.605 97.7638C170.76 97.3611 171.407 97.0331 172.045 97.0331C173.149 97.0331 175.651 93.9969 175.651 92.659C175.651 92.2027 174.302 91.9408 172.877 92.1204C171.333 92.3136 171.305 90.3573 172.82 88.2949C174.512 85.9956 177.6 84.3771 177.6 85.7899ZM181.729 91.169C181.997 91.6029 179.304 97.5194 178.838 97.5194C178.723 97.5194 179.184 96.305 179.863 94.8212C180.543 93.3373 180.976 91.8024 180.826 91.4121C180.524 90.6266 181.269 90.4258 181.729 91.169ZM308.134 315.802C308.134 316.173 307.579 317.291 306.901 318.29C306.223 319.289 305.426 321.31 305.13 322.782C304.536 325.741 303.866 326.633 302.761 325.934C302.161 325.555 302.183 325.482 302.89 325.476C303.713 325.468 303.876 325.07 304.436 321.701C304.706 320.075 308.134 314.606 308.134 315.802ZM314.937 316.669C315.214 317.186 315.405 318.995 315.362 320.686L315.284 323.764L314.997 320.353C314.839 318.478 314.533 316.67 314.316 316.336C314.099 316 314.037 315.726 314.178 315.726C314.317 315.726 314.659 316.15 314.937 316.669ZM89.4685 322.21C91.2653 323.16 91.7765 323.786 92.7566 326.229C94.9411 331.678 98.5534 331.547 98.7616 326.011C98.8115 324.673 98.8813 324.542 99.0496 325.468C99.1718 326.138 99.6295 327.085 100.067 327.575C100.965 328.579 99.9649 329.718 97.016 331.048C94.9773 331.967 94.5558 331.642 93.0508 327.988C91.375 323.922 90.3176 322.809 87.249 321.886C85.5233 321.366 85.1817 321.143 86.077 321.118C86.7715 321.099 88.2977 321.59 89.4685 322.21ZM323.643 327.66C325.496 338.713 325.714 349.066 324.086 348.598C321.198 347.766 316.34 345.692 315.822 345.067C315.317 344.458 315.462 344.458 316.925 345.066C322.304 347.301 322.356 347.203 322.714 333.992L322.991 323.764L323.643 327.66ZM314.687 327.66C314.538 328.731 314.296 331.526 314.149 333.87C313.837 338.859 313.218 339.401 312.759 335.088C312.482 332.482 312.617 331.588 313.696 328.877C314.812 326.074 314.926 325.934 314.687 327.66ZM72.3935 329.102C72.3935 329.405 65.962 331.375 65.7289 331.143C65.4209 330.835 70.3112 328.877 71.3885 328.877C71.9409 328.877 72.3935 328.978 72.3935 329.102ZM79.1554 331.856C79.1866 332.289 79.6854 333.275 80.2639 334.048L81.3151 335.453L79.9722 334.176C79.123 333.368 78.7165 332.563 78.8649 331.984C79.042 331.292 79.1131 331.26 79.1554 331.856ZM62.1652 332.287C61.4957 332.502 60.5094 332.683 59.9732 332.691L58.9994 332.705L59.9732 332.287C60.5094 332.057 61.4957 331.875 62.1652 331.882L63.3822 331.897L62.1652 332.287ZM98.8227 333.604C98.223 333.72 96.9362 334.786 95.9636 335.973C94.5284 337.724 93.9062 338.124 92.6705 338.089L91.1456 338.048L92.5808 337.619C93.3713 337.383 94.8252 336.306 95.8127 335.225C97.021 333.903 97.9861 333.282 98.7604 333.327C99.8951 333.392 99.8951 333.397 98.8227 333.604ZM87.3962 337.15C88.2802 337.36 89.1568 337.693 89.3438 337.888C89.7229 338.286 86.8188 337.738 85.3014 337.125C84.0682 336.628 85.249 336.643 87.3962 337.15ZM113.47 345.763C115.067 347.36 111.305 350.92 107.142 351.749C103.156 352.543 97.8788 353.23 95.7691 353.23C94.6643 353.23 93.3302 353.461 92.8027 353.743C91.7316 354.316 85.739 355.233 81.648 355.45C73.5718 355.877 61.8111 355.996 55.5492 355.712L48.4219 355.389L46.7698 353.587C45.1115 351.776 44.7261 350.208 45.6052 348.847C45.9668 348.286 46.079 348.46 46.084 349.591C46.1027 353.256 48.695 354.588 56.1091 354.738C67.8174 354.975 83.7752 354.404 85.0869 353.702C85.6667 353.391 86.7166 353.248 87.4199 353.382C88.1243 353.517 89.5782 353.341 90.6531 352.992C91.7279 352.642 94.2242 352.208 96.2005 352.027C98.1768 351.846 100.368 351.48 101.071 351.212C101.773 350.945 103.553 350.685 105.027 350.637C108.529 350.521 112.333 348.437 112.333 346.634C112.333 345.47 112.81 345.103 113.47 345.763ZM294.543 365.843C292.993 367.035 293.409 367.971 296.305 369.807C303.229 374.198 317.832 374.954 321.349 371.104C322.584 369.752 322.746 369.689 322.746 370.572C322.746 376.344 302.878 376.07 294.681 370.183C291.432 367.85 291.293 364.905 294.434 364.931L295.715 364.942L294.543 365.843Z" fill="#DCA25B"/>
<path fill-rule="evenodd" clip-rule="evenodd" d="M180.506 93.3895C180.435 95.417 176.277 101.669 174.922 101.786L173.461 101.913L174.796 101.164C175.542 100.746 177.102 98.7574 178.327 96.6639C179.534 94.6003 180.516 93.1277 180.506 93.3895ZM176.164 95.9369C175.464 97.1402 174.588 98.134 173.477 98.9806C172.951 99.3821 173.381 98.6702 174.432 97.3983C176.433 94.9781 177.001 94.4993 176.164 95.9369ZM167.372 162.658C167.372 163.449 166.204 164.248 165.047 164.248C163.18 164.248 163.85 162.579 165.794 162.39C166.661 162.307 167.372 162.428 167.372 162.658ZM186.701 189.642C187.556 190.171 190.736 191.545 193.771 192.696C208.643 198.338 211.506 201.937 214.833 219.168C215.518 222.719 216.078 226.181 216.078 226.861C216.078 227.744 217.258 229.341 220.214 232.461C230.072 242.862 235.135 251.546 237.986 262.944C238.532 265.121 239.142 265.525 243.495 266.58C244.778 266.89 245.733 267.238 245.619 267.353C245.241 267.732 239.229 265.977 238.421 265.252C237.984 264.86 237.492 263.699 237.328 262.672C236.959 260.358 234.052 252.765 231.911 248.52C229.83 244.394 227.125 240.807 220.77 233.749C217.182 229.764 215.592 227.634 215.592 226.811C215.592 224.891 213.202 212.982 212.126 209.545C209.394 200.815 204.92 197.191 190.264 191.838C188.024 191.02 183.782 188.611 184.663 188.657C184.931 188.671 185.849 189.114 186.701 189.642ZM176.382 193.356C171.939 198.041 146.808 199.942 139.443 196.147C136.297 194.528 136.2 194.563 136.2 197.31C136.2 200.146 136.169 200.175 130.607 202.424C119.681 206.845 105.426 216.817 86.6655 233.168C82.6692 236.65 78.037 240.546 76.3711 241.824C70.0344 246.683 70.0307 246.462 76.7328 264.971C77.8288 267.997 78.7141 270.737 78.7004 271.06C78.6393 272.474 70.9322 250.22 70.9322 248.632C70.9322 246.27 73.1567 243.557 78.2378 239.716C79.4435 238.806 83.8201 235.097 87.9635 231.475C99.607 221.295 104.369 217.459 109.655 214.007C119.212 207.765 126.764 203.417 130.842 201.811C135.506 199.974 135.809 199.691 135.414 197.529C134.673 193.48 135.92 192.211 138.452 194.433C144.102 199.396 160.909 198.846 175.896 193.209C176.572 192.954 176.72 192.999 176.382 193.356ZM167.201 238.461C174.978 242.503 177.19 244.192 181.792 249.597C191.542 261.046 201.099 271.211 210.455 280.081C221.272 290.335 221.273 290.337 230.716 292.522C250.107 297.01 268.06 304.102 287.434 314.927C292.779 317.913 303.585 325.468 302.512 325.468C302.289 325.468 300.888 324.512 299.398 323.342C284.997 312.046 254.801 298.627 231.837 293.318C222.287 291.11 221.718 290.884 218.27 287.906C208.496 279.469 196.645 267.338 183.117 251.92C175.878 243.672 174.522 242.604 165.555 238.103C160.135 235.382 160.514 235.397 155.55 237.736C149.45 240.61 122.879 248.048 120.976 247.415C120.724 247.33 123.772 246.52 127.749 245.613C138.813 243.091 151.11 239.387 155.455 237.269C160.432 234.842 160.192 234.817 167.201 238.461ZM119.883 247.798C119.615 247.899 116.116 248.65 112.108 249.468C95.1332 252.93 94.6032 253.227 98.5123 257.088C103.654 262.169 107.218 268.634 107.717 273.784C107.906 275.743 107.843 275.637 107.219 272.952C105.815 266.913 100.93 259.015 96.8689 256.22C93.8339 254.132 94.4 253.22 99.6694 251.722C104.955 250.217 122.481 246.815 119.883 247.798ZM260.159 271.933C281.443 279.216 283.464 280.815 298.193 302.041C300.312 305.096 303.189 308.876 304.585 310.442C305.982 312.006 307.37 313.781 307.669 314.384C307.968 314.989 307.595 314.716 306.839 313.778C306.083 312.841 304.669 311.196 303.698 310.125C302.725 309.054 300.009 305.437 297.663 302.089C282.812 280.906 280.921 279.434 259.185 272.142C252.22 269.805 246.429 267.807 246.318 267.701C245.678 267.091 248.796 268.043 260.159 271.933ZM80.3151 275.923C82.2178 281.81 85.5495 295.084 85.5097 296.619C85.491 297.35 85.0807 296.085 84.5981 293.808C83.6143 289.17 81.1555 280.054 79.6305 275.39C79.0781 273.699 78.7141 272.226 78.8238 272.117C78.9323 272.009 79.6031 273.721 80.3151 275.923ZM108.166 278.709C107.88 281.986 104.444 299.72 104.152 299.427C104.036 299.312 104.726 295.206 105.683 290.302C106.642 285.399 107.645 280.182 107.913 278.709L108.399 276.03L108.166 278.709ZM86.5184 302.575C86.865 304.996 87.0483 307.079 86.9261 307.201C86.8027 307.324 86.4211 305.442 86.0782 303.016C85.7341 300.591 85.552 298.51 85.6705 298.39C85.7902 298.271 86.1717 300.155 86.5184 302.575ZM102.481 307.933C101.203 314.31 99.9287 319.67 99.7903 319.253C99.5958 318.672 102.062 307.332 102.462 306.959C102.607 306.826 102.615 307.263 102.481 307.933ZM319.824 308.786C322.471 310.109 323.154 312.106 323.968 320.898C325.222 334.452 324.611 335.271 322.738 322.545C321.573 314.626 320.77 312.566 318.346 311.266C313.48 308.656 310.076 311.666 313.492 315.558C315.516 317.861 315.619 323.674 313.721 328.453C312.83 330.697 312.564 331.084 312.761 329.851C313.286 326.565 313.609 320.142 313.291 319.313C312.675 317.709 311.489 319.793 311.063 323.227C310.582 327.114 309.645 328.709 307.523 329.264C305.987 329.665 305.946 329.744 306.063 332.078C306.13 333.398 306.24 335.649 306.307 337.079L306.43 339.68L308.064 339.416C311.188 338.908 312.024 337.953 312.084 334.832L312.137 332.043L312.789 335.615C314.236 343.544 315.263 345.412 318.885 346.715C321.995 347.834 321.616 348.153 318.335 347.179C315.172 346.239 314.668 346.579 314.206 349.967C313.201 357.35 309.274 361.492 303.264 361.507C300.433 361.514 297.776 362.844 297.413 364.433C297.24 365.193 296.741 365.708 296.088 365.803C294.514 366.031 296.136 362.923 298.378 361.412C299.518 360.645 300.169 359.753 300.395 358.647C300.578 357.749 301.155 356.437 301.678 355.731C304.127 352.418 304.39 351.357 304.085 345.993C303.857 341.974 303.952 340.617 304.538 339.483C305.125 338.348 305.209 337.146 304.94 333.709L304.6 329.367L306.357 328.633C309.403 327.359 309.688 326.453 309.592 318.308C309.544 314.343 309.527 310.822 309.552 310.483C309.714 308.241 316.491 307.121 319.824 308.786ZM87.6618 311.221C88.3064 318.044 87.7902 321.084 85.9885 321.084C84.673 321.084 83.764 322.273 83.4161 324.449C83.1966 325.82 82.4361 327.167 80.9136 328.882C78.2515 331.878 78.1966 332.752 80.552 334.701C85.3662 338.684 93.0783 339.275 96.0297 335.887L97.9923 333.635L102.849 333.706C110.92 333.826 113.307 335.106 113.307 339.322C113.307 342.277 112.704 342.732 106.244 344.646C91.3925 349.048 66.8399 351.797 55.629 350.314C51.4532 349.761 50.7998 349.775 50.1377 350.437C48.8908 351.684 50.9756 352.433 54.8211 352.12C56.5829 351.977 61.4221 352.014 65.5743 352.204C80.5034 352.885 105.082 349.837 109.017 346.817C110.828 345.428 112.333 345.023 112.333 345.925C112.333 346.193 112.047 346.412 111.697 346.412C111.348 346.412 110.348 346.937 109.477 347.58C108.606 348.224 107.086 348.901 106.098 349.085C105.111 349.271 104.083 349.567 103.813 349.744C103.122 350.196 89.4398 351.933 77.7514 353.052C71.4509 353.655 52.6876 353.233 49.8385 352.423C48.6078 352.073 47.8073 349.839 48.629 349.047C49.3896 348.312 56.8947 347.383 59.169 347.741C60.5742 347.962 60.7725 347.871 60.6004 347.083C60.4919 346.579 60.1366 346.224 59.8124 346.294C59.4134 346.378 59.3211 346.023 59.5293 345.198C59.7176 344.447 59.6278 343.977 59.2986 343.977C58.0318 343.977 55.7837 339.921 55.932 337.904C56.0742 335.972 56.1241 335.923 58.9994 334.942C63.3361 333.462 63.6366 333.23 60.9059 333.468C59.543 333.587 57.4607 334.13 56.2787 334.678C55.0953 335.224 52.5504 336.121 50.6228 336.671C45.2112 338.214 43.7573 340.954 46.3359 344.754C47.7212 346.795 47.8073 347.61 46.8222 349.334C46.1289 350.548 46.1265 350.546 46.109 348.661C46.099 347.612 45.6327 346.027 45.0579 345.098C41.3334 339.07 45.185 336.378 64.3573 331.606C72.5818 329.559 74.3773 328.591 75.9609 325.356C77.6467 321.909 80.2103 320.054 83.7266 319.732C87.6069 319.378 87.6705 319.262 87.2852 313.18C86.9186 307.381 87.1742 306.051 87.6618 311.221ZM320.091 311.367C321.563 312.904 322.238 312.634 321.3 310.883C321.006 310.332 320.293 309.882 319.717 309.882C318.725 309.882 318.745 309.963 320.091 311.367ZM99.5634 320.841C99.5584 321.377 99.3864 322.472 99.1819 323.276C98.8489 324.589 98.809 324.613 98.8015 323.519C98.7965 322.85 98.9674 321.753 99.1819 321.084C99.4874 320.13 99.5709 320.078 99.5634 320.841ZM79.2776 322.929C78.3263 323.633 77.1629 325.216 76.5083 326.695C75.6517 328.634 75.022 329.372 73.8873 329.767C72.0681 330.401 72.0506 330.578 73.6716 331.972C75.1666 333.257 75.3898 335.543 74.113 336.477C72.0394 337.992 74.8761 342.732 77.5557 342.23C78.6193 342.03 79.7851 342.184 80.7976 342.656C82.3413 343.377 86.1443 342.984 89.0184 341.806C89.5259 341.599 90.3039 341.936 91.1718 342.74C93.5334 344.93 98.4973 344.853 106.106 342.512C110.088 341.286 110.872 340.565 110.872 338.125C110.872 335.821 110.874 335.822 105.893 334.946C99.0634 333.744 98.1245 333.983 95.7728 337.528C94.683 339.169 90.3202 340.194 88.1992 339.307C87.3239 338.942 85.5458 338.407 84.249 338.119C77.6218 336.646 75.835 333.121 79.628 329.002C81.355 327.125 82.6218 324.103 82.6218 321.858C82.6218 320.923 81.5034 321.282 79.2776 322.929ZM325.4 349.292C326.04 350.329 325.83 361.285 325.143 362.708C323.723 365.65 315.382 368.805 308.013 369.188C302.301 369.485 302.042 369.9 306.961 370.879C310.512 371.586 310.876 371.568 316.266 370.43C319.352 369.779 321.985 369.354 322.117 369.486C322.694 370.063 321.582 370.765 320.092 370.765C319.198 370.765 316.746 371.121 314.642 371.556C309.169 372.688 300.905 371.472 300.117 369.42C299.643 368.187 300.832 367.356 303.07 367.356C304.238 367.356 306.074 367.003 307.15 366.572C308.254 366.13 309.635 365.921 310.315 366.092C310.988 366.26 313.194 365.935 315.307 365.355C324.934 362.713 324.945 362.699 324.922 354.59C324.906 348.718 324.925 348.523 325.4 349.292Z" fill="#DE2323"/>
</svg>
