<svg width="600" height="398" viewBox="0 0 600 398" fill="none" xmlns="http://www.w3.org/2000/svg">
<path fill-rule="evenodd" clip-rule="evenodd" d="M264.293 3.07583C266.664 3.38015 271.786 4.34224 275.675 5.21399C294.625 9.46338 295.041 10.4096 288.764 34.9248C284.833 50.2787 283.622 53.0636 279.704 55.7501C276.179 58.1673 268.958 65.0668 268.958 66.0162C268.958 66.3855 271.327 68.5696 274.222 70.871C281.262 76.4693 281.367 76.2949 270.514 76.986C262.745 77.4789 258.308 78.2872 254.577 79.8849C248.765 82.3734 246.502 79.9499 251.589 76.6848C255.26 74.3295 258.527 70.833 260.294 67.3698L261.589 64.8306L256.536 59.1389C253.758 56.0069 250.1 51.5863 248.408 49.3134C244.486 44.0465 245.573 44.3064 229.596 44.8168C208.546 45.4888 206.14 43.6566 212.042 31.4489C222.154 10.5396 241.322 0.130896 264.293 3.07583ZM262.394 40.737C250.77 42.6343 250.803 42.5614 257.218 52.1569C262.253 59.6857 262.911 60.2182 265.534 58.8837C272.725 55.2255 276.388 50.5165 276.388 44.9277C276.388 38.713 275.829 38.545 262.394 40.737ZM285.268 90.7485C285.424 91.0037 285.756 94.6318 286.003 98.8098L286.455 106.407L283.484 109.025C281.852 110.466 278.709 113.259 276.501 115.234C270.839 120.293 270.882 120.28 267.341 118.058C259.825 113.343 259.836 113.236 268.804 103.871C279.241 92.9691 284.204 89.0129 285.268 90.7485ZM368.41 129.074C371.465 136.385 373.677 160.867 371.797 166.561C370.273 171.183 358.582 181.436 353.007 183.041C347.972 184.493 347.068 185.354 349.912 185.988C362.162 188.725 364.957 192.371 357.187 195.474C350.311 198.221 346.282 198.02 335.16 194.369C321.379 189.846 322.192 189.589 317.266 200.031C313.622 207.758 313.533 208.747 316.072 213.512C318.291 217.672 319.397 218.268 325.538 218.596C330.968 218.888 334.816 222.632 330.359 223.288C328.364 223.581 328.72 224.316 331.453 225.548C334.743 227.033 336.904 226.542 344.989 222.479C388.621 200.549 441.285 223.83 458.419 272.621C480.727 336.149 415.331 399.5 349.886 377.76C329.372 370.946 311.006 355.564 301.882 337.552C300.184 334.2 300.388 334.239 289.753 335.202C276.147 336.43 275.085 336.645 273.63 338.465C266.832 346.964 259.281 349.953 253.756 346.333C251.716 344.997 252.325 343.946 257.164 340.44C259.947 338.424 260.914 337.354 260.781 336.441C260.592 335.141 260.115 334.839 253.393 331.77C238.31 324.885 233.547 306.293 243.045 291.386C246.042 286.68 245.522 285.065 239.859 281.502C236.603 279.452 234.538 278.568 232.95 278.541C230.287 278.497 229.403 277.84 212.066 263.051C179.694 235.434 160.639 219.809 156.936 217.843C153.858 216.209 151.283 225.795 153.064 232.248C153.508 233.855 153.491 235.077 153.001 236.37C152.318 238.184 152.413 238.31 159.892 245.437C183.65 268.075 194.816 290.948 195.712 318.816C196.1 330.898 196.11 330.865 192.241 330.21C190.191 329.865 189.732 329.473 188.908 327.373C187.517 323.834 186.223 324.213 185.073 328.499C180.31 346.251 173.736 357.685 161.563 369.387C120.431 408.929 54.2157 402.437 21.8706 355.692C3.77786 329.545 0.775879 306.592 11.7932 278.647C29.8067 232.955 86.7606 209.354 135.138 227.532C140.903 229.699 142.708 228.506 146.002 220.352C148.046 215.287 148.059 213.673 146.059 212.762C144.074 211.857 144.114 211.302 146.404 207.921C150.002 202.613 158.751 181.504 158.751 178.134C158.751 177.497 157.087 176.037 154.573 174.468C152.273 173.034 148.117 170.222 145.336 168.22C139.856 164.277 138.454 163.937 135.379 165.813C133.68 166.849 133.367 167.404 133.367 169.385C133.367 172.603 130.476 174.327 126.794 173.305C125.473 172.937 123.363 172.636 122.108 172.633C116.208 172.625 114.473 169.475 120.061 168.916L123.151 168.605L122.949 165.32C122.678 160.926 123.702 159.525 129.202 156.764C131.662 155.529 135.972 152.865 138.779 150.844C144.86 146.464 147.173 145.875 150.413 147.877C152.63 149.246 152.725 149.254 154.941 148.186C158.084 146.672 164.272 146.244 165.847 147.433C167.174 148.433 159.786 157.201 154.508 160.894C151.127 163.261 151.368 163.98 156.424 166.607C161.405 169.195 162.161 169.352 162.939 167.96C163.232 167.436 164.952 166.616 166.759 166.141C168.566 165.664 171.501 164.56 173.283 163.689C178.529 161.123 179 162.62 174.329 167.02C171.669 169.526 171.071 170.609 169.011 176.651C166.275 184.672 166.339 184.896 171.818 186.433C182.968 189.561 194.419 192.632 200.234 194.057C203.81 194.934 215.283 197.994 225.73 200.857C236.179 203.721 245.234 206.062 245.853 206.062C246.926 206.059 255.956 215.013 255.956 216.079C255.956 216.94 254.105 216.651 245.741 214.491C241.314 213.348 231.005 210.69 222.833 208.582C207.52 204.636 183.542 198.07 172.731 194.867C164.787 192.512 165.028 192.383 161.956 200.654C158.715 209.375 158.531 208.381 164.169 212.602C173.512 219.598 191.948 234.25 197.2 238.854C207.908 248.24 224.104 262.878 225.309 264.258C227.32 266.563 233.666 271.692 234.506 271.692C235.838 271.692 248.518 261.745 249.386 260.02C249.84 259.118 250.386 257.032 250.604 255.384C251.819 246.088 259.675 241.791 270.766 244.352C273.044 244.879 273.875 244.796 275.72 243.856C276.938 243.235 279.831 242.282 282.145 241.74C289.87 239.93 293.521 236.439 294.34 230.076C294.616 227.937 295.039 225.694 295.282 225.092C295.524 224.489 295.378 223.164 294.957 222.147C292.902 217.187 296.86 206.347 301.555 204.074C304.755 202.526 305.955 200.285 306.261 195.294C306.346 193.896 306.805 192.448 307.28 192.076C308.093 191.439 310.772 185.086 311.487 182.098C311.772 180.903 311.452 180.639 308.951 180.009C307.375 179.613 305.934 179.044 305.75 178.745C305.101 177.694 302.671 178.22 300.992 179.775C298.834 181.778 298.861 182.182 301.362 185.259C305.438 190.274 305.825 191.672 302.107 187.953C297.35 183.198 297.456 183.164 288.335 192.504C277.002 204.108 276.759 204.173 271.63 196.923C270.007 194.629 265.22 188.155 260.992 182.536C256.763 176.917 253.189 171.901 253.049 171.387C252.563 169.599 272.397 157.667 289.083 149.707C293.852 147.433 298.171 145.07 298.68 144.456C299.189 143.843 301.417 142.518 303.63 141.511C312.553 137.458 317.162 136.328 333.349 134.227C346.593 132.505 358.409 130.098 362.368 128.313C366.752 126.337 367.294 126.405 368.41 129.074ZM308.694 213.67C308.331 214.107 307.288 216.533 306.377 219.061L304.719 223.656L306.186 224.811C309.521 227.434 319.415 233.307 320.501 233.307C322.282 233.307 321.786 232.037 316.088 222.007C311.036 213.117 310.063 212.02 308.694 213.67ZM367.711 230.595C364.987 231.107 361.262 232.205 359.433 233.036C357.604 233.865 355.611 234.544 355.003 234.544C353.868 234.544 340.83 242.829 340.015 244.069C339.286 245.177 339.327 245.253 344.049 251.453C354.946 265.766 366.42 278.503 368.413 278.503C369.268 278.503 371.165 279.205 372.628 280.062C374.093 280.92 375.709 281.461 376.223 281.264C377.193 280.891 383.363 282.614 384.398 283.546C384.722 283.836 385.362 284.076 385.82 284.076C386.967 284.076 395.259 292.819 395.26 294.033C395.262 294.572 395.45 295.201 395.679 295.429C396.447 296.198 396.338 302.942 395.526 304.817C395.084 305.838 394.575 307.161 394.393 307.757C394.213 308.353 393.49 308.841 392.788 308.841C392.084 308.841 391.333 309.328 391.117 309.924C390.57 311.431 387.123 314.357 385.858 314.387C385.283 314.402 384.639 314.692 384.428 315.032C384.218 315.373 382.785 315.969 381.242 316.357C377.814 317.221 377.483 317.979 378.621 322.349C379.564 325.97 380.645 327.069 381.197 324.964C381.797 322.663 384.042 323.398 385.375 326.332C386.994 329.901 386.987 332.369 385.357 332.369C384.576 332.369 383.051 333.742 381.233 336.083C378.171 340.025 377.477 340.449 376.925 338.714C376.077 336.051 373.343 331.052 372.466 330.561C371.824 330.202 371.484 329.066 371.447 327.177C371.36 322.488 368.347 320.986 367.074 324.994C366.588 326.527 365.427 326.503 364.449 324.939C363.956 324.149 363.005 323.701 361.825 323.701C359.536 323.701 359.331 321.975 361.246 318.833C362.425 316.898 362.443 316.671 361.501 315.632C360.555 314.585 360.584 314.462 361.932 313.766C365.339 312.008 367.63 308.304 365.389 308.179C364.965 308.155 358.626 308.161 351.305 308.191C343.982 308.222 332.448 307.849 325.671 307.361C318.893 306.874 312.994 306.611 312.561 306.778C309.632 307.901 315.105 326.177 318.372 326.177C319.123 326.177 319.077 326.424 318.139 327.462C316.888 328.842 319.886 336.327 322.016 337.143C322.485 337.324 323.265 338.416 323.747 339.57C326.66 346.541 346.36 359.883 357.187 362.216C368.887 364.74 388.277 365.044 391.226 362.75C391.574 362.479 392.902 362.099 394.176 361.902C399.762 361.045 413.38 354.128 418.146 349.728C419.576 348.408 421.795 346.634 423.075 345.786C424.356 344.938 425.746 343.42 426.165 342.412C426.581 341.404 427.559 340.288 428.339 339.933C429.117 339.578 430.528 337.94 431.474 336.292C432.421 334.645 433.831 332.6 434.609 331.749C435.388 330.898 437.315 327.276 438.894 323.701C440.474 320.125 442.488 316.443 443.374 315.519C444.695 314.14 444.845 313.672 444.216 312.915C443.771 312.378 443.665 311.656 443.963 311.19C444.774 309.919 445.603 300.528 445.616 292.433C445.627 285.008 445.625 285 442.801 278.194C438.139 266.966 437.664 265.994 434.513 261.272C432.847 258.778 430.853 255.673 430.081 254.376C427.263 249.634 416.607 241.219 407.82 236.797C393.607 229.645 382.176 227.878 367.711 230.595ZM303.544 236.507C302.038 243.739 301.97 243.379 305.147 244.923C308.467 246.535 309.478 246.248 311.964 242.991C314.439 239.745 313.744 238.325 307.702 234.283C304.883 232.398 304.338 232.69 303.544 236.507ZM88.0555 238.342C87.4818 238.637 86.3913 238.878 85.6336 238.878C83.7649 238.878 78.1398 240.536 73.6194 242.417C71.5763 243.268 68.5457 244.481 66.8831 245.112C48.3988 252.136 31.6216 271.415 25.7032 292.433C24.6476 296.179 23.4351 300.358 23.0087 301.722C21.1257 307.721 23.7235 326.064 26.9506 329.551C27.2486 329.874 27.4942 330.711 27.4942 331.409C27.4942 332.651 29.2219 336.398 33.2098 343.806C34.305 345.84 36.226 348.53 37.4782 349.782C38.7303 351.034 39.9317 352.617 40.1489 353.301C40.7131 355.081 45.8153 359.611 47.256 359.611C47.9249 359.611 48.6445 359.891 48.8553 360.233C49.4909 361.259 56.4585 365.802 57.3984 365.802C57.8771 365.802 59.0072 366.486 59.9091 367.322C62.7415 369.946 66.9687 371.595 75.1679 373.273C77.0414 373.657 79.4093 374.343 80.4301 374.8C89.146 378.692 116.452 377.099 123.903 372.264C124.658 371.775 125.786 371.374 126.413 371.374C127.844 371.374 136.599 367.163 140.933 364.392C142.733 363.24 144.902 362.113 145.751 361.888C147.672 361.379 148.263 360.951 149.796 358.953C150.465 358.079 152.823 355.756 155.036 353.789C163.232 346.507 172.964 329.106 171.471 324.404C171.214 323.596 171.577 322.934 172.666 322.22C175.869 320.122 174.799 301.758 170.785 289.932C169.062 284.859 163.126 273.295 160.309 269.525C158.783 267.482 155.927 263.612 153.963 260.924C149.734 255.135 146.737 253.095 145.005 254.826C143.927 255.904 136.238 272.222 135.185 275.661C134.883 276.652 134.06 278.075 133.358 278.821C132.657 279.568 131.188 281.866 130.093 283.928C125.439 292.701 124.014 294.586 119.832 297.507C114.091 301.515 108.699 307.353 108.22 310.079C107.973 311.49 106.838 313.287 104.969 315.229L102.1 318.213L98.7115 317.8C91.6551 316.938 88.8036 311.197 92.1495 304.594L93.6537 301.625L98.1393 300.824C102.092 300.118 102.977 299.693 105.595 297.244C110.954 292.231 126.6 270.083 133.591 257.611C135.547 254.124 137.664 250.994 138.297 250.654C140.579 249.432 137.433 245.689 134.124 245.689C133.453 245.689 131.684 245.012 130.194 244.184C120.643 238.879 94.1578 235.209 88.0555 238.342ZM329.505 252.344C327.126 254.877 322.285 262.64 321.244 265.593C320.741 267.016 320.079 268.484 319.771 268.855C318.773 270.056 316.441 276.285 316.275 278.194C316.185 279.215 315.696 281.166 315.189 282.529C312.086 290.871 312.341 294.6 316.015 294.6C318.392 294.6 318.494 294.675 317.828 295.917C317.002 297.463 317.841 298.269 320.347 298.341C368.692 299.728 367.914 299.799 363.471 294.354C359.997 290.097 359.322 288.412 360.42 286.737C361.617 284.911 360.991 282.34 359.181 281.654C356.634 280.689 351.923 279.741 349.665 279.741H347.423L348.899 278.609C349.71 277.985 350.863 277.298 351.459 277.08C353.123 276.472 352.83 275.81 348.84 271.187C345.791 267.652 338.95 258.657 334.274 252.035C332.965 250.179 331.447 250.277 329.505 252.344ZM276.079 261.429C269.449 262.605 269.348 262.661 267.65 265.999L266.173 268.906L260.607 269.216C253.122 269.632 253.045 270.137 259.343 277.411C260.492 278.739 266.151 278.333 271.377 276.55C273.218 275.921 275.507 275.407 276.463 275.407C278.546 275.407 278.85 274.905 281.229 267.505C282.516 263.501 282.847 261.683 282.377 261.211C281.557 260.393 282.004 260.377 276.079 261.429ZM98.4182 271.128C98.6481 271.497 98.5134 272.122 98.1203 272.515C97.3436 273.291 96.009 271.912 96.605 270.949C97.0377 270.248 97.9301 270.337 98.4182 271.128ZM346.3 279.346C345.642 279.915 337.683 280.259 337.683 279.719C337.683 279.39 339.681 279.123 342.12 279.123C344.561 279.123 346.442 279.222 346.3 279.346ZM327.925 280.18C327.154 280.327 326.04 280.322 325.447 280.167C324.856 280.012 325.487 279.891 326.848 279.898C328.21 279.904 328.695 280.031 327.925 280.18ZM267.607 297.077C261.881 297.077 260.328 309.269 265.862 310.773C273.667 312.894 282.107 304.934 277.756 299.56C276.631 298.171 271.193 296.318 269.682 296.81C269.229 296.957 268.295 297.077 267.607 297.077ZM290.232 329.01C285.401 333.138 285.696 333.842 292.021 333.292C298.861 332.697 299.295 332.236 296.827 328.189C295.198 325.517 294.17 325.646 290.232 329.01ZM64.0237 328.269C64.0237 328.397 63.6053 328.849 63.0949 329.272C62.3341 329.904 62.1661 329.862 62.1661 329.039C62.1661 328.486 62.583 328.034 63.0949 328.034C63.6053 328.034 64.0237 328.139 64.0237 328.269Z" fill="#242B38"/>
<path fill-rule="evenodd" clip-rule="evenodd" d="M253.325 2.79373C252.729 2.94906 251.755 2.94906 251.159 2.79373C250.563 2.63681 251.051 2.51001 252.243 2.51001C253.435 2.51001 253.921 2.63681 253.325 2.79373ZM235.526 7.31891C234.334 7.97193 233.08 8.50607 232.739 8.50607C232.399 8.50607 233.096 7.97193 234.286 7.31891C235.478 6.66747 236.732 6.13332 237.073 6.13332C237.413 6.13332 236.718 6.66747 235.526 7.31891ZM231.81 8.83575C231.81 9.00535 230.98 9.57436 229.966 10.099C224.767 12.7872 217.202 21.5094 212.79 29.9004C209.464 36.2277 209.338 35.2989 212.624 28.6657C215.415 23.031 219.937 17.3678 225 13.166C228.287 10.4366 231.81 8.197 231.81 8.83575ZM292.961 15.9873C292.961 17.1792 292.835 17.6674 292.679 17.0714C292.522 16.4755 292.522 15.5007 292.679 14.9047C292.835 14.3087 292.961 14.7954 292.961 15.9873ZM275.531 59.1563C271.803 63.5706 278.49 68.0609 299.297 75.1141C319.23 81.871 322.26 83.2166 335.663 91.2811C351.502 100.812 360.745 108.217 359.089 110.048C357.701 111.58 357.843 112.208 360.322 115.454C361.536 117.045 363.239 119.764 364.106 121.496C364.973 123.228 366.271 125.289 366.992 126.073C368.081 127.261 368.117 127.43 367.211 127.083C366.572 126.837 364.656 127.313 362.582 128.234C358.392 130.093 346.671 132.496 333.349 134.227C314.673 136.652 303.706 139.923 298.368 144.659C297.347 145.566 296.859 145.905 297.285 145.414C299.292 143.098 292.055 134.77 283.817 129.915C282.627 129.212 279.98 127.394 277.937 125.872C275.892 124.352 272.898 122.228 271.28 121.154C268.318 119.185 267.34 118.186 269.511 119.348C270.811 120.044 271.672 119.448 280.511 111.75C286.729 106.334 286.501 106.901 285.979 98.225C285.49 90.086 285.082 89.3474 282.11 91.2145C279.267 93.0024 261.529 111.228 261.529 112.363C261.529 113.244 261.241 113.159 259.827 111.862C258.89 111.005 254.363 108.821 249.765 107.011C237.746 102.278 237.608 102.149 240.541 98.4263C244.096 93.9138 250.466 83.2341 250.203 82.2276C249.99 81.4129 250.349 81.0293 251.542 80.7948C252.438 80.6172 254.787 79.885 256.76 79.1685C259.09 78.3237 263.219 77.6358 268.524 77.2079C281.722 76.1428 281.359 76.5454 274.222 70.8711C267.937 65.8736 268.007 66.3427 272.827 61.5925C274.954 59.4955 276.171 58.3987 275.531 59.1563ZM372.211 144.769C372.211 145.96 372.085 146.449 371.929 145.853C371.772 145.257 371.772 144.282 371.929 143.686C372.085 143.09 372.211 143.577 372.211 144.769ZM162.931 146.434C162.335 146.59 161.36 146.59 160.764 146.434C160.168 146.277 160.655 146.151 161.847 146.151C163.039 146.151 163.527 146.277 162.931 146.434ZM151.012 147.602C151.722 148.138 152.912 148.401 153.798 148.217C155.298 147.907 155.304 147.92 153.985 148.58C152.882 149.134 152.234 149.015 150.579 147.956C149.455 147.236 148.815 146.652 149.156 146.656C149.495 146.661 150.332 147.087 151.012 147.602ZM141.416 148.709C141.416 148.878 140.579 149.614 139.559 150.341C138.536 151.069 137.701 151.524 137.701 151.354C137.701 151.183 138.536 150.449 139.559 149.722C140.579 148.994 141.416 148.539 141.416 148.709ZM372.742 156.841C372.741 160.588 372.639 162.04 372.516 160.07C372.394 158.1 372.394 155.035 372.519 153.259C372.644 151.484 372.744 153.096 372.742 156.841ZM136.665 152.248C135.897 153.179 132.128 155.548 132.128 155.101C132.128 154.957 133.312 154.058 134.761 153.104C136.208 152.15 137.064 151.765 136.665 152.248ZM154.263 161.503C153.326 162.23 152.538 163.291 152.511 163.858C152.48 164.535 152.353 164.616 152.144 164.096C151.76 163.142 152.906 161.649 154.676 160.798C155.483 160.411 155.328 160.674 154.263 161.503ZM142.963 166.488C146.813 169.398 147.034 169.935 143.358 167.448C139.638 164.93 139.151 164.836 136.172 166.082C134.316 166.857 134.04 167.269 133.87 169.525C133.626 172.766 130.158 175.251 127.666 173.972L126.246 173.243L127.704 173.619C130.416 174.316 133.368 172.11 133.368 169.385C133.368 164.833 138.66 163.235 142.963 166.488ZM123.295 167.058C123.167 168.436 122.812 168.64 120.055 168.916C117.315 169.189 116.966 169.387 117.011 170.639C117.047 171.634 116.869 171.858 116.407 171.395C115.208 170.197 116.901 168.628 119.749 168.296C121.648 168.076 122.563 167.631 122.927 166.748C123.377 165.66 123.422 165.698 123.295 167.058ZM173.841 167.681C173.116 168.531 172.083 170.06 171.544 171.083C171.005 172.103 170.553 172.717 170.541 172.444C170.49 171.449 172.284 168.57 173.703 167.371L175.159 166.137L173.841 167.681ZM365.545 174.796C362.665 177.692 360.17 180.06 360.001 180.06C359.829 180.06 362.047 177.692 364.925 174.796C367.805 171.902 370.3 169.534 370.471 169.534C370.641 169.534 368.425 171.902 365.545 174.796ZM124.235 173.067C123.469 173.215 122.214 173.215 121.449 173.067C120.683 172.92 121.309 172.799 122.842 172.799C124.374 172.799 125 172.92 124.235 173.067ZM158.514 177.237C158.702 177.729 158.747 178.634 158.614 179.25C158.463 179.949 158.251 179.613 158.049 178.358C157.713 176.248 157.932 175.72 158.514 177.237ZM167.621 182.168C167.334 183.512 167.534 184.195 168.412 184.871C169.059 185.368 169.189 185.655 168.702 185.511C167.131 185.045 166.497 183.395 167.285 181.815C167.97 180.442 167.987 180.461 167.621 182.168ZM350.147 184.33C349.462 184.764 349.522 184.997 350.456 185.541C351.315 186.04 351.375 186.216 350.685 186.223C348.918 186.24 347.76 185.105 348.828 184.403C349.338 184.069 350.036 183.793 350.376 183.793C350.717 183.793 350.613 184.035 350.147 184.33ZM361.418 190.378C362.827 191.788 360.619 195.598 358.442 195.514C358.092 195.5 358.599 195.059 359.571 194.533C361.021 193.747 361.289 193.254 361.07 191.77C360.785 189.819 360.799 189.76 361.418 190.378ZM154.418 190.821C154.418 192.742 149.322 203.615 146.404 207.921C144.114 211.302 144.074 211.857 146.059 212.762C147.287 213.321 147.588 213.886 147.514 215.493C147.428 217.374 147.403 217.396 147.164 215.81C146.996 214.696 146.273 213.775 145.089 213.163C142.73 211.942 142.711 212.025 146.642 206.118C148.495 203.334 150.901 198.7 151.987 195.821C153.681 191.333 154.418 189.817 154.418 190.821ZM328.396 192.133C331.287 193.246 330.038 193.268 326.54 192.165C325.007 191.683 324.309 191.29 324.991 191.293C325.673 191.296 327.205 191.673 328.396 192.133ZM166.39 193.68C165.653 193.978 164.755 194.726 164.396 195.344C164.036 195.961 163.735 196.138 163.724 195.737C163.697 194.656 165.497 193.056 166.691 193.102C167.461 193.13 167.383 193.279 166.39 193.68ZM175.159 195.538C175.939 195.874 176.053 196.07 175.468 196.07C174.958 196.07 173.983 195.831 173.302 195.538C172.522 195.203 172.406 195.007 172.993 195.007C173.503 195.007 174.478 195.246 175.159 195.538ZM163.682 197.224C163.695 197.641 162.86 200.11 161.828 202.71C160.153 206.924 159.867 209.76 161.115 209.788C161.348 209.793 162.652 210.787 164.015 211.996C166.245 213.976 166.138 213.938 162.931 211.603C160.974 210.177 159.371 208.654 159.371 208.216C159.371 207.164 163.652 196.248 163.682 197.224ZM348.983 197.833C348.216 197.98 346.962 197.98 346.197 197.833C345.431 197.685 346.057 197.565 347.59 197.565C349.123 197.565 349.749 197.685 348.983 197.833ZM316.196 212.581C317.11 214.445 317.725 215.97 317.565 215.97C317.148 215.97 314.026 209.703 314.303 209.425C314.43 209.297 315.281 210.719 316.196 212.581ZM232.739 211.017C233.519 211.353 233.635 211.549 233.048 211.549C232.538 211.549 231.563 211.31 230.882 211.017C230.102 210.681 229.986 210.484 230.573 210.484C231.083 210.484 232.058 210.724 232.739 211.017ZM237.073 212.255C237.854 212.591 237.968 212.787 237.383 212.787C236.871 212.787 235.897 212.548 235.215 212.255C234.435 211.92 234.321 211.724 234.906 211.724C235.416 211.724 236.393 211.963 237.073 212.255ZM311.691 214.268C312.346 215.618 312.338 215.623 311.389 214.437C310.52 213.351 310.257 213.31 309.033 214.073C307.773 214.857 307.729 214.843 308.505 213.903C309.682 212.478 310.892 212.618 311.691 214.268ZM158.801 219.046C160.306 220.056 162.373 221.616 163.396 222.513C164.416 223.408 163.86 223.131 162.158 221.899C155.73 217.246 154.586 217.167 153.783 221.322C153.361 223.51 153.317 223.553 153.252 221.834C153.087 217.515 155.051 216.528 158.801 219.046ZM329.635 218.612C330.486 219.035 331.775 220.614 332.499 222.121C333.224 223.63 334.477 225.139 335.286 225.477L336.755 226.09L335.274 226.347C333.74 226.613 329.015 224.817 329.015 223.968C329.015 223.703 329.621 223.397 330.359 223.288C335.049 222.598 330.943 218.923 324.92 218.422L320.038 218.015L324.062 217.931C326.276 217.883 328.784 218.19 329.635 218.612ZM105.378 221.381C103.094 221.5 99.1935 221.502 96.7098 221.383C94.2261 221.265 96.0948 221.169 100.863 221.167C105.63 221.167 107.662 221.262 105.378 221.381ZM115.257 221.969C114.662 222.124 113.687 222.124 113.091 221.969C112.495 221.814 112.981 221.685 114.173 221.685C115.365 221.685 115.853 221.814 115.257 221.969ZM305.44 222.732C305.465 223.215 305.965 224.191 306.548 224.898C307.548 226.112 307.528 226.109 306.166 224.857C305.372 224.126 304.873 223.152 305.056 222.69C305.328 222.01 305.4 222.018 305.44 222.732ZM125.628 223.992C129.374 224.966 133.658 226.207 135.148 226.749C138.652 228.022 140.7 227.994 142.296 226.65C143.58 225.57 143.58 225.57 142.418 226.944C140.663 229.018 139.434 229.141 135.452 227.637C133.455 226.884 128.337 225.361 124.08 224.253C119.824 223.147 116.898 222.235 117.579 222.229C118.259 222.223 121.883 223.015 125.628 223.992ZM168.968 226.881L172.064 229.717L168.813 227.119C165.998 224.871 165.107 223.98 165.718 224.031C165.802 224.039 167.265 225.32 168.968 226.881ZM152.988 228.043C152.984 230.086 152.868 230.848 152.732 229.734C152.594 228.621 152.595 226.951 152.738 226.02C152.879 225.09 152.992 226 152.988 228.043ZM381.953 229.604C378.805 230.11 370.698 230.397 371.168 229.984C371.311 229.861 374.492 229.614 378.238 229.434C382.717 229.219 383.988 229.278 381.953 229.604ZM389.691 230.21C391.772 230.877 389.524 230.877 386.906 230.21C385.237 229.786 385.205 229.736 386.595 229.726C387.446 229.72 388.84 229.937 389.691 230.21ZM321.173 230.623C322.179 231.63 321.55 233.303 320.193 233.234C319.058 233.175 319.011 233.107 319.941 232.868C320.707 232.671 320.979 232.186 320.773 231.392C320.442 230.126 320.521 229.972 321.173 230.623ZM394.335 231.449C395.115 231.783 395.23 231.98 394.644 231.98C394.133 231.98 393.159 231.741 392.477 231.449C391.697 231.113 391.583 230.916 392.168 230.916C392.678 230.916 393.653 231.156 394.335 231.449ZM362.286 232.391C361.005 232.861 359.341 233.678 358.588 234.205C357.837 234.732 356.701 235.163 356.067 235.163C355.431 235.163 353.125 236.163 350.941 237.383C348.757 238.605 346.97 239.463 346.97 239.288C346.97 238.685 354.06 234.544 355.093 234.544C355.666 234.544 357.625 233.85 359.447 233.002C361.269 232.154 363.177 231.478 363.687 231.498C364.198 231.519 363.568 231.921 362.286 232.391ZM401.455 233.882C412.22 238.043 426.415 248.206 430.081 254.376C430.853 255.673 432.847 258.778 434.513 261.272C437.664 265.994 438.139 266.966 442.801 278.194C445.625 285 445.627 285.008 445.616 292.433C445.603 300.528 444.774 309.919 443.963 311.19C443.665 311.656 443.771 312.378 444.216 312.915C444.846 313.672 444.695 314.14 443.375 315.519C442.489 316.443 440.474 320.125 438.894 323.701C437.315 327.277 435.388 330.898 434.61 331.749C433.831 332.601 432.421 334.645 431.475 336.292C430.528 337.94 429.118 339.578 428.339 339.933C427.56 340.288 426.582 341.404 426.165 342.412C425.746 343.42 424.264 344.986 422.871 345.891C421.478 346.796 420.253 347.726 420.147 347.958C420.042 348.187 418.649 349.413 417.051 350.679C415.441 351.957 416.869 350.253 420.257 346.854C428.877 338.21 430.035 336.899 433.052 332.369C436.553 327.108 441.782 315.928 442.026 313.175C442.132 311.983 442.492 309.957 442.826 308.672C443.159 307.386 443.3 305.825 443.137 305.202C442.974 304.581 443.135 302.474 443.497 300.525C444.21 296.667 443.354 284.878 442.283 283.797C441.961 283.473 441.699 282.437 441.699 281.495C441.699 279.888 437.742 269.546 435.816 266.121C435.337 265.27 434.12 263.024 433.11 261.13C432.101 259.237 430.834 257.323 430.295 256.876C429.756 256.429 429.316 255.682 429.316 255.218C429.316 253.855 419.481 244.56 414.737 241.439C410.885 238.906 408.186 237.531 399.597 233.727C396.673 232.43 397.985 232.539 401.455 233.882ZM307.989 234.484C311.812 237.016 313.709 239.152 313.356 240.525C313.115 241.46 313.048 241.415 312.989 240.285C312.905 238.659 307.068 233.768 305.557 234.059C305.014 234.164 304.391 235.082 304.174 236.099C303.803 237.83 303.773 237.848 303.704 236.366C303.549 233.001 304.873 232.419 307.989 234.484ZM195.01 236.556L196.829 238.569L194.817 236.751C193.71 235.749 192.805 234.844 192.805 234.738C192.805 234.259 193.316 234.681 195.01 236.556ZM153.472 236.711C153.172 238.428 153.619 238.981 159.392 244.034C162.825 247.039 167.22 251.456 169.159 253.848C171.097 256.242 174.354 260.237 176.397 262.727C188.965 278.05 196.031 297.347 196.923 318.771C197.383 329.828 197.059 331.134 193.866 331.122C190.515 331.107 189.315 330.502 188.263 328.296C187.28 326.235 185.994 325.443 185.994 326.899C185.994 327.297 185.849 327.476 185.67 327.297C185.492 327.12 185.522 326.516 185.736 325.956C186.416 324.183 187.917 324.853 188.908 327.373C189.732 329.473 190.192 329.865 192.241 330.21C196.11 330.865 196.1 330.898 195.712 318.816C194.818 291.004 183.642 268.067 160.018 245.557C152.649 238.536 151.996 237.6 153.188 235.782C153.632 235.104 153.71 235.356 153.472 236.711ZM103.649 237.703C116.258 238.783 123.772 240.618 130.195 244.184C131.684 245.012 133.453 245.689 134.124 245.689C137.459 245.689 140.576 249.434 138.27 250.669C137.623 251.014 135.951 253.379 134.555 255.923C133.159 258.467 131.898 260.548 131.753 260.548C131.344 260.548 134.303 254.939 136.095 252.317C138.519 248.771 136.936 245.484 133.353 246.622C132.529 246.884 131.643 246.679 130.973 246.072C125.598 241.209 103.521 237.177 91.8851 238.935C89.6708 239.269 86.7465 239.628 85.3834 239.729C84.0219 239.832 81.2561 240.376 79.2383 240.94C77.2206 241.503 75.4471 241.839 75.2949 241.688C75.1443 241.538 75.8211 241.24 76.7975 241.024C77.7739 240.808 79.8074 240.238 81.3147 239.754C82.8221 239.273 84.7209 238.878 85.534 238.878C86.3471 238.878 87.482 238.637 88.0558 238.342C89.6376 237.531 97.7416 237.198 103.649 237.703ZM303.237 240.277C303.007 241.74 303.161 242.955 303.647 243.543C304.296 244.322 304.256 244.414 303.408 244.089C302.3 243.663 302.116 241.227 303.04 239.187C303.44 238.306 303.497 238.621 303.237 240.277ZM440.81 242.129L442.628 244.14L440.615 242.322C438.74 240.628 438.319 240.116 438.797 240.116C438.903 240.116 439.808 241.022 440.81 242.129ZM191.257 245.476C193.907 247.904 193.988 248.038 191.816 246.405C189.524 244.681 187.345 242.557 187.93 242.617C188.057 242.63 189.554 243.917 191.257 245.476ZM340.519 244.031C340.324 244.652 340.453 245.697 340.803 246.353C341.155 247.009 341.302 247.546 341.133 247.546C340.218 247.546 339.535 244.982 340.18 243.978C340.824 242.978 340.847 242.981 340.519 244.031ZM206.145 246.462L208.593 249.093L205.961 246.646C203.513 244.37 203.046 243.831 203.513 243.831C203.615 243.831 204.799 245.015 206.145 246.462ZM196.868 250.177L198.687 252.19L196.674 250.371C195.568 249.371 194.661 248.466 194.661 248.359C194.661 247.881 195.173 248.302 196.868 250.177ZM59.1564 249.367C58.3528 250.068 57.4002 250.642 57.0404 250.642C56.2796 250.642 56.3161 250.61 58.7602 249.179L60.6178 248.092L59.1564 249.367ZM214.813 254.095L219.118 258.169L214.629 254.279C210.499 250.7 209.814 250.022 210.324 250.022C210.426 250.022 212.445 251.856 214.813 254.095ZM334.087 251.726C334.599 252.322 335.23 253.227 335.49 253.737C335.75 254.248 335.289 253.864 334.465 252.885C331.873 249.799 327.546 253.782 323.061 263.379C322.117 265.398 320.425 268.968 319.299 271.312C318.172 273.656 317.251 276.452 317.251 277.527C317.251 278.601 316.695 280.573 316.014 281.909C315.332 283.244 314.776 283.985 314.776 283.556C314.776 283.126 315.191 281.971 315.7 280.988C316.209 280.005 316.481 278.828 316.305 278.371C315.996 277.563 318.686 270.194 319.781 268.853C320.084 268.483 320.742 267.016 321.244 265.593C321.745 264.171 323.45 260.992 325.031 258.527C329.917 250.911 332.028 249.326 334.087 251.726ZM201.203 253.893L203.021 255.904L201.008 254.086C199.901 253.086 198.996 252.181 198.996 252.073C198.996 251.596 199.507 252.016 201.203 253.893ZM26.1995 254.623C7.43469 276.85 -0.189178 311.66 9.21146 332.193C10.0737 334.076 10.4303 335.328 10.0039 334.976C9.57758 334.625 8.19388 334.143 6.92905 333.907C3.79868 333.322 3.45789 332.743 2.52908 326.417C-0.927795 302.893 8.36508 272.875 24.1818 256.476C26.1741 254.412 27.0823 253.577 26.1995 254.623ZM148.268 254.905C149.481 255.551 151.926 258.136 153.963 260.924C155.927 263.612 158.783 267.482 160.31 269.525C163.126 273.295 169.062 284.859 170.785 289.932C174.8 301.758 175.869 320.122 172.666 322.22C171.577 322.934 171.214 323.596 171.471 324.404C172.964 329.106 163.232 346.507 155.036 353.789C152.824 355.756 150.465 358.079 149.796 358.953C148.264 360.951 147.672 361.379 145.751 361.888C144.902 362.113 142.733 363.24 140.933 364.392C136.902 366.97 127.88 371.374 126.63 371.374C126.124 371.374 124.576 371.915 123.192 372.576C121.807 373.237 119.838 373.952 118.817 374.164C117.025 374.536 121.984 372.191 126.681 370.446C130.668 368.962 140.936 363.174 142.242 361.673C142.932 360.879 143.864 360.23 144.312 360.23C145.537 360.23 153.722 352.183 156.894 347.863C158.427 345.775 160.441 343.074 161.371 341.862C163.579 338.983 166.077 333.659 166.773 330.355C167.076 328.907 167.789 326.471 168.358 324.939C171.359 316.842 170.615 293.391 167.135 286.415C166.61 285.364 166.179 284.06 166.174 283.516C166.155 281.083 159.964 270.686 155.081 264.881C153.504 263.01 151.749 260.741 151.182 259.844C150.613 258.946 149.115 257.573 147.853 256.795L145.56 255.376L144.057 257.188L142.553 258.999L143.491 257.097C145.027 253.983 145.84 253.61 148.268 254.905ZM339.581 259.464C341.361 261.933 344.089 265.485 345.642 267.359C347.197 269.232 347.818 270.207 347.024 269.525C345.035 267.818 335.333 254.975 336.034 254.975C336.205 254.975 337.803 256.996 339.581 259.464ZM44.5332 261.507C34.535 271.727 29.7277 281.05 23.803 301.722C23.4115 303.083 22.8425 306.009 22.5366 308.222L21.9802 312.246L22.2893 307.413C22.4589 304.755 22.8441 301.969 23.1436 301.222C23.4432 300.474 24.4385 297.078 25.3563 293.671C29.379 278.744 39.233 263.285 49.2914 256.124C50.2154 255.465 48.0741 257.888 44.5332 261.507ZM225.619 263.953C228.155 266.508 230.092 268.597 229.923 268.597C229.752 268.597 227.537 266.508 225 263.953C222.464 261.399 220.527 259.31 220.696 259.31C220.868 259.31 223.082 261.399 225.619 263.953ZM142.61 259.619C142.61 259.96 142.212 260.935 141.725 261.786C141.239 262.637 140.841 263.056 140.841 262.715C140.841 262.374 141.239 261.399 141.725 260.548C142.212 259.697 142.61 259.278 142.61 259.619ZM352.892 261.941L354.71 263.953L352.698 262.135C350.822 260.44 350.4 259.928 350.879 259.928C350.985 259.928 351.892 260.835 352.892 261.941ZM282.659 261.632C283.397 262.574 283.388 262.623 282.58 262.008C282.069 261.619 281.094 261.163 280.413 260.997C279.237 260.707 279.242 260.688 280.492 260.619C281.217 260.58 282.191 261.036 282.659 261.632ZM129.843 264.311C129.226 265.358 128.327 266.542 127.844 266.942C127.361 267.341 127.746 266.484 128.7 265.037C130.705 261.998 131.496 261.494 129.843 264.311ZM140.752 263.953C140.752 264.293 140.354 265.27 139.868 266.121C139.381 266.972 138.983 267.389 138.983 267.05C138.983 266.709 139.381 265.733 139.868 264.881C140.354 264.03 140.752 263.613 140.752 263.953ZM362.793 273.242C365.499 276.138 367.455 278.42 367.139 278.314C366.51 278.102 357.173 267.979 357.606 267.979C357.755 267.979 360.088 270.346 362.793 273.242ZM138.7 268.597C137.549 272.054 134.908 277.777 133.983 278.812C133.376 279.494 132.293 281.026 131.577 282.218C130.862 283.41 130.275 284.065 130.274 283.673C130.272 283.282 131.386 281.478 132.748 279.665C134.109 277.853 135.238 275.945 135.254 275.425C135.27 274.903 136.121 272.946 137.145 271.074C138.17 269.201 138.869 268.086 138.7 268.597ZM260.136 269.668C256.308 269.841 255.338 270.079 255.338 270.846C255.338 272.21 259.388 276.766 261.391 277.655C262.965 278.352 262.984 278.406 261.685 278.452C260.917 278.481 259.868 278.016 259.351 277.42C253.116 270.228 253.172 269.54 259.989 269.487L264.934 269.451L260.136 269.668ZM350.654 273.299C352.594 275.509 352.843 276.744 351.405 277.026C350.993 277.107 350.941 277.03 351.289 276.858C352.315 276.349 352.041 275.583 350.002 273.261C348.945 272.058 348.219 271.074 348.39 271.074C348.56 271.074 349.579 272.074 350.654 273.299ZM348.661 278.623C347.595 279.62 347.685 279.684 350.505 279.904C352.573 280.067 352.066 280.158 348.828 280.205C345.932 280.248 344.651 280.086 345.423 279.776C346.579 279.31 346.558 279.256 345.113 278.974C344.017 278.76 344.298 278.647 346.073 278.587C347.452 278.541 348.852 278.294 349.181 278.039C349.513 277.783 349.278 278.046 348.661 278.623ZM239.859 281.502C244.31 284.302 244.506 284.526 244.597 286.881C244.651 288.276 244.559 288.669 244.386 287.791C243.826 284.951 237.266 279.896 233.075 279.075L230.882 278.646L233.048 278.612C234.6 278.589 236.534 279.41 239.859 281.502ZM333.146 279.533C332.919 279.758 330.483 279.979 327.732 280.023C324.98 280.066 323.238 279.901 323.859 279.655C325.292 279.091 333.697 278.98 333.146 279.533ZM343.101 280.169C342.505 280.324 341.531 280.324 340.935 280.169C340.339 280.012 340.825 279.885 342.017 279.885C343.209 279.885 343.697 280.012 343.101 280.169ZM357.136 280.971C360.804 281.678 362.227 284.306 360.34 286.886C359.592 287.91 359.593 288.317 360.356 289.791C361.476 291.958 361.069 292.015 359.674 289.888C358.671 288.355 358.674 288.16 359.728 286.204C361.069 283.713 359.794 281.606 356.935 281.589C356.052 281.584 354.911 281.31 354.401 280.98C353.356 280.305 353.68 280.305 357.136 280.971ZM314.465 286.242C314.299 287.263 313.983 289.424 313.764 291.04L313.365 293.982H316.546C319.773 293.982 320.326 294.375 318.985 295.716C317.841 296.859 319.052 297.594 322.515 297.857L325.611 298.092L322.205 298.195C317.992 298.32 316.854 297.74 317.809 295.954C318.448 294.762 318.313 294.659 315.861 294.481C312.722 294.255 312.275 292.709 313.839 287.48C314.349 285.778 314.63 285.22 314.465 286.242ZM127.998 288.763C127.294 289.76 126.538 291.159 126.318 291.871C126.097 292.584 125.157 293.838 124.229 294.657C123.035 295.713 122.826 295.786 123.515 294.911C124.051 294.229 125.237 292.364 126.15 290.763C127.063 289.164 128.14 287.65 128.543 287.401C128.947 287.152 128.701 287.764 127.998 288.763ZM346.62 288.962C346.809 289.267 346.295 289.476 345.479 289.427C344.662 289.378 344.122 289.129 344.28 288.874C344.677 288.232 346.205 288.29 346.62 288.962ZM463.143 298.006C463.141 301.411 463.037 302.725 462.911 300.926C462.786 299.127 462.788 296.34 462.915 294.735C463.041 293.129 463.144 294.6 463.143 298.006ZM58.7602 293.982C58.971 294.323 58.5858 294.6 57.9043 294.6C57.2243 294.6 56.4952 294.323 56.2844 293.982C56.0736 293.641 56.4587 293.362 57.1403 293.362C57.8203 293.362 58.551 293.641 58.7602 293.982ZM364.801 295.963C365.703 296.864 365.765 298.106 364.933 298.621C364.581 298.838 364.478 298.588 364.692 298.03C364.897 297.498 364.721 296.646 364.301 296.141C363.386 295.039 363.749 294.911 364.801 295.963ZM396.346 299.244C396.338 300.606 396.211 301.091 396.064 300.32C395.917 299.55 395.921 298.436 396.077 297.845C396.232 297.252 396.352 297.883 396.346 299.244ZM275.566 297.979C277.85 298.973 278.894 300.622 278.795 303.074C278.734 304.519 278.644 304.407 278.259 302.411C277.791 299.989 277.01 299.232 273.602 297.899C272.581 297.499 272.163 297.162 272.673 297.149C273.185 297.136 274.487 297.51 275.566 297.979ZM267.88 297.513C265.477 297.978 262.767 301.233 262.767 303.657C262.767 309.645 268.462 312.599 273.911 309.436L276.079 308.179L274.607 309.447C271.592 312.045 265.4 311.837 263.59 309.076C260.605 304.521 263.306 296.9 267.814 297.162C269.256 297.246 269.258 297.249 267.88 297.513ZM336.91 298.77C335.292 298.899 332.645 298.899 331.028 298.77C329.41 298.643 330.733 298.539 333.968 298.539C337.203 298.539 338.527 298.643 336.91 298.77ZM362.294 299.379C361.357 299.52 359.826 299.52 358.889 299.379C357.953 299.236 358.718 299.121 360.592 299.121C362.465 299.121 363.231 299.236 362.294 299.379ZM116.305 300.482C115.573 301.164 113.541 303.326 111.788 305.288C110.035 307.248 108.602 308.642 108.602 308.383C108.602 307.797 115.375 300.625 116.679 299.829C117.207 299.507 117.039 299.802 116.305 300.482ZM95.3832 301.33C94.2134 301.588 93.2324 302.451 92.4684 303.888C91.836 305.08 91.3065 305.679 91.2907 305.221C91.2352 303.438 93.7855 300.79 95.4862 300.866L97.1473 300.939L95.3832 301.33ZM314.627 306.808C313.695 306.949 312.511 307.665 311.996 308.401C311.482 309.135 311.06 309.415 311.06 309.024C311.06 307.729 312.978 306.362 314.665 306.458L316.323 306.549L314.627 306.808ZM323.289 307.428C322.352 307.569 320.819 307.569 319.883 307.428C318.947 307.285 319.713 307.169 321.586 307.169C323.458 307.169 324.225 307.285 323.289 307.428ZM365.39 308.012C365.816 308.185 366.144 308.929 366.12 309.667C366.081 310.916 366.046 310.927 365.61 309.816C365.353 309.16 364.607 308.413 363.95 308.157C363.196 307.862 363.099 307.692 363.687 307.695C364.198 307.699 364.965 307.841 365.39 308.012ZM332.875 308.052C331.761 308.19 330.09 308.187 329.16 308.046C328.229 307.903 329.139 307.791 331.182 307.795C333.225 307.798 333.987 307.914 332.875 308.052ZM356.384 308.683C353.557 308.799 349.1 308.797 346.477 308.681C343.854 308.566 346.165 308.472 351.614 308.472C357.062 308.474 359.208 308.567 356.384 308.683ZM108.496 310.699C108.618 313.024 102.999 318.776 100.717 318.664C99.0493 318.581 99.0446 318.572 100.552 318.304C102.631 317.936 107.857 312.753 108.168 310.753L108.417 309.15L108.496 310.699ZM23.0644 314.413C23.1278 315.605 23.5605 317.695 24.0281 319.057C24.494 320.418 25.0488 322.509 25.2596 323.701C25.4704 324.893 24.9315 323.793 24.0613 321.258C23.1183 318.51 22.5762 315.76 22.7157 314.448L22.9518 312.246L23.0644 314.413ZM361.547 315.681C362.435 316.663 362.51 317.075 361.903 317.678C361.297 318.28 361.223 318.214 361.549 317.358C361.842 316.586 361.559 316.131 360.551 315.757C359.768 315.468 359.427 315.059 359.783 314.839C360.137 314.62 360.931 314.999 361.547 315.681ZM340.865 321.785C338.698 322.755 336.382 323.406 335.717 323.232C333.929 322.764 335.056 322.027 339.207 320.946C344.704 319.515 345.281 319.806 340.865 321.785ZM359.972 322.463C359.972 323.414 360.386 323.701 361.754 323.701C362.735 323.701 363.919 324.187 364.386 324.783C365.157 325.766 365.134 325.788 364.15 325.016C363.476 324.489 362.362 324.306 361.21 324.536C359.481 324.882 359.354 324.782 359.354 323.065C359.354 322.052 359.493 321.223 359.663 321.223C359.833 321.223 359.972 321.781 359.972 322.463ZM379.306 322.572C379.477 323.084 380.377 323.309 381.785 323.187C382.999 323.083 384.153 323.254 384.348 323.569C384.544 323.888 384.007 324.008 383.135 323.842C381.913 323.607 381.492 323.837 381.217 324.885C380.75 326.668 379.659 326.219 379.065 324C378.591 322.227 378.792 321.03 379.306 322.572ZM327.078 324.603C326.865 324.818 324.921 325.473 322.759 326.056C319.787 326.858 318.642 327.49 318.05 328.659C317.621 329.507 317.266 329.805 317.261 329.321C317.256 328.838 317.713 327.931 318.277 327.31C319.234 326.249 319.225 326.172 318.122 326.104C317.473 326.064 318.336 325.801 320.038 325.519C321.74 325.238 324.108 324.828 325.3 324.609C326.492 324.389 327.292 324.385 327.078 324.603ZM366.417 326.887C366.176 327.278 365.951 328.459 365.916 329.51C365.875 330.808 365.507 331.489 364.771 331.632C363.606 331.856 363.24 330.242 364.307 329.583C364.648 329.372 364.925 328.519 364.925 327.689C364.925 326.733 365.28 326.177 365.89 326.177C366.459 326.177 366.675 326.468 366.417 326.887ZM296.28 327.205C297.059 328.147 297.013 328.159 295.737 327.365C294.542 326.622 294.145 326.622 292.95 327.365C291.676 328.159 291.63 328.147 292.407 327.205C292.874 326.639 293.746 326.177 294.343 326.177C294.941 326.177 295.813 326.639 296.28 327.205ZM27.4516 329.502C27.8828 330.307 28.1015 331.491 27.9366 332.133C27.7115 333.006 27.6197 332.903 27.5658 331.718C27.5262 330.849 27.1647 329.809 26.7621 329.407C26.358 329.004 26.1725 328.53 26.3485 328.356C26.5228 328.18 27.0189 328.695 27.4516 329.502ZM359.121 329.559C359.655 330.951 357.617 332.737 356.624 331.745C356.2 331.32 356.431 330.681 357.341 329.771C358.609 328.503 358.71 328.491 359.121 329.559ZM289.313 330.201C288.419 331.223 287.536 332.477 287.35 332.987C287.059 333.788 287.005 333.781 286.962 332.949C286.937 332.417 287.82 331.163 288.926 330.163L290.939 328.343L289.313 330.201ZM372.176 330.37C373.649 331.52 376.857 337.127 376.557 338.026C376.458 338.327 375.679 337.035 374.83 335.156C373.795 332.867 372.825 331.616 371.891 331.367C371.126 331.163 370.498 330.608 370.498 330.134C370.498 329.064 370.507 329.066 372.176 330.37ZM387.131 332.028C387.196 333.93 387.05 334.308 386.472 333.731C385.175 332.433 384.387 332.897 381.433 336.703C378.848 340.033 376.689 341.45 376.689 339.817C376.689 339.487 377.055 339.357 377.502 339.53C377.978 339.712 379.517 338.292 381.216 336.105C382.985 333.827 384.584 332.369 385.313 332.369C386.061 332.369 386.609 331.846 386.778 330.976C386.934 330.163 387.082 330.6 387.131 332.028ZM321.195 335.213C323.003 337.479 323.26 337.53 327.004 336.371C327.887 336.097 328.396 336.197 328.396 336.645C328.396 337.034 327.56 337.52 326.54 337.723C322.667 338.498 327.007 345.336 334.354 350.036C336.186 351.207 337.684 352.297 337.684 352.457C337.684 354.664 325.256 343.18 323.753 339.586C323.268 338.424 322.512 337.33 322.073 337.156C321.38 336.882 318.722 332.987 319.23 332.987C319.334 332.987 320.219 333.989 321.195 335.213ZM259.534 334.571C260.906 335.533 261.383 337.574 260.38 338.196C260.088 338.375 259.978 337.858 260.133 337.045C260.35 335.907 260.012 335.35 258.651 334.612C257.679 334.087 257.172 333.645 257.522 333.631C257.871 333.618 258.778 334.04 259.534 334.571ZM29.9813 336.723C30.7833 338.436 31.8057 340.142 32.2526 340.513C32.6996 340.884 33.0626 341.641 33.0578 342.196C33.0499 342.968 32.8707 342.9 32.2827 341.897C30.0875 338.143 28.0587 334.073 28.2758 333.856C28.4122 333.721 29.1793 335.011 29.9813 336.723ZM292.95 335.271C292.354 335.428 291.38 335.428 290.784 335.271C290.188 335.116 290.676 334.989 291.868 334.989C293.06 334.989 293.546 335.116 292.95 335.271ZM286.139 335.891C285.544 336.046 284.569 336.046 283.973 335.891C283.377 335.736 283.865 335.607 285.057 335.607C286.249 335.607 286.735 335.736 286.139 335.891ZM36.4592 347.912C37.7082 349.649 38.4341 350.89 38.0727 350.666C37.3199 350.2 33.481 344.751 33.9074 344.751C34.0611 344.751 35.2102 346.173 36.4592 347.912ZM43.2208 355.713C44.8898 357.517 46.722 358.991 47.2927 358.991C47.8617 358.991 49.0045 359.758 49.8303 360.695L51.3312 362.397L49.7431 361.004C48.8698 360.238 47.6873 359.611 47.1136 359.611C45.4287 359.611 38.9524 353.213 39.981 352.565C40.0936 352.494 41.5518 353.911 43.2208 355.713ZM340.47 354.131C341.491 354.813 344.068 356.174 346.197 357.155C348.325 358.136 350.066 359.075 350.066 359.241C350.066 359.406 348.535 358.864 346.661 358.037C343.122 356.471 338.302 353.626 338.302 353.103C338.302 352.694 338.349 352.716 340.47 354.131ZM438.913 355.895C437.583 357.258 436.355 358.373 436.185 358.373C436.016 358.373 436.963 357.258 438.293 355.895C439.625 354.534 440.851 353.419 441.021 353.419C441.192 353.419 440.243 354.534 438.913 355.895ZM317.27 358.217L321.276 362.397L317.098 358.39C313.214 354.669 312.634 354.038 313.091 354.038C313.186 354.038 315.066 355.919 317.27 358.217ZM357.496 361.573C362.418 362.576 368.769 363.378 376.071 363.917L383.191 364.442L375.76 364.198C366.258 363.887 355.097 362.372 353.963 361.237C353.513 360.787 353.759 360.81 357.496 361.573ZM387.06 363.752C386.464 363.907 385.489 363.907 384.893 363.752C384.297 363.597 384.785 363.468 385.977 363.468C387.169 363.468 387.656 363.597 387.06 363.752ZM55.3556 364.255C56.2067 364.741 57.3479 365.149 57.89 365.161C58.4337 365.172 59.4084 365.77 60.0583 366.488C61.6148 368.211 66.4664 370.639 69.0674 370.999C70.2102 371.156 72.2581 371.71 73.6196 372.232C74.9827 372.752 76.872 373.189 77.8214 373.205C78.7692 373.219 80.1624 373.617 80.9169 374.09C83.8286 375.911 94.7524 376.836 105.505 376.174L112.007 375.773L104.578 376.641C95.5242 377.702 85.1568 376.911 80.4303 374.8C79.4095 374.343 77.0416 373.657 75.1681 373.273C66.9689 371.595 62.7417 369.946 59.9093 367.322C59.0074 366.486 57.8234 365.795 57.2766 365.789C56.7314 365.781 55.587 365.229 54.7358 364.564C52.9178 363.14 53.1794 363.01 55.3556 364.255ZM163.705 367.968C161.511 370.182 159.577 371.994 159.406 371.994C159.236 371.994 160.893 370.182 163.086 367.968C165.28 365.756 167.214 363.944 167.383 363.944C167.555 363.944 165.898 365.756 163.705 367.968ZM33.4049 369.672L35.8521 372.303L33.221 369.856C30.7738 367.58 30.3046 367.041 30.7738 367.041C30.8752 367.041 32.0592 368.225 33.4049 369.672ZM372.2 382.327C371.604 382.482 370.63 382.482 370.034 382.327C369.438 382.171 369.926 382.043 371.118 382.043C372.31 382.043 372.796 382.171 372.2 382.327ZM105.969 395.328C105.373 395.484 104.399 395.484 103.803 395.328C103.207 395.173 103.695 395.045 104.887 395.045C106.079 395.045 106.565 395.173 105.969 395.328ZM91.11 395.328C90.5141 395.484 89.5393 395.484 88.9433 395.328C88.3474 395.173 88.8355 395.045 90.0275 395.045C91.2194 395.045 91.706 395.173 91.11 395.328Z" fill="#15A0DC"/>
<path fill-rule="evenodd" clip-rule="evenodd" d="M269.795 2.08211C294.816 6.7848 296.745 9.04976 292.191 28.3709C286.58 52.1744 285.729 53.9877 277.611 59.4242L276.08 60.4497L277.317 62.7987C278.861 65.7262 284.353 68.6093 295.581 72.3832C299.839 73.8144 307.082 76.3536 311.68 78.0274C332.52 85.61 365.537 107.643 361.056 110.975C359.625 112.04 359.639 112.102 362.067 115.513C363.218 117.131 364.868 119.867 365.733 121.59C366.599 123.314 367.735 125.081 368.26 125.516C372.243 128.822 376.003 157.618 373.603 166.437C372.685 169.808 362.771 180.344 357.853 183.176L354.803 184.932L358.336 186.495C366.374 190.05 364.903 195.311 355.136 197.945C348.061 199.855 345.82 199.656 334.774 196.135C322.344 192.174 323.213 191.965 319.285 199.873C315.562 207.368 315.44 208.365 317.732 212.565L319.421 215.661L324.283 216.141C329.855 216.694 331.523 217.417 335.256 220.898C338.506 223.93 337.559 223.95 344.558 220.685C391.135 198.955 443.709 222.92 460.532 273.55C481.803 337.56 415.515 401.25 350.066 379.686C328.236 372.495 313.451 360.232 300.295 338.405C299.065 336.365 295.84 336.205 283.615 337.579L276.289 338.403L272.469 342.442C265.669 349.63 256.646 351.654 251.778 347.083C249.339 344.791 250.108 343.352 256.123 338.948C259.02 336.829 258.925 336.685 252.614 333.601C236.626 325.79 231.514 308.028 240.547 291.67C241.531 289.886 242.336 288.17 242.336 287.854C242.336 286.932 234.297 281.457 231.557 280.513C228.75 279.546 226.721 277.945 207.308 261.377C166.753 226.767 156.631 218.728 155.639 220.333C154.689 221.869 154.296 229.317 155.022 232.013C155.412 233.462 155.567 235.399 155.364 236.317C155.036 237.814 155.681 238.623 161.612 244.139C167.412 249.531 172.777 255.604 179.593 264.496C191.063 279.46 197.559 298.504 198.213 319.092C198.627 332.106 198.535 332.369 193.539 332.369C191.268 332.369 189.469 332.008 188.556 331.367C186.736 330.093 186.443 330.459 184.788 336.083C179.746 353.204 164.545 372.203 147.813 382.293C98.1158 412.266 39.0729 395.367 12.8602 343.667C9.37475 336.793 8.47292 335.465 7.30319 335.465C1.55598 335.465 0.0359485 329.611 0.871243 310.688C1.911 287.119 10.9265 267.289 28.6674 249.547C56.4176 221.798 94.7904 212.881 134.427 224.97C140.946 226.959 141.009 226.933 143.665 221.181C145.827 216.502 145.992 214.732 144.266 214.732C140.828 214.732 141.25 211.178 145.357 205.533C148.235 201.577 148.861 200.24 153.225 188.759C157.713 176.947 158.477 179.03 146.88 171.454C137.934 165.608 135.783 165.367 135.328 170.156C134.942 174.234 130.35 177.11 126.869 175.459C125.742 174.925 123.721 174.487 122.376 174.487C114.313 174.487 110.859 168.322 118.248 167.122C120.648 166.732 120.68 166.692 121.076 163.451C121.567 159.442 122.615 158.217 127.795 155.604C130.008 154.486 134.003 152.004 136.672 150.086C144.596 144.396 147.059 143.643 150.703 145.796C152.323 146.753 152.692 146.753 156.101 145.796C167.109 142.706 171.847 146.409 164.914 152.682C162.855 154.545 160.474 157.441 159.626 159.116C158.777 160.791 157.675 162.319 157.179 162.509C155.726 163.067 156.119 163.705 158.598 164.805C161.776 166.214 166.938 165.326 172.817 162.356C180.282 158.585 181.579 161.333 175.486 168.014C173.269 170.444 169.277 179.776 169.277 182.531C169.277 183.457 170.336 184.02 174.386 185.242C181.471 187.38 195.04 191.066 202.214 192.805C219.503 196.993 246.446 204.575 248.321 205.782C249.99 206.855 258.434 216.38 258.434 217.19C258.434 219.092 255.907 218.974 246.594 216.628C226.81 211.646 196.291 203.505 181.97 199.389C173.796 197.04 166.832 195.216 166.491 195.338C165.892 195.55 161.847 206.389 161.847 207.783C161.847 208.164 165.122 210.993 169.122 214.071C184.85 226.166 190.345 230.603 198.578 237.848C203.287 241.989 209.513 247.402 212.415 249.875C215.317 252.347 221.215 257.709 225.52 261.792C234.736 270.532 234.063 270.402 241.468 264.837C247.96 259.957 248.19 259.656 248.803 255.286C250.214 245.205 255.611 241.726 269.324 242.062C286.81 242.49 298.163 233.349 291.736 224.019C283.239 211.684 278.822 206.083 275.492 203.429C274.314 202.491 272.024 199.844 270.402 197.547C265.1 190.039 253.084 174.197 252.032 173.329C248.412 170.336 258.121 163.375 284.123 150.321C297.84 143.434 297.612 143.786 292.029 138.184C287.9 134.04 286.877 133.257 279.175 128.35C277.132 127.048 274.414 125.056 273.136 123.921C271.859 122.788 270.523 121.861 270.169 121.861C269.275 121.861 262.972 117.228 259.981 114.373C258.207 112.679 255.311 111.119 249.765 108.87C238.006 104.099 237.439 103.819 237.036 102.551C236.792 101.783 237.276 100.568 238.415 99.0809C240.143 96.8255 242.257 93.4986 246.521 86.3264C248.61 82.8125 248.654 82.6159 247.699 81.0008C246.545 79.0481 246.941 78.3174 250.385 76.043C253.858 73.7479 257.204 70.3496 258.543 67.755C259.976 64.9749 260.688 66.2952 252.661 56.8328C249.997 53.6913 247.21 50.19 246.469 49.0504C244.231 45.6078 243.273 45.462 228.498 46.3194C206.864 47.5764 203.629 44.2907 211.237 28.7973C221.682 7.52658 244.172 -2.73471 269.795 2.08211ZM243.272 3.89851C224.779 8.91503 204.929 31.2635 209.817 41.5629C211.629 45.3843 212.508 45.5111 231.861 44.7471C244.974 44.2304 244.532 44.1084 248.391 49.285C250.097 51.5737 253.747 56.0418 256.502 59.215L261.512 64.9828L260.255 67.4459C258.526 70.8362 255.234 74.347 251.59 76.6849C248.832 78.4537 247.553 80.3779 249.135 80.3779C251.842 80.3779 247.385 89.7389 240.541 98.4263C237.607 102.149 237.749 102.283 249.765 107.003C256.893 109.803 258.551 110.718 261.025 113.222C262.621 114.837 266.243 117.732 269.074 119.656C271.905 121.58 275.893 124.389 277.937 125.896C279.98 127.403 282.627 129.212 283.818 129.916C289.617 133.333 298.312 142.036 297.937 144.046C297.816 144.691 293.334 147.287 285.983 150.969C267.094 160.428 252.517 169.418 253.026 171.295C253.178 171.859 256.763 176.917 260.992 182.536C265.221 188.155 270.007 194.629 271.63 196.923C276.76 204.173 277.002 204.108 288.335 192.504C297.456 183.164 297.35 183.198 302.107 187.953C305.825 191.672 305.438 190.274 301.362 185.259C298.861 182.182 298.834 181.778 300.993 179.775C302.671 178.22 305.101 177.694 305.751 178.745C305.935 179.044 307.375 179.613 308.951 180.009C311.452 180.639 311.772 180.903 311.487 182.098C310.772 185.086 308.093 191.439 307.28 192.076C306.805 192.449 306.347 193.896 306.261 195.294C305.955 200.285 304.755 202.526 301.555 204.074C296.865 206.346 292.903 217.187 294.954 222.139C295.527 223.526 295.547 224.467 295.03 225.949C294.653 227.032 294.344 228.861 294.344 230.013C294.344 236.055 286.22 242.593 278.711 242.593C278.159 242.593 276.923 242.923 275.964 243.325C274.899 243.774 271.787 243.988 267.947 243.88C256.001 243.541 252.484 245.682 250.601 254.441C249.299 260.499 248.957 260.957 241.544 266.603C234.001 272.348 234.684 272.485 224.914 263.269C220.365 258.977 214.951 254.031 212.886 252.279C210.819 250.528 205.213 245.595 200.427 241.319C192.03 233.815 186.28 229.16 168.842 215.754C159.221 208.357 159.43 208.745 161.828 202.71C162.86 200.11 163.705 197.603 163.705 197.139C163.705 194.82 165.958 193.363 168.441 194.076C186.919 199.381 205.542 204.517 219.118 208.05C228.312 210.443 239.384 213.326 243.72 214.455C257.304 217.991 257.884 217.751 251.777 211.128C247.735 206.742 247.428 206.546 242.336 205.071C234.272 202.737 212.765 196.94 202.401 194.309C177.844 188.072 168.07 185.194 167.639 184.07C166.724 181.686 171.855 169.594 175.106 166.472C179.257 162.484 178.214 161.332 172.771 163.898C170.679 164.884 167.992 165.887 166.8 166.125C165.608 166.364 164.017 166.951 163.262 167.428C161.311 168.662 160.758 168.572 156.436 166.301C151.823 163.879 151.719 163.362 155.347 160.866C156.88 159.812 158.133 158.685 158.133 158.362C158.133 158.038 160.083 155.721 162.467 153.212C167.458 147.958 167.574 147.596 164.594 146.614C162.207 145.826 159.301 146.144 155.296 147.633C152.916 148.517 152.619 148.495 150.207 147.236C146.732 145.426 145.219 145.869 138.237 150.733C135.048 152.955 130.611 155.702 128.378 156.838C123.118 159.515 122.533 160.284 122.533 164.522V167.987L119.949 168.174C113.032 168.678 116.147 173.234 123.417 173.246C124.585 173.248 126.397 173.558 127.443 173.937C130.562 175.066 133.986 172.712 133.986 169.442C133.986 166.863 136.936 164.694 139.521 165.37C142.432 166.131 158.133 177.253 158.133 178.554C158.133 182.132 150.01 201.255 146.007 207.102C142.762 211.841 142.746 211.95 145.13 213.184C147.536 214.428 147.533 216.035 145.113 221.373C141.901 228.455 141.061 228.802 133.425 226.206C78.7154 207.598 17.4012 240.268 4.19656 295.065C2.15508 303.535 1.3642 318.489 2.53393 326.456C3.4564 332.731 3.65769 333.054 7.20651 333.937C9.70447 334.56 9.8788 334.777 13.361 341.605C40.054 393.932 97.1743 410.949 146.623 381.306C164.202 370.767 179.463 351.443 183.802 334.225C186.04 325.348 186.54 324.684 188.263 328.296C189.315 330.502 190.515 331.108 193.866 331.122C197.059 331.134 197.383 329.828 196.923 318.771C196.031 297.347 188.965 278.05 176.397 262.727C174.354 260.237 171.111 256.259 169.192 253.889C167.272 251.52 162.969 247.147 159.63 244.173L153.556 238.767L153.366 233.096C152.977 221.467 154.128 216.97 157.092 218.549C160.161 220.183 172.492 229.951 185.994 241.446C189.909 244.779 197.433 251.152 202.712 255.609C207.99 260.065 216.26 267.055 221.093 271.139C228.037 277.013 230.371 278.644 232.237 278.926C234.901 279.329 237.711 280.831 241.561 283.911C244.666 286.395 244.903 287.984 242.665 291.364C232.83 306.226 238.157 324.894 254.47 332.723C261.67 336.18 261.808 336.796 256.267 340.749C251.75 343.973 251.228 345.433 254.069 346.902C259.559 349.741 267.636 346.858 272.412 340.353C275.054 336.753 274.441 336.95 286.604 335.793C300.154 334.503 299.775 334.476 301.029 336.807C327.516 386.104 390.948 397.571 433.427 360.742C470.924 328.232 473.184 276.271 438.68 239.972C413.348 213.321 377.93 206.612 345.043 222.234C335.75 226.648 334.66 226.65 332.553 222.245C330.875 218.736 329.207 217.848 324.268 217.837C319.016 217.824 318.721 217.634 316.226 212.679L314.024 208.31L315.426 204.864C321.108 190.903 321.479 190.618 330.32 193.36C347.699 198.752 351.327 198.972 359.219 195.116C364.355 192.605 359.416 186.251 352.331 186.251C348.636 186.251 349.414 184.457 353.654 183.194C358.401 181.78 367.881 173.841 371.164 168.531C374.716 162.784 372.254 133.586 367.689 127.302C366.876 126.181 365.383 123.712 364.374 121.811C363.364 119.911 361.543 117.053 360.327 115.46C357.843 112.208 357.701 111.582 359.089 110.048C360.745 108.217 351.502 100.812 335.663 91.2811C322.458 83.3371 317.372 81.0801 299.297 75.1474C284.011 70.1309 277.386 66.766 275.46 63.0412C274.086 60.3832 274.171 60.2215 278.739 56.8993C283.925 53.1286 284.704 51.5674 288.411 37.5417C295.101 12.2198 294.641 9.89141 282.271 6.40916C267.987 2.38643 252.515 1.39104 243.272 3.89851ZM276.013 40.4946C278.467 46.8869 274.117 54.5171 265.535 58.8837C262.911 60.2183 262.254 59.6858 257.218 52.157C250.804 42.5614 250.77 42.6343 262.395 40.7371C271.699 39.2202 275.498 39.1521 276.013 40.4946ZM262.775 42.0146C252.476 43.6947 252.523 43.5203 259.634 53.6009C263.43 58.982 263.9 59.0597 269.025 55.1479C273.624 51.6355 275.151 49.0409 275.151 44.736C275.151 40.0318 275.056 40.0112 262.775 42.0146ZM315.866 222.399C321.265 231.823 321.604 232.693 319.883 232.676C318.863 232.665 310.095 227.376 306.741 224.746L305.207 223.545L306.681 219.294C309.417 211.396 309.599 211.457 315.866 222.399ZM308.333 218.866C307.789 220.459 307.353 222.201 307.361 222.736C307.375 223.578 316.304 229.591 317.54 229.591C317.979 229.591 312.119 218.217 310.919 216.743C309.859 215.442 309.36 215.853 308.333 218.866ZM388.762 230.536C398.318 232.709 408.441 237.02 415.696 242.007C419.837 244.853 429.316 254.048 429.316 255.218C429.316 255.682 429.756 256.429 430.295 256.876C430.834 257.323 432.101 259.237 433.11 261.13C434.12 263.024 435.337 265.27 435.816 266.121C437.742 269.546 441.699 279.888 441.699 281.495C441.699 282.437 441.961 283.473 442.283 283.797C443.354 284.878 444.21 296.667 443.497 300.525C443.135 302.474 442.974 304.581 443.137 305.202C443.3 305.825 443.159 307.386 442.826 308.672C442.492 309.957 442.132 311.983 442.026 313.175C441.614 317.805 433.346 333.173 428.37 338.56C416.422 351.491 407.896 357.533 397.376 360.525C395.363 361.097 392.323 362.018 390.62 362.57C385.005 364.388 369.479 363.92 357.167 361.563C349.7 360.132 333.354 350.519 327.806 344.295C324.581 340.676 323.706 337.95 325.765 337.931C327.148 337.92 328.793 336.893 328.27 336.37C328.05 336.149 326.88 336.327 325.669 336.766C323.034 337.719 321.439 336.577 319.014 332.006C317.118 328.434 317.763 327.422 322.809 326.05C326.605 325.018 329.115 323.75 325.78 324.55C324.853 324.772 322.417 325.129 320.368 325.344L316.643 325.733L315.773 323.633C315.294 322.479 314.132 318.662 313.192 315.153C310.853 306.415 310.526 306.668 322.896 307.613C328.134 308.012 339.804 308.436 348.828 308.551C367.796 308.794 368.991 309.209 362.4 313.264C359.479 315.061 359.3 315.296 360.503 315.739C362.124 316.34 362.124 316.361 360.592 319.366C358.668 323.138 358.889 325 361.21 324.536C364.128 323.953 366.683 328.113 364.307 329.583C363.24 330.242 363.606 331.856 364.771 331.632C365.497 331.491 365.875 330.811 365.916 329.568C365.992 327.296 367.745 323.767 369.045 323.268C370.541 322.694 371.206 324.338 370.889 327.825C370.628 330.703 370.733 331.057 371.942 331.386C373.173 331.721 376.689 337.923 376.689 339.76C376.689 341.446 378.811 340.079 381.433 336.703C384.413 332.865 385.15 332.442 386.551 333.761C387.863 334.996 386.933 328.646 385.346 325.538C384.121 323.133 383.88 322.973 381.842 323.211C377.516 323.717 376.54 317.885 380.764 316.779C384.528 315.795 390.68 312.048 391.504 310.241C391.864 309.452 392.693 308.841 393.409 308.841C394.319 308.841 394.779 308.322 395.045 306.998C395.246 305.984 395.764 304.861 396.194 304.505C397.072 303.776 396.757 295.966 395.807 294.941C395.508 294.618 395.264 293.961 395.264 293.484C395.264 291.983 387.076 284.45 384.119 283.231C379.016 281.128 378.502 280.98 376.294 280.98C375.036 280.98 373.425 280.451 372.524 279.741C371.658 279.061 370.229 278.503 369.347 278.503C365.857 278.503 339.383 247.169 340.483 244.34C341.033 242.926 354.02 235.163 355.837 235.163C356.372 235.163 358.089 234.484 359.652 233.652C365.521 230.533 381.311 228.842 388.762 230.536ZM381.149 232.422C381.048 233.129 381.79 236.638 382.796 240.222C385.847 251.09 386.584 262.867 385.224 279.064C385.128 280.223 385.332 281.269 385.679 281.389C386.381 281.632 387.99 275.678 391.231 260.857C392.422 255.409 394.503 247.469 395.853 243.213C398.893 233.643 399.603 234.48 385.666 231.235C383.105 230.639 381.338 231.104 381.149 232.422ZM366.746 232.728C359.218 234.497 359.2 234.537 362.671 241.918C364.252 245.278 365.545 248.226 365.545 248.47C365.545 249.35 372.505 266.446 373.108 267.05C373.522 267.462 373.592 264.168 373.316 257.143C373.08 251.12 373.178 243.584 373.544 239.526C374.364 230.47 374.746 230.85 366.746 232.728ZM376.071 236.752C376.071 239.328 376.367 249.707 376.729 259.816C377.443 279.761 377.447 279.774 381.01 279.952L383.007 280.051L382.915 267.979C382.863 261.337 382.565 254.094 382.252 251.88C381.664 247.706 379.517 236.905 378.9 235.009C378.705 234.413 378.417 233.506 378.257 232.996C377.337 230.051 376.071 232.226 376.071 236.752ZM309.731 236.388C313.571 239.423 313.785 240.891 310.807 243.777C308.813 245.709 308.577 245.782 306.523 245.104C303.023 243.95 302.711 243.199 303.731 238.407C304.824 233.284 305.511 233.053 309.731 236.388ZM399.459 241.973C398.47 244.868 396.833 250.859 395.82 255.286C394.809 259.713 393.181 265.842 392.203 268.906C388.711 279.864 389.418 280.592 395.812 272.621C398.269 269.557 404.585 262.681 409.846 257.345C415.106 252.006 419.41 247.364 419.41 247.026C419.41 245.465 404.154 236.229 402.13 236.567C401.638 236.648 400.474 239.006 399.459 241.973ZM305.044 239.025C303.961 243.083 306.713 245.224 309.566 242.544C311.517 240.71 311.455 239.276 309.358 237.711C306.762 235.774 305.836 236.057 305.044 239.025ZM353.516 237.992C352.478 239.032 352.736 239.918 355.039 243.213C355.634 244.064 357.293 247.546 358.725 250.951C366.539 269.526 371.081 277.885 373.364 277.885C374.327 277.885 372.162 271.248 369.422 265.81C367.903 262.796 359.395 242.309 357.916 238.104C357.438 236.745 354.83 236.68 353.516 237.992ZM105.505 238.905C116.437 239.677 127.277 242.728 130.973 246.072C131.643 246.679 132.529 246.884 133.353 246.622C136.936 245.484 138.519 248.772 136.094 252.317C135.211 253.609 133.64 256.338 132.602 258.381C130.244 263.029 117.253 282.545 111.614 289.913C105.516 297.88 102.784 299.969 97.748 300.507C93.3528 300.978 92.3289 301.84 90.7946 306.364C89.7026 309.59 91.5396 315.59 93.9932 316.808C95.6178 317.613 99.8862 318.74 101.335 318.745C103.07 318.749 108.575 312.546 108.589 310.568C108.605 308.265 114.18 302.126 120.399 297.561C123.546 295.252 125.714 293.137 126.46 291.652C128.977 286.645 132.883 279.988 134.003 278.795C134.652 278.105 135.588 276.433 136.083 275.081C137.953 269.968 143.157 258.524 144.315 256.971L145.523 255.354L147.836 256.782C149.107 257.568 150.613 258.946 151.182 259.844C151.749 260.741 153.504 263.01 155.081 264.881C159.964 270.686 166.155 281.083 166.174 283.516C166.179 284.06 166.61 285.364 167.135 286.415C170.615 293.391 171.359 316.842 168.358 324.939C167.789 326.471 167.076 328.908 166.773 330.355C166.077 333.659 163.579 338.983 161.372 341.862C160.441 343.074 158.427 345.775 156.894 347.863C153.63 352.308 145.523 360.23 144.236 360.23C143.745 360.23 142.959 360.779 142.489 361.449C140.808 363.849 126.517 371.024 117.58 373.958C112.878 375.5 97.057 377.101 94.307 376.312C93.2181 375.999 92.1086 375.879 91.8408 376.045C91.0784 376.516 81.3116 374.67 80.5524 373.91C80.1783 373.538 79.0228 373.219 77.9847 373.205C76.9465 373.189 74.9827 372.752 73.6196 372.232C72.2581 371.71 70.2102 371.156 69.0674 370.999C66.4665 370.639 61.6148 368.211 60.0583 366.488C59.4085 365.77 58.4337 365.18 57.89 365.177C56.5555 365.169 50.9937 361.925 49.5323 360.302C48.884 359.58 47.8792 358.991 47.3007 358.991C46.7221 358.991 44.7932 357.39 43.0148 355.431C41.238 353.473 39.26 351.315 38.6196 350.633C36.3705 348.237 33.0658 343.195 33.0658 342.158C33.0658 341.581 32.782 340.933 32.4333 340.719C31.4522 340.112 28.1127 333.178 28.1127 331.745C28.1127 331.043 27.7148 329.851 27.2282 329.096C24.9632 325.585 22.2783 312.081 22.8314 306.984C23.2277 303.321 23.2197 303.353 26.553 292.841C32.0419 275.531 45.4129 256.601 55.9738 251.184C57.5065 250.398 59.6795 249.136 60.8033 248.378C61.927 247.622 63.8765 246.671 65.1366 246.266C66.3983 245.86 69.1007 244.758 71.1438 243.818C75.4518 241.839 81.8283 240.006 85.3834 239.727C86.7465 239.621 89.5314 239.271 91.5745 238.949C95.8191 238.28 96.6195 238.277 105.505 238.905ZM90.1828 240.458C88.9719 240.831 89.2588 242.709 91.183 246.996C92.9296 250.891 93.8363 253.517 95.9681 260.857L97.0475 264.572L97.5261 262.097C97.7893 260.734 98.0206 257.67 98.0397 255.286C98.0587 252.902 98.3995 248.627 98.7957 245.789C99.3854 241.569 99.3663 240.531 98.6943 240.116C97.943 239.651 92.0246 239.889 90.1828 240.458ZM345.558 242.332C343.61 243.549 342.017 244.861 342.017 245.246C342.017 246.205 348.297 254.257 356.696 264.072C365.649 274.533 366.337 274.986 363.434 268.517C362.613 266.688 360.351 261.57 358.409 257.143C350.27 238.591 350.716 239.105 345.558 242.332ZM101.722 252.809C101.292 266.855 100.853 271.142 99.5534 274.006C98.7498 275.778 98.7577 276.603 99.612 281.109C101.043 288.653 101.929 289.088 103.362 282.944C105.979 271.725 116.79 243.831 118.521 243.831C119.851 243.831 119.607 245.429 117.362 251.377C116.037 254.888 114.603 258.876 114.173 260.239C112.626 265.141 106.611 281.375 104.855 285.382C102.964 289.693 101.753 296.458 102.872 296.458C104.337 296.458 107.843 291.676 107.54 290.092C106.951 287.005 112.948 275.556 122.856 260.857C127.272 254.306 130.271 248.99 130.271 247.716C130.271 245.104 113.142 240.052 105.196 240.32L102.1 240.426L101.722 252.809ZM81.5477 242.374C81.3322 242.936 81.5097 244.259 81.9424 245.316C82.3736 246.372 84.0964 252.669 85.7702 259.31C87.4455 265.95 89.6772 274.559 90.7328 278.441C91.7885 282.323 93.1103 288.373 93.6714 291.887C94.8237 299.111 95.2612 299.888 97.6656 298.973C99.6627 298.214 99.658 298.991 97.7512 287.564C94.8095 269.938 89.216 248.028 86.2282 242.438C85.4706 241.021 82.085 240.975 81.5477 242.374ZM71.6082 245.234C70.4527 246.139 70.662 247.702 72.3437 250.718C73.1726 252.209 75.4202 257.468 77.3348 262.406C79.2511 267.343 81.3322 272.637 81.9614 274.17C82.5891 275.702 83.9902 280.02 85.0728 283.765C86.1569 287.512 87.8925 292.178 88.9307 294.136C93.5922 302.926 92.581 295.497 85.9937 272.57C85.2028 269.817 84.0885 264.942 83.5179 261.735C82.2832 254.794 79.6045 244.435 78.7803 243.416C78.1733 242.666 73.3089 243.899 71.6082 245.234ZM62.3534 249.117C60.2596 250.49 60.575 251.85 64.0604 256.452C68.9486 262.91 73.2518 272.228 71.8269 273.269C71.1248 273.783 70.8585 274.509 71.0962 275.258C71.6098 276.875 82.7286 287.647 83.0186 286.808C83.3119 285.962 78.1258 271.897 73.9081 262.097C72.1503 258.009 70.1579 253.279 69.4827 251.582C68.8059 249.886 68.1038 248.256 67.9215 247.96C67.4809 247.248 64.1476 247.941 62.3534 249.117ZM131.323 251.617C130.03 253.294 128.247 255.92 127.362 257.453C126.478 258.985 124.019 263.171 121.899 266.757C113.709 280.605 109.659 289.141 113.246 285.005C119.302 278.015 136.392 250.173 135.506 248.738C134.853 247.683 133.8 248.409 131.323 251.617ZM410.971 259.775C392.136 279.619 389.12 283.399 390.32 285.64C391.529 287.9 392.788 288.022 394.904 286.081C395.953 285.119 398.903 282.394 401.458 280.025C404.014 277.655 409.029 273.22 412.604 270.169C428.357 256.716 428.793 256.072 424.854 252.059C421.346 248.485 422.061 248.087 410.971 259.775ZM338.147 258.226C340.857 262.057 345.065 267.497 347.498 270.313C349.933 273.13 351.923 275.644 351.923 275.899C351.923 277.52 346.102 278.921 338.613 279.102C336.471 279.153 336.276 279.268 337.172 279.95C337.849 280.464 339.247 280.619 341.196 280.394C347.386 279.684 358.14 281.155 359.749 282.931C360.791 284.084 360.79 284.231 359.714 286.23C358.463 288.55 358.546 288.747 363.272 294.724C366.385 298.661 365.795 298.937 354.264 298.926C330.916 298.907 317.057 297.645 318.985 295.716C320.32 294.381 319.778 293.982 316.633 293.982C313.765 293.982 313.536 293.871 313.536 292.472C313.536 290.078 315.391 282.662 316.364 281.156C316.852 280.402 317.252 278.837 317.252 277.679C317.252 276.522 318.172 273.656 319.299 271.312C320.425 268.968 322.117 265.398 323.061 263.379C326.104 256.868 330.57 251.262 332.715 251.262C332.992 251.262 335.436 254.395 338.147 258.226ZM54.3618 253.947L52.6786 255.394L58.7221 262.006C67.2811 271.372 68.5777 271.928 64.8846 264.645C58.3592 251.778 57.6824 251.09 54.3618 253.947ZM330.898 254.018C329.716 255.441 330.258 256.284 335.433 261.066C342.296 267.406 342.339 266.619 335.636 257.297C332.445 252.861 332.073 252.602 330.898 254.018ZM324.687 263.013C322.9 266.829 323 267.048 329.137 272.8L333.904 277.265L339.354 277.256C347.585 277.241 347.587 277.206 339.911 269.113C328.229 256.801 327.697 256.587 324.687 263.013ZM142.997 262.561C138.96 271.383 139.459 271.886 145.968 265.541L150.375 261.247L148.883 259.659C146.385 257.001 145.295 257.538 142.997 262.561ZM47.0692 261.093C45.4319 262.756 44.1877 264.531 44.3066 265.037C44.5507 266.088 53.0922 273.192 59.0724 277.317C61.2851 278.842 66.5124 282.651 70.6905 285.78C86.8638 297.887 87.5406 297.345 74.0729 283.068C68.332 276.981 61.1694 269.216 58.1547 265.81C50.0728 256.677 51.0222 257.082 47.0692 261.093ZM424.882 262.531C422.724 264.303 418.172 268.448 414.767 271.741C411.361 275.033 406.625 279.395 404.241 281.434C396.3 288.224 395.852 289.481 402.951 285.057C408.735 281.454 414.162 278.736 424.665 274.187C435.229 269.611 436.306 268.743 434.477 266.268C433.771 265.314 432.595 263.358 431.863 261.922C430.161 258.589 429.628 258.635 424.882 262.531ZM282.348 262.076C282.748 263.117 279.053 273.872 278.01 274.707C277.628 275.011 276.343 275.395 275.151 275.558C273.959 275.721 271.19 276.341 268.996 276.935C263.209 278.503 260.651 277.991 257.743 274.68C254.084 270.515 254.405 269.835 260.022 269.835C265.63 269.835 266.837 269.283 268.093 266.146C269.161 263.474 270.386 262.807 276.038 261.813C280.922 260.954 281.935 260.997 282.348 262.076ZM141.928 272.886C133.889 281.058 132.242 283.141 131.237 286.398C130.603 288.45 131.512 288.16 137.043 284.54C139.774 282.752 145.632 279.338 150.061 276.956C159.244 272.012 159.064 272.329 155.312 267.725C151.527 263.078 151.609 263.046 141.928 272.886ZM37.8382 271.538C34.7379 276.246 33.6855 278.145 33.6855 279.028C33.6855 279.807 40.8148 283.646 51.1934 288.457C55.6964 290.543 60.8936 292.95 62.7433 293.806C66.9356 295.748 82.1722 300.793 83.8397 300.793C86.4391 300.793 84.8762 298.778 79.6568 295.407C76.677 293.483 71.7319 290.054 68.6665 287.788C50.9018 274.65 43.7614 269.237 43.0275 268.353C41.6137 266.65 40.6817 267.223 37.8382 271.538ZM96.3231 272.092C96.6132 273.589 98.3044 273.578 98.5928 272.076C98.8433 270.776 97.4485 269.595 96.6306 270.415C96.3406 270.705 96.2027 271.459 96.3231 272.092ZM320.014 273.217C318.294 277.72 320.211 278.871 327.129 277.487L329.11 277.091L325.834 273.773C321.856 269.744 321.358 269.697 320.014 273.217ZM259.367 272.003C259.372 272.675 265.091 275.989 266.287 276.013C270.288 276.091 270.616 273.253 266.791 271.645C265.13 270.946 259.361 271.223 259.367 272.003ZM429.947 274.089C422.516 277.546 400.458 289.268 399.133 290.463C395.329 293.898 397.879 294.095 405.33 290.942C411.042 288.526 414.797 287.498 429.227 284.399C441.056 281.86 440.994 281.912 438.567 276.254C436.337 271.049 436.431 271.071 429.947 274.089ZM154.501 277.503C152.242 278.997 147.747 281.671 144.512 283.447C134.266 289.07 122.969 297.016 124.495 297.525C124.837 297.639 128.099 296.483 131.743 294.957C135.387 293.429 142.746 290.882 148.097 289.295C164.278 284.494 165.096 283.982 162.983 279.96C159.747 273.799 159.997 273.87 154.501 277.503ZM323.753 279.741C322.905 280.105 323.885 280.273 326.849 280.273C329.233 280.273 331.74 280.034 332.422 279.741C333.268 279.378 332.29 279.21 329.324 279.21C326.942 279.21 324.433 279.449 323.753 279.741ZM342.537 282.27C338.738 284.304 346.257 287.569 352.507 286.599C354.87 286.233 356.961 285.933 357.151 285.933C358.416 285.933 357.095 283.894 355.174 282.879C352.543 281.491 344.702 281.113 342.537 282.27ZM317.274 282.621C316.499 283.488 314.712 291.522 315.142 292.218C315.603 292.963 317.806 292.695 329.324 290.495C343.658 287.758 344.019 287.518 339.288 283.905L336.557 281.82L327.151 281.958C321.978 282.034 317.534 282.332 317.274 282.621ZM30.8896 284.715C29.4424 287.924 29.7753 288.214 36.2025 289.346C45.9629 291.064 46.8759 290.375 39.9811 286.498C38.0506 285.412 35.8078 284.004 34.9947 283.37C32.8486 281.695 32.148 281.925 30.8896 284.715ZM432.598 286.769C429.26 287.604 424.859 288.615 422.816 289.015C418.809 289.801 403.693 293.221 401.924 293.744C397.053 295.182 397.95 302.297 402.883 301.357C407.868 300.408 419.18 300.114 429.626 300.663C435.668 300.98 440.612 300.985 441.235 300.672C442.972 299.802 442.749 294.421 440.926 293.202C439.591 292.311 439.579 292.221 440.615 291.066C442.535 288.929 441.599 284.125 439.426 284.959C439.008 285.119 435.936 285.933 432.598 286.769ZM148.6 292.416C125.438 299.932 111.485 305.686 115.109 306.226C118.374 306.713 140.442 301.63 153.489 297.385C158.257 295.835 163.202 294.285 164.48 293.941C166.976 293.267 167.628 291.11 166.16 288.368C165.332 286.823 167.068 286.422 148.6 292.416ZM344.184 289.029C343.967 289.381 344.499 289.647 345.423 289.647C346.346 289.647 346.878 289.381 346.661 289.029C346.45 288.688 345.894 288.409 345.423 288.409C344.953 288.409 344.395 288.688 344.184 289.029ZM352.339 290.703C352.052 290.88 351.954 291.552 352.122 292.194C352.497 293.629 351.96 293.656 349.196 292.337C347.13 291.353 346.609 291.391 336.329 293.294C319.743 296.366 321.181 296.922 346.458 297.208C364.042 297.407 363.348 297.621 359.966 293.044C357.357 289.512 355.29 288.878 352.339 290.703ZM27.3962 294.637C25.6274 300.129 25.6543 300.149 34.6143 300.17C41.1398 300.184 56.1561 300.929 66.9642 301.777C70.3149 302.039 72.0726 301.958 72.0726 301.539C72.0726 299.919 60.3753 296.727 38.6386 292.418C35.7444 291.844 32.958 291.134 32.4476 290.839C29.8656 289.352 28.8529 290.111 27.3962 294.637ZM56.2844 293.982C56.4952 294.323 57.2243 294.6 57.9043 294.6C58.5858 294.6 58.971 294.323 58.7602 293.982C58.551 293.641 57.8203 293.362 57.1403 293.362C56.4588 293.362 56.0736 293.641 56.2844 293.982ZM164.142 296.242C158.286 299.271 139.823 304.602 125.628 307.361C116.733 309.092 115.048 309.708 116.602 310.669C117.857 311.444 125.552 310.82 135.534 309.13C146.816 307.222 154.925 306.364 161.704 306.364C169.151 306.364 169.545 306.033 168.664 300.515C167.712 294.561 167.599 294.454 164.142 296.242ZM273.74 297.899C276.815 299.019 278.246 300.546 278.246 302.703C278.246 310.046 266.435 313.737 263.507 307.31C260.61 300.953 266.714 295.337 273.74 297.899ZM25.0203 302.956C24.1882 303.958 23.9314 313.825 24.6764 316.17C25.2708 318.046 26.4833 317.862 53.8071 311.734C57.554 310.894 63.8227 309.743 67.7377 309.177C76.2475 307.951 77.6439 307.634 77.6439 306.941C77.6439 305.437 67.0212 303.974 48.854 302.977C28.4471 301.856 25.9348 301.853 25.0203 302.956ZM406.135 304.242C393.826 306.394 395.658 306.924 420.958 308.529C441.489 309.832 441.39 309.842 441.39 306.675V304.197L432.722 303.861C416.038 303.215 411.649 303.276 406.135 304.242ZM313.536 309.907C313.536 312.011 316.805 322.823 317.638 323.476C319.956 325.292 363.068 313.194 363.068 310.728C363.068 310.48 354.78 310.059 344.648 309.791C334.518 309.525 323.721 309.13 320.658 308.914C314.364 308.474 313.536 308.588 313.536 309.907ZM398.993 310.36C399.836 311.197 402.477 312.967 404.861 314.299C407.245 315.628 412.12 318.47 415.696 320.613C434.47 331.865 432.337 331.613 436.553 323.081C441.959 312.137 442.44 312.931 429.842 311.948C407.869 310.235 398.728 309.417 398.451 309.139C398.288 308.976 397.996 308.841 397.806 308.841C397.614 308.841 398.148 309.525 398.993 310.36ZM154.109 309.778C136.768 311.412 129.61 312.718 131.672 313.872C133.309 314.788 149.598 316.304 159.371 316.448L168.349 316.581L168.533 312.71L168.718 308.841L166.366 308.843C165.073 308.845 159.557 309.265 154.109 309.778ZM68.3574 311.213C65.8039 311.913 55.6489 314.169 45.7933 316.224C35.4877 318.374 27.4898 320.344 26.9715 320.862C25.8176 322.016 27.8908 328.399 29.3759 328.259C30.5837 328.145 43.2684 324.379 56.538 320.19C62.4675 318.32 70.9647 315.861 75.4217 314.728C84.7574 312.354 88.4029 310.957 87.8038 309.987C87.1254 308.892 73.7464 309.734 68.3574 311.213ZM394.026 312.184C394.026 313.343 407.129 324.411 413.439 328.579C416.213 330.413 420.108 333.268 422.096 334.926C426.466 338.571 426.995 338.616 429.057 335.5C431.021 332.531 430.88 332.269 426.041 329.933C423.927 328.911 415.927 324.314 408.265 319.716C392.466 310.235 394.026 311.059 394.026 312.184ZM389.691 315.462C389.691 316.039 392.019 320.009 394.863 324.286C397.708 328.56 402.452 335.853 405.406 340.492C412.375 351.434 412.504 351.551 415.293 349.424C418.403 347.051 418.466 346.29 415.805 343.334C414.515 341.9 410.289 336.687 406.416 331.749C393.958 315.868 389.691 311.713 389.691 315.462ZM88.219 315.83C87.7562 317.052 83.0678 321.843 82.3371 321.843C82.196 321.843 82.681 320.748 83.4149 319.409C85.5404 315.527 84.2248 315.739 77.6851 320.331C61.1076 331.974 42.3935 348.833 42.3618 352.152C42.3507 353.391 46.0818 357.135 47.3292 357.135C48.4403 357.135 53.0051 352.473 60.3912 343.8C66.1685 337.016 80.4811 322.463 81.3734 322.463C82.5574 322.463 80.7442 324.962 75.8132 330.131C65.6962 340.733 50.9636 357.926 51.1506 358.91C51.4851 360.669 57.1293 364.033 58.5082 363.294C59.8745 362.563 65.6835 354.681 69.2862 348.668C71.7461 344.561 76.1001 337.963 82.792 328.199C86.2441 323.16 90.0275 316.286 90.0275 315.05C90.0275 313.86 88.7611 314.406 88.219 315.83ZM120.984 316.611C120.984 317.48 126.308 319 133.964 320.318C138.573 321.112 144.434 322.184 146.988 322.699C167.103 326.76 166.412 326.744 167.394 323.214C168.338 319.829 167.922 319.711 151.842 318.816C143.894 318.374 134.606 317.656 131.199 317.221C124.061 316.312 120.984 316.128 120.984 316.611ZM384.41 318.19C384.135 319.052 384.646 320.773 385.925 323.298C388.087 327.57 391.345 341.981 391.895 349.704C392.724 361.362 392.366 361.102 402.071 357.075C411.584 353.126 411.553 354.241 402.526 340.931C398.293 334.69 394.034 328.189 393.064 326.487C388.442 318.374 385.305 315.367 384.41 318.19ZM60.7288 321.838C34.2308 330.191 30.2872 331.57 30.0891 332.559C29.7452 334.278 32.4175 338.719 33.5745 338.353C35.5114 337.739 45.7347 333.599 50.0934 331.664C52.4757 330.605 56.6553 328.784 59.3799 327.617C68.0055 323.926 70.6841 322.568 73.8953 320.26C79.4492 316.27 77.7358 316.476 60.7288 321.838ZM350.516 320.333C340.453 323.525 338.641 324.582 334.389 329.746C329.849 335.259 329.662 335.092 338.8 333.699C347.842 332.32 349.173 331.562 354.746 324.63C360.673 317.256 360.565 317.145 350.516 320.333ZM85.9065 327.725C80.4398 336.451 74.7101 345.057 69.2101 352.8C63.3916 360.991 61.3675 364.614 61.8715 365.93C62.4501 367.436 68.2448 369.885 69.4827 369.146C71.0265 368.223 81.3433 347.149 88.395 330.512C94.54 316.01 93.7792 315.158 85.9065 327.725ZM117.269 321.269C118.461 322.29 121.387 324.283 123.771 325.7C126.154 327.116 129.218 329.026 130.581 329.941C131.943 330.857 135.843 333.379 139.25 335.545C142.654 337.711 147.655 341.264 150.362 343.442L155.285 347.403L157.019 345.327C159.336 342.551 159.336 342.553 154.743 340.47C151.448 338.975 140.925 332.753 129.033 325.267C122.338 321.054 113.508 318.052 117.269 321.269ZM94.7635 320.502C94.1992 321.127 92.2354 325.654 90.4015 330.562C86.2156 341.765 82.5098 350.169 77.0226 360.907C72.228 370.29 72.1423 371.68 76.3901 371.268C78.7058 371.043 77.9339 372.471 86.8686 351.871C88.6406 347.785 90.9088 342.618 91.9073 340.388C94.3641 334.905 98.7941 321.138 98.4185 320.157C97.9747 319.001 95.9491 319.191 94.7635 320.502ZM339.207 320.946C335.056 322.027 333.929 322.764 335.717 323.232C336.382 323.406 338.698 322.755 340.865 321.785C345.281 319.806 344.704 319.515 339.207 320.946ZM111.698 322.785C111.698 322.962 115.473 327.02 120.087 331.803C124.701 336.587 131.681 344.521 135.599 349.436C143.854 359.793 143.536 359.671 149.066 354.602C154.417 349.7 154.372 349.408 147.452 344.293C130.662 331.881 111.698 320.472 111.698 322.785ZM102.793 324.165C103.953 329.037 111.482 345.392 115.976 352.8C117.938 356.035 120.688 360.655 122.086 363.066C125.847 369.548 128.449 370.209 132.517 365.716C133.09 365.082 133.965 364.564 134.463 364.564C136.04 364.564 140.178 361.898 140.164 360.89C140.133 358.601 112.869 326.796 110.938 326.796C109.601 326.796 116.844 338.36 127.364 353.022C132.883 360.715 135.233 366.386 131.502 363.009C129.332 361.045 112.221 336.264 104.681 324.165C104.098 323.228 103.343 322.463 103.004 322.463C102.644 322.463 102.557 323.175 102.793 324.165ZM132.945 324.029C132.601 325.078 158.138 339.798 160.302 339.798C162.403 339.798 166.074 329.559 164.169 329.011C150.995 325.222 133.469 322.426 132.945 324.029ZM326.023 327.066C319.41 328.765 319.455 328.738 319.951 330.637C321.496 336.565 325.243 336.46 330.469 330.345C335.01 325.029 334.739 324.828 326.023 327.066ZM361.321 327.622C361.202 328.232 361.517 328.654 362.094 328.654C362.668 328.654 363.068 328.125 363.068 327.364C363.068 325.855 361.622 326.069 361.321 327.622ZM296.475 328.172C298.892 331.623 297.957 332.689 292.021 333.255C286.495 333.78 286.189 333.038 290.406 329.326C293.66 326.46 295.087 326.189 296.475 328.172ZM61.5466 329.361C61.5466 329.725 61.9873 329.855 62.5262 329.648C63.0651 329.442 63.6214 329.272 63.764 329.272C63.9067 329.272 64.024 328.846 64.024 328.323C64.024 327.563 63.7736 327.505 62.7845 328.034C62.1046 328.399 61.5466 328.996 61.5466 329.361ZM356.624 331.745C357.617 332.737 359.655 330.951 359.121 329.559C358.71 328.491 358.609 328.503 357.341 329.771C356.431 330.681 356.2 331.32 356.624 331.745ZM292.177 329.892C291.075 331.109 291.096 331.13 293.32 331.13C295.169 331.13 295.581 330.905 295.581 329.892C295.581 329.101 295.169 328.654 294.44 328.654C293.811 328.654 292.793 329.21 292.177 329.892ZM411.174 332.163C413.822 336.414 419.758 344.131 420.376 344.131C421.546 344.131 423.867 341.198 423.638 340.009C423.432 338.931 410.836 329.591 410.305 330.122C410.169 330.26 410.559 331.177 411.174 332.163ZM98.5025 335.618C97.2836 340.518 96.442 347.075 95.6194 358.062C95.2628 362.83 94.8522 368.217 94.7048 370.033C94.3181 374.858 94.5114 375.09 98.9162 375.08C106.317 375.064 106.176 375.323 103.757 366.306C102.288 360.828 101.409 353.115 100.825 340.572C100.37 330.811 99.9306 329.876 98.5025 335.618ZM365.155 336.928C361.134 348.848 359.303 360.525 361.365 361.078C365.887 362.289 366.783 361.108 366.786 353.924C366.788 351.093 367.355 345.352 368.046 341.169C368.739 336.985 369.13 333.279 368.915 332.93C367.954 331.377 366.509 332.913 365.155 336.928ZM356.951 339.275C355.803 342.456 353.762 347.517 352.415 350.519C349.715 356.529 349.728 357.227 352.553 358.686C355.962 360.449 357.129 359.802 357.58 355.895C357.796 354.023 358.98 348.644 360.211 343.944C362.654 334.614 362.836 333.23 361.676 332.813C360.035 332.225 358.966 333.689 356.951 339.275ZM43.0703 337.474C34.2418 341.938 34.2212 341.963 36.5623 345.663C39.0999 349.676 39.0127 349.711 47.2309 341.397C57.6539 330.854 57.1356 330.366 43.0703 337.474ZM345.669 339.535C342.469 342.795 339.085 345.919 338.148 346.479C335.454 348.086 336.016 349.409 340.719 352.537C346.679 356.499 347.343 356.295 349.887 349.704C351.004 346.81 352.756 342.608 353.778 340.367C358.041 331.031 354.385 330.656 345.669 339.535ZM371.566 335.633C371.4 336.065 370.937 339.059 370.538 342.288C370.138 345.515 369.388 350.89 368.872 354.231C368.171 358.764 368.109 360.519 368.631 361.146C370.202 363.04 388.006 362.782 389.951 360.837C390.667 360.121 387.136 341.155 385.581 337.368L384.711 335.248L381.579 338.761C378.388 342.34 376.343 343.18 375.657 341.191C373.798 335.796 372.291 333.747 371.566 335.633ZM333.163 338.551C325.72 339.904 325.855 339.763 328.683 343.215C332.122 347.412 336.446 349.308 336.446 346.618C336.446 346.328 337.974 344.227 339.844 341.946C343.374 337.638 343.651 336.305 340.866 337.026C339.968 337.259 336.501 337.945 333.163 338.551ZM103.804 345.525C104.178 355.157 107.553 373.554 109.052 374.129C109.992 374.489 118.668 372.459 121.293 371.262C123.58 370.221 123.303 369.393 118.023 361.527C115.373 357.579 111.284 350.517 108.938 345.835C103.639 335.257 103.407 335.243 103.804 345.525ZM86.7117 359.183C80.4525 373.766 80.4795 373.939 89.0987 374.112L91.5745 374.161L91.9723 371.065C92.191 369.361 92.5714 363.093 92.8202 357.135C93.3734 343.816 93.2958 343.841 86.7117 359.183Z" fill="#C5C8CF"/>
<path fill-rule="evenodd" clip-rule="evenodd" d="M274.737 41.1667C275.606 42.0337 275.124 47.9442 274.013 50.0506C272.713 52.5169 265.763 58.0898 263.986 58.0898C261.998 58.0898 253.325 44.9945 254.522 43.7994C255.738 42.5821 273.802 40.23 274.737 41.1667ZM243.883 46.3544C244.565 46.7095 245.728 47.9267 246.468 49.06C247.21 50.1949 249.997 53.6914 252.661 56.8329C260.688 66.2953 259.976 64.975 258.543 67.7551C257.204 70.3497 253.858 73.748 250.385 76.0431C246.952 78.3096 246.505 79.1053 247.667 80.8789C248.464 82.0946 248.518 82.6921 247.946 83.949L247.234 85.5103L245.559 83.9332C244.123 82.5828 243.2 82.3244 239.103 82.131C230.585 81.7269 223.435 70.7729 221.28 54.8231C220.901 52.0224 220.348 49.1329 220.053 48.4038C219.552 47.1707 219.741 47.0518 222.722 46.7174C229.655 45.9423 242.664 45.7188 243.883 46.3544ZM237.436 103.137C237.578 103.565 242.153 105.733 247.6 107.955C256.343 111.52 264.778 116.565 259.835 115.272C258.728 114.983 258.139 115.646 255.95 119.632C252.988 125.031 251.06 126.814 248.187 126.814C246.434 126.814 244.883 127.988 236.936 135.343C231.866 140.033 224.529 146.255 220.631 149.17C216.734 152.085 211.243 156.453 208.428 158.88C203.101 163.472 202.245 163.83 195.901 164.117C192.667 164.264 192.433 164.388 191.271 166.558C189.209 170.408 186.018 171.072 180.144 168.873C178.263 168.17 176.37 167.797 175.941 168.044C175.511 168.293 175.751 167.824 176.475 167.003C181.541 161.256 179.678 158.889 172.817 162.356C166.938 165.326 161.776 166.214 158.598 164.805C156.119 163.705 155.726 163.067 157.179 162.51C157.675 162.319 158.777 160.791 159.626 159.116C160.474 157.441 162.855 154.545 164.914 152.683C166.973 150.819 168.667 148.902 168.678 148.424C168.708 147.135 179.954 143.594 187.285 142.566C195.695 141.385 197.338 140.543 210.34 130.753C225.7 119.188 228.762 116.416 231.168 111.904C232.272 109.834 233.942 107.256 234.879 106.177C235.816 105.098 236.716 103.798 236.879 103.286C237.092 102.62 237.25 102.579 237.436 103.137ZM251.13 170.596C250.925 171.663 251.377 172.665 252.694 174.066C254.566 176.057 264.977 189.862 270.402 197.548C272.023 199.844 274.314 202.491 275.491 203.429C278.821 206.083 283.239 211.684 291.736 224.019C296.459 230.877 290.707 239.13 279.898 241.008C277.371 241.447 274.991 241.999 274.609 242.237C274.211 242.482 273.911 242.265 273.911 241.731C273.911 238.556 259.938 219.066 257.662 219.066C256.405 219.066 256.395 219.024 257.473 218.237C258.925 217.175 258.644 216.686 252.984 210.449C249.672 206.799 247.836 205.287 246.075 204.759C244.456 204.274 243.783 203.764 244.004 203.187C244.186 202.711 242.007 199.237 239.1 195.367C231.75 185.581 231.592 185.167 233.173 179.889C234.383 175.849 237.054 173.563 242.352 172.032C244.898 171.297 247.977 170.335 249.198 169.896C251.379 169.109 251.412 169.122 251.13 170.596Z" fill="#F2C28E"/>
<path fill-rule="evenodd" clip-rule="evenodd" d="M362.341 58C362.341 56.8954 362.813 56 363.395 56H487.688C488.27 56 488.741 56.8954 488.741 58C488.741 59.1046 488.27 60 487.688 60H363.395C362.813 60 362.341 59.1046 362.341 58Z" fill="#F5D00B"/>
<path fill-rule="evenodd" clip-rule="evenodd" d="M441.868 103C441.868 101.895 442.34 101 442.921 101H598.288C598.87 101 599.341 101.895 599.341 103C599.341 104.105 598.87 105 598.288 105H442.921C442.34 105 441.868 104.105 441.868 103Z" fill="#F5D00B"/>
<path fill-rule="evenodd" clip-rule="evenodd" d="M425.541 159C425.541 157.895 426.013 157 426.595 157L510.335 157C510.916 157 511.388 157.895 511.388 159C511.388 160.105 510.916 161 510.335 161L426.595 161C426.013 161 425.541 160.105 425.541 159Z" fill="#F5D00B"/>
</svg>
