<svg width="513" height="111" viewBox="0 0 513 111" fill="none" xmlns="http://www.w3.org/2000/svg">
<path fill-rule="evenodd" clip-rule="evenodd" d="M56.4773 0.886129C54.1104 1.94715 55.2232 6.02188 57.8803 6.02188C58.9903 6.02188 60.5607 4.45827 60.5607 3.3533C60.5607 1.32097 58.4084 0.0201004 56.4773 0.886129ZM82.9715 2.47309C79.7529 4.14884 81.8379 8.91978 85.1557 7.47106C86.1122 7.05315 86.5105 6.3368 86.5105 5.03364C86.5105 3.10064 84.5252 1.66427 82.9715 2.47309ZM44.1378 3.56844L43.2305 4.36535L43.2773 6.85083C43.3274 9.54779 43.8147 11.0372 45.1384 12.5423C45.4073 12.8485 45.7342 13.3003 45.8645 13.5465C46.5191 14.781 47.5688 15.9277 48.3612 16.2737L49.1879 16.6348L49.9663 16.2613C51.3693 15.5885 51.9869 13.1689 51.0731 11.9262C50.895 11.684 50.551 11.2167 50.3085 10.8871C49.6529 9.99682 49.1568 8.53529 48.8698 6.64943C48.3496 3.23063 46.1519 1.79976 44.1378 3.56844ZM69.9217 3.47689C69.4312 3.64534 68.9698 3.9035 68.897 4.05134C66.7457 8.41261 66.7874 9.80824 69.1075 11.0661C70.0946 11.6012 72.1041 10.6207 72.6289 9.34776C74.2832 5.33666 72.947 2.44013 69.9217 3.47689ZM23.9553 7.76355C22.9826 7.88348 21.9083 9.24111 21.9083 10.3516C21.9083 13.1236 26.089 17.4615 28.2834 16.9672C29.9243 16.5973 30.7403 14.4693 29.8798 12.8041C29.0132 11.1279 25.4427 7.5594 24.7351 7.66331C24.6276 7.67887 24.2766 7.72418 23.9553 7.76355ZM93.3104 11.6405C92.2509 12.1276 89.699 14.7412 89.438 15.6068C89.349 15.9025 89.1811 16.4865 89.0652 16.9054C88.8237 17.7792 88.5649 17.8524 87.9603 17.2171C86.6352 15.8247 84.1014 16.4284 83.6378 18.2465C82.6201 22.2375 87.8472 22.6627 89.1222 18.6928C89.2878 18.1765 89.7635 18.1266 90.6175 18.5363C92.537 19.4572 94.8599 18.0456 96.4098 15.0163L97.0784 13.7099L96.772 12.9167C96.1405 11.2853 94.9985 10.8642 93.3104 11.6405ZM66.5023 13.233C64.3055 14.8849 64.8554 17.5137 67.5599 18.29C68.3448 18.5152 68.6003 18.6869 68.8405 19.1492C70.5356 22.4114 74.7696 21.7083 74.2605 18.2493C74.1344 17.3929 73.9939 17.2642 72.0382 16.2124C70.9097 15.6054 70.657 15.3775 70.2625 14.6089C69.541 13.2028 67.5237 12.4649 66.5023 13.233ZM78.1737 13.319C75.8592 13.7479 75.1938 17.2413 77.2283 18.2799C80.5499 19.9758 83.1389 15.5079 79.9152 13.6431C79.1293 13.1886 79.0041 13.1652 78.1737 13.319ZM60.6515 14.2011C60.4517 14.2427 60.1119 14.3137 59.8963 14.359C59.1637 14.5123 58.3829 15.8228 58.3829 16.8999C58.3829 19.0974 60.9909 20.3329 62.6299 18.9121C64.1674 17.5792 63.9073 15.226 62.1343 14.4313C61.3586 14.0835 61.2765 14.0706 60.6515 14.2011ZM50.1263 19.5891C49.9265 19.6234 49.5866 19.6884 49.371 19.7337C48.2165 19.9749 47.1993 22.1432 47.752 23.1845C48.854 25.2617 51.2534 25.5318 52.5771 23.7283C53.8512 21.9917 52.2155 19.2293 50.1263 19.5891ZM99.8724 20.1804C96.3853 21.2117 97.0933 25.4 100.712 25.1505C103.525 24.9569 104.098 21.707 101.544 20.4299C100.596 19.9552 100.621 19.9589 99.8724 20.1804ZM38.8689 21.6434C37.4395 22.5904 37.1484 23.6835 37.9226 25.1967C38.9886 27.2794 40.8432 27.3252 42.4627 25.3089C44.2176 23.1241 41.2312 20.0784 38.8689 21.6434ZM10.6176 21.9358C8.80887 22.5684 8.2729 24.8315 9.64065 26.0582C10.4882 26.818 14.6805 27.7866 16.2203 27.5783C19.5854 27.1229 19.2766 22.9859 15.829 22.3432C15.2304 22.2315 14.272 22.0205 13.6994 21.8741C12.3975 21.5413 11.7043 21.5555 10.6176 21.9358ZM61.7114 22.3318C61.2895 22.4599 60.9942 22.7579 60.5899 23.4656C60.0052 24.4882 59.1373 25.0123 58.0273 25.0123C57.546 25.0123 56.0434 26.0614 55.6187 26.6944C55.0544 27.5348 56.0647 29.9686 57.1135 30.2972C58.7826 30.8204 60.1017 30.2006 60.7573 28.5858C61.1087 27.7193 61.3354 27.4007 61.6646 27.3105C63.8674 26.7077 64.3315 26.5411 64.6765 26.228C65.4883 25.491 65.3483 23.1502 64.4576 22.5744C63.9402 22.2393 62.45 22.108 61.7114 22.3318ZM71.3354 22.2723C70.2541 23.0252 70.0019 25.3688 70.8944 26.3722C71.7577 27.3426 71.8959 28.1532 71.3534 29.0668C70.0631 31.2406 72.1875 33.5586 74.6829 32.6999C75.9987 32.2472 76.2992 30.7733 75.4409 28.9822C74.8363 27.7207 74.7557 26.9031 75.1767 26.309C75.9769 25.1812 75.5944 23.5612 74.3046 22.6183C73.7769 22.2325 71.7346 21.9944 71.3354 22.2723ZM84.968 24.7838C83.533 24.9926 82.5315 27.3732 83.3624 28.6C84.4102 30.1466 85.4362 30.5243 86.6951 29.8262C89.514 28.2617 88.1634 24.3183 84.968 24.7838ZM39.1513 27.3536C36.5823 28.4118 36.8651 32.4925 39.5241 32.7319C40.6953 32.8372 41.03 32.7131 41.8117 31.8846C43.6478 29.9384 41.5498 26.3658 39.1513 27.3536ZM91.5587 28.1921C89.7741 30.0354 90.1168 31.296 92.8615 32.9859C93.3108 33.2629 94.1148 33.9188 94.6489 34.4438C95.9819 35.7561 96.4831 35.8816 99.2678 35.6001C104.379 35.0837 105.492 34.4713 105.349 32.2536C105.217 30.2125 104.436 29.9091 99.8227 30.1059L96.8591 30.2318L94.2084 27.5202H93.2088C92.2908 27.5202 92.1568 27.5746 91.5587 28.1921ZM24.3573 28.7176C21.2337 29.7832 23.2696 34.3605 26.6686 33.9142C28.282 33.7028 29.7819 31.94 29.4523 30.6433C29.0647 29.1181 26.2745 28.0635 24.3573 28.7176ZM65.697 31.8306C64.7896 32.1021 63.8271 33.3851 63.8271 34.323C63.8271 36.7508 67.457 37.7757 68.7338 35.7076C70.0014 33.6551 68.0263 31.133 65.697 31.8306ZM52.1223 32.0696C49.6168 33.1544 50.5223 36.7947 53.3802 37.1266C54.6793 37.2772 54.7382 37.3307 54.8416 38.4586C55.0275 40.4868 55.493 41.1038 56.9558 41.2594C60.6821 41.6554 61.1416 36.9417 57.4732 35.9543C56.1917 35.6097 55.85 35.2458 55.8454 34.22C55.837 32.5744 53.7465 31.3665 52.1223 32.0696ZM5.38391 32.2362C2.21025 33.11 2.06745 36.2358 5.1609 37.1234C8.3647 38.043 10.9676 36.6711 10.5582 34.2795C10.2935 32.731 7.53755 31.6425 5.38391 32.2362ZM77.9242 32.5397C76.9311 32.834 76.3687 33.6757 75.9389 35.5113C75.7956 36.1232 75.4108 36.97 75.0241 37.5244C74.6574 38.0507 74.2684 38.8165 74.1594 39.2262C74.0509 39.6359 73.7547 40.2859 73.5015 40.6699C73.2479 41.0544 72.8895 41.8604 72.705 42.4614C72.5209 43.0625 72.2042 43.9976 72.0016 44.5396C71.385 46.1897 71.6673 47.1436 72.966 47.7972C74.5322 48.5859 76.276 47.8114 77.0739 45.9727C77.2237 45.628 77.5617 44.9831 77.825 44.5396C78.0884 44.096 78.4074 43.2899 78.5339 42.748C78.6605 42.206 78.9498 41.4805 79.1775 41.1359C79.4441 40.7312 79.6611 40.0016 79.7881 39.0788C79.9601 37.8338 80.064 37.5678 80.5953 37.0186C82.7527 34.7885 80.8879 31.6613 77.9242 32.5397ZM45.4991 33.2322C43.7892 33.6936 43.453 37.7074 45.0869 38.151C46.8618 38.6325 48.1345 38.2956 48.7024 37.1943C49.9139 34.8448 48.0529 32.5424 45.4991 33.2322ZM86.2101 34.588C84.8641 35.1661 84.2716 37.1325 85.0593 38.4082C85.2587 38.7305 85.4214 39.0262 85.4214 39.0642C85.4214 39.1026 84.7681 39.672 83.9697 40.3293C82.2232 41.768 82.0243 42.5589 83.0568 43.966C85.216 46.9088 89.5252 43.8809 87.5069 40.8392C87.1601 40.3174 87.2473 40.1549 88.1106 39.7155C91.6208 37.9276 89.8103 33.0413 86.2101 34.588ZM110.627 36.2867C108.859 37.2374 108.765 40.354 110.484 41.0333C112.425 41.8 114.418 40.9514 114.747 39.2193C115.158 37.0575 112.592 35.2311 110.627 36.2867ZM36.1909 37.1321C34.8946 37.6708 34.3846 39.6441 35.1561 41.1368C35.986 42.7434 38.237 42.7924 39.327 41.2283C40.9549 38.8925 38.7827 36.0555 36.1909 37.1321ZM93.3757 38.3963C91.2926 39.672 92.2097 43.1357 94.7036 43.4135C96.6199 43.6268 98.0729 41.2054 97.2319 39.2006C96.8141 38.2055 94.4815 37.7189 93.3757 38.3963ZM65.7707 40.6992C63.4993 42.3443 64.568 45.2564 67.4426 45.2564C69.6078 45.2564 71.0052 42.3168 69.4182 41.1015C67.9104 39.9462 66.9553 39.8409 65.7707 40.6992ZM51.1463 41.9099C49.0683 42.6848 48.9857 45.509 51.0146 46.4373C52.592 47.1587 53.9064 46.7257 54.734 45.212C55.8551 43.1609 53.5304 41.021 51.1463 41.9099ZM33.4039 44.7812C32.0765 46.0913 32.0436 46.831 33.2565 48.1108C34.678 49.6112 36.6513 49.4345 37.5332 47.7281C39.0043 44.881 35.6948 42.5191 33.4039 44.7812ZM10.0222 44.9515C6.32883 46.3471 5.16646 47.7093 6.11045 49.5357C6.70623 50.6892 8.14029 51.2609 9.15522 50.7491C9.43248 50.6095 10.1001 50.4031 10.6393 50.2905C13.7861 49.6327 15.1288 47.9396 13.947 46.1187C12.9492 44.5812 11.8592 44.2571 10.0222 44.9515ZM21.7298 44.8714C18.698 46.4767 21.0352 50.7322 24.2084 49.3846C25.2475 48.9434 25.5219 48.5745 25.6587 47.4343C25.9211 45.2454 23.7272 43.8141 21.7298 44.8714ZM86.44 46.2396C85.4145 46.9266 84.8103 47.1999 83.8524 47.4109C81.9788 47.8238 81.2101 48.9832 81.798 50.5107C82.5783 52.5375 83.6642 52.9348 85.8531 51.9933C86.6635 51.6449 87.6534 51.276 88.0526 51.1739C89.8367 50.7185 90.8651 49.668 90.8651 48.3017C90.8651 46.2235 88.2691 45.0138 86.44 46.2396ZM58.0978 46.4909C54.6673 48.0293 55.6136 52.413 59.2805 51.9699C61.2701 51.7291 62.763 49.3705 61.9307 47.7821C61.1472 46.2863 59.6668 45.7878 58.0978 46.4909ZM99.7064 46.2712C98.0122 46.5554 97.1132 48.7955 98.0563 50.3839C98.9673 51.9191 98.1787 53.5408 96.28 54.0379C93.64 54.7291 92.8565 56.5857 94.4593 58.3516C95.5767 59.5829 97.1419 59.3257 98.4295 57.6993C99.041 56.9272 100.262 56.2767 101.411 56.1115C102.446 55.9623 102.904 55.5096 103.368 54.178C104.092 52.1022 104.256 51.9923 106.09 52.3649C108.26 52.8057 109.624 52.159 110.402 50.3212C110.71 49.5943 110.025 48.0916 109.202 47.6888C107.588 46.8982 101.44 45.9805 99.7064 46.2712ZM42.8178 47.9341C40.7782 49.1965 42.3542 53.1005 45.4282 54.4014C46.342 54.7882 46.3471 54.8046 45.8658 55.8515C44.4369 58.9599 48.4372 61.4175 50.3827 58.6258C51.5594 56.9372 50.6831 55.1708 48.3334 54.4966C47.1052 54.1441 46.9971 53.8759 47.7812 53.1252C48.7942 52.1562 48.3218 50.4283 46.4718 48.3337C45.736 47.4997 43.8518 47.2937 42.8178 47.9341ZM65.2245 51.3346C64.446 51.612 63.6272 52.0079 63.4047 52.2139C63.1821 52.4203 62.642 52.7142 62.2043 52.8666C61.1857 53.2214 61.0127 53.371 60.538 54.3103C59.4757 56.409 61.4124 58.5782 63.4969 57.6247C63.9281 57.4279 64.6139 57.1849 65.021 57.0851C65.428 56.9853 66.0405 56.6983 66.3818 56.4474C66.7235 56.1966 67.2863 55.8112 67.6336 55.591C69.5364 54.3835 69.6162 52.1567 67.7894 51.2426C66.7513 50.7235 66.959 50.7162 65.2245 51.3346ZM32.1071 55.283C30.5284 56.4117 30.5154 58.8052 32.083 59.5948C35.0606 61.0943 37.5981 57.8325 35.2544 55.5183C34.2473 54.5245 33.2704 54.4513 32.1071 55.283ZM78.2047 55.9915C76.2134 57.9575 78.6137 61.5667 80.9602 60.1354C82.0066 59.4969 83.1157 59.4566 83.9869 60.026C86.3863 61.5937 88.9414 59.2854 87.6441 56.7221C86.9964 55.4414 84.9879 55.126 83.7945 56.117C83.157 56.647 83.1931 56.6488 81.9028 56.003C80.3922 55.2468 78.9637 55.2422 78.2047 55.9915ZM3.67074 56.7395C2.07533 57.5744 0.193389 59.8154 0.0162757 61.0916C-0.21833 62.7802 2.13329 64.3401 3.84785 63.6325C5.48406 62.9578 7.75408 60.1084 7.75408 58.7297C7.75408 57.0388 5.34358 55.8638 3.67074 56.7395ZM110.84 58.4688C109.002 59.3939 108.863 61.6642 110.572 62.8255C113.052 64.5095 116.174 61.7462 114.552 59.3028C113.875 58.2825 112.032 57.8687 110.84 58.4688ZM68.7598 59.9523C67.3021 60.8293 67.1032 63.0379 68.3685 64.2911C70.5152 66.4173 74.0138 63.556 72.463 60.9433C71.6622 59.5948 70.064 59.1668 68.7598 59.9523ZM20.0449 60.9621C19.5205 61.1204 19.0629 61.3987 18.8839 61.6693C18.7212 61.9141 18.3424 62.24 18.0419 62.3934C14.5488 64.1767 13.2594 67.8903 15.7483 68.998C17.1531 69.6237 18.0985 69.3756 19.9123 67.9063C20.4612 67.4618 21.2805 66.8242 21.7326 66.4896C25.6295 63.6068 24.4185 59.6406 20.0449 60.9621ZM91.7609 61.196C89.1974 62.5339 91.2022 66.7542 94.4013 66.7542C94.5135 66.7542 94.9688 66.9821 95.413 67.26C97.3747 68.4885 98.9149 68.6561 100.236 67.7846C102.397 66.3587 101.119 63.5171 97.8397 62.4575C97.148 62.2341 96.325 61.862 96.0106 61.6308C94.9229 60.8302 92.8648 60.6197 91.7609 61.196ZM53.6542 62.76C51.5265 64.5273 53.159 68.0052 55.7884 67.3062C58.9773 66.4585 58.5693 62.2757 55.2983 62.2757C54.4099 62.2757 54.1424 62.3545 53.6542 62.76ZM75.4507 63.594C73.5511 64.2925 73.4626 67.4619 75.3162 68.3956C78.2265 69.8613 80.8049 65.5824 78.0754 63.8169C77.4921 63.4398 76.1744 63.3276 75.4507 63.594ZM36.4756 64.8422C35.2052 65.2986 34.6451 66.751 35.1528 68.2702C35.5989 69.6036 37.7655 70.0512 39.1119 69.0882C41.5743 67.3273 39.3822 63.7972 36.4756 64.8422ZM83.5761 65.5009C82.5858 66.0237 82.1583 66.7235 82.1369 67.8569C82.1063 69.4868 81.9941 69.6759 80.8767 69.9789C78.7036 70.5689 78.1565 71.3146 78.47 73.259C78.9772 76.4041 83.7884 75.2959 83.7884 72.0346C83.7884 71.0276 83.9517 70.7854 84.7422 70.6207C85.0157 70.5634 85.4404 70.4756 85.6848 70.4257C86.3023 70.2998 87.4183 68.614 87.4156 67.8106C87.4105 66.1715 85.0241 64.7361 83.5761 65.5009ZM65.9139 66.237C61.9029 68.3466 61.232 73.1908 64.9496 73.2013C67.2618 73.2082 69.6213 70.573 69.6319 67.9722C69.6384 66.3569 67.5441 65.3796 65.9139 66.237ZM48.6746 69.3147C45.915 70.1895 46.2298 74.1713 49.0761 74.3937C50.7569 74.5251 51.8404 73.5305 51.8474 71.8506C51.8501 71.1557 50.9882 69.4484 50.6294 69.4374C50.5524 69.4351 50.2033 69.3678 49.8541 69.2877C49.492 69.2049 48.9848 69.2163 48.6746 69.3147ZM93.4777 70.4989C91.3051 71.8066 92.142 75.2154 94.6985 75.4722C96.6032 75.6635 98.1212 73.0965 97.1656 71.3004C96.6134 70.2623 94.5984 69.8242 93.4777 70.4989ZM59.0181 71.7119C58.1098 71.9554 57.1125 73.3391 57.1125 74.3571C57.1125 75.9427 59.3728 77.3695 60.8143 76.6938C62.8701 75.7308 63.3959 72.1765 61.526 71.8831C60.1707 71.6702 59.3761 71.6162 59.0181 71.7119ZM103.837 72.712C102.664 73.8696 102.668 74.7961 103.851 76.1629C106.16 78.831 110.01 77.6409 109.461 74.4285C109.241 73.1446 107.692 72.0785 105.901 71.9787L104.651 71.9092L103.837 72.712ZM22.1573 74.5951C20.7992 75.4676 20.261 77.3296 21.0334 78.4808C23.1272 81.6016 27.2643 79.0539 25.5359 75.7083C24.9957 74.6638 23.0489 74.0221 22.1573 74.5951ZM75.2634 74.6881C73.5307 75.5532 73.6193 79.0892 75.3876 79.6654C78.1565 80.5676 80.2212 78.2684 78.9359 75.7148C78.6624 75.171 78.3564 74.6675 78.2553 74.5951C77.953 74.3777 75.747 74.4464 75.2634 74.6881ZM84.5182 74.6775C82.6878 75.6333 82.8885 78.2913 84.9536 80.4596L85.9778 81.5343L85.8767 83.0572C85.5855 87.4368 89.3666 88.1371 91.5012 84.0981C91.8819 83.3776 92.3845 82.5606 92.6181 82.2818C93.8139 80.8569 92.76 79.0896 89.1269 76.4284C88.6563 76.0837 87.9511 75.5257 87.5607 75.1884C86.7493 74.4876 85.3361 74.2505 84.5182 74.6775ZM11.894 75.5175C8.71892 77.6468 7.88992 80.32 9.90354 81.9376C11.0158 82.8311 13.6072 81.4675 15.4024 79.0443C17.212 76.6009 14.4375 73.812 11.894 75.5175ZM34.6771 78.8369C34.067 79.0988 33.5189 79.9245 32.2801 82.4475C31.2628 84.5197 31.2656 84.5005 31.8099 85.87C32.51 87.6309 32.728 87.8048 34.2339 87.8048C35.2252 87.8048 35.5622 87.7316 35.8821 87.4464C36.9026 86.5369 38.059 83.1923 38.059 81.1508C38.059 79.4297 36.222 78.1732 34.6771 78.8369ZM61.9215 80.7356C59.7822 82.313 60.8217 85.3953 63.4886 85.382C65.1234 85.3743 66.3711 84.3064 66.3665 82.919C66.3595 80.7081 63.7186 79.4109 61.9215 80.7356ZM45.6391 83.4165C43.4016 84.8039 44.5287 88.2406 47.2229 88.2456C47.9768 88.247 49.1679 87.5407 49.4739 86.9104C50.7021 84.3828 48.0209 81.9399 45.6391 83.4165ZM53.8846 83.7278C51.0174 84.6845 50.7735 93.1104 53.5791 94.2675C56.3572 95.4137 57.3026 94.171 57.4315 89.2027C57.5609 84.2107 56.6503 82.805 53.8846 83.7278ZM72.603 86.2046C70.5662 87.1745 70.7683 89.1039 73.3796 93.6272C73.5219 93.8734 73.8863 94.5788 74.19 95.1949C74.936 96.7095 75.7701 97.2103 77.5487 97.2103C80.1154 97.2103 80.8679 94.9203 79.1422 92.3611C78.8474 91.9244 78.4667 91.2845 78.2956 90.9398C77.149 88.6278 75.6004 86.5319 74.7937 86.1986C73.7287 85.7597 73.5363 85.7601 72.603 86.2046ZM93.678 88.8924C91.6783 89.9195 91.6069 91.4754 93.4759 93.3205C96.1279 95.9401 97.6019 96.2408 99.0225 94.4534C100.795 92.2228 96.3004 87.5462 93.678 88.8924ZM21.083 89.9374C19.6142 90.5691 19.2873 93.3333 20.5646 94.3252C21.765 95.2576 23.8347 94.8658 24.3438 93.6098C25.3564 91.111 23.4216 88.9322 21.083 89.9374ZM41.6003 98.5926C40.1653 99.3836 39.1476 102.346 39.1476 105.729C39.1476 109.807 44.1731 110.206 44.6715 106.168C44.7383 105.626 44.9928 104.42 45.2367 103.489C46.3244 99.3351 44.5607 96.9608 41.6003 98.5926ZM60.5073 100.447C59.0993 101.368 58.7988 102.34 59.4706 103.802C60.5792 106.213 64.548 105.257 64.5517 102.578C64.5545 100.661 62.1329 99.3845 60.5073 100.447ZM70.1721 103.884C67.3234 105.303 68.5674 110.896 71.6664 110.603C74.107 110.371 75.007 107.653 73.5154 105.017C72.628 103.45 71.6845 103.13 70.1721 103.884Z" fill="#242B38"/>
<path d="M140 74.2136V63.1736L165.28 27.0136H180.56V62.3736H187.12V74.2136H180.56V84.6136H166.88V74.2136H140ZM167.84 42.0536L154.4 62.3736H167.84V42.0536Z" fill="#242B38"/>
<path d="M243.821 28.4536V84.6136H230.141V61.4936H208.861V84.6136H195.181V28.4536H208.861V50.4536H230.141V28.4536H243.821Z" fill="#242B38"/>
<path d="M295.776 61.5736C295.776 62.8536 295.696 64.1869 295.536 65.5736H264.576C264.79 68.3469 265.67 70.4802 267.216 71.9736C268.816 73.4136 270.763 74.1336 273.056 74.1336C276.47 74.1336 278.843 72.6936 280.176 69.8136H294.736C293.99 72.7469 292.63 75.3869 290.656 77.7336C288.736 80.0802 286.31 81.9202 283.376 83.2536C280.443 84.5869 277.163 85.2536 273.536 85.2536C269.163 85.2536 265.27 84.3202 261.856 82.4536C258.443 80.5869 255.776 77.9202 253.856 74.4536C251.936 70.9869 250.976 66.9336 250.976 62.2936C250.976 57.6536 251.91 53.6002 253.776 50.1336C255.696 46.6669 258.363 44.0002 261.776 42.1336C265.19 40.2669 269.11 39.3336 273.536 39.3336C277.856 39.3336 281.696 40.2402 285.056 42.0536C288.416 43.8669 291.03 46.4536 292.896 49.8136C294.816 53.1736 295.776 57.0936 295.776 61.5736ZM281.776 57.9736C281.776 55.6269 280.976 53.7602 279.376 52.3736C277.776 50.9869 275.776 50.2936 273.376 50.2936C271.083 50.2936 269.136 50.9602 267.536 52.2936C265.99 53.6269 265.03 55.5202 264.656 57.9736H281.776Z" fill="#242B38"/>
<path d="M300.273 62.2136C300.273 57.6269 301.126 53.6002 302.833 50.1336C304.593 46.6669 306.966 44.0002 309.953 42.1336C312.94 40.2669 316.273 39.3336 319.953 39.3336C323.1 39.3336 325.846 39.9736 328.193 41.2536C330.593 42.5336 332.433 44.2136 333.713 46.2936V39.9736H347.393V84.6136H333.713V78.2936C332.38 80.3736 330.513 82.0536 328.113 83.3336C325.766 84.6136 323.02 85.2536 319.873 85.2536C316.246 85.2536 312.94 84.3202 309.953 82.4536C306.966 80.5336 304.593 77.8402 302.833 74.3736C301.126 70.8536 300.273 66.8002 300.273 62.2136ZM333.713 62.2936C333.713 58.8802 332.753 56.1869 330.833 54.2136C328.966 52.2402 326.673 51.2536 323.953 51.2536C321.233 51.2536 318.913 52.2402 316.993 54.2136C315.126 56.1336 314.193 58.8002 314.193 62.2136C314.193 65.6269 315.126 68.3469 316.993 70.3736C318.913 72.3469 321.233 73.3336 323.953 73.3336C326.673 73.3336 328.966 72.3469 330.833 70.3736C332.753 68.4002 333.713 65.7069 333.713 62.2936Z" fill="#242B38"/>
<path d="M370.97 25.4136V84.6136H357.29V25.4136H370.97Z" fill="#242B38"/>
<path d="M405.764 73.0136V84.6136H398.804C393.844 84.6136 389.977 83.4136 387.204 81.0136C384.43 78.5602 383.044 74.5869 383.044 69.0936V51.3336H377.604V39.9736H383.044V29.0936H396.724V39.9736H405.684V51.3336H396.724V69.2536C396.724 70.5869 397.044 71.5469 397.684 72.1336C398.324 72.7202 399.39 73.0136 400.884 73.0136H405.764Z" fill="#242B38"/>
<path d="M440.824 39.4936C445.944 39.4936 450.05 41.2002 453.144 44.6136C456.237 47.9736 457.784 52.6136 457.784 58.5336V84.6136H444.184V60.3736C444.184 57.3869 443.41 55.0669 441.864 53.4136C440.317 51.7602 438.237 50.9336 435.624 50.9336C433.01 50.9336 430.93 51.7602 429.384 53.4136C427.837 55.0669 427.064 57.3869 427.064 60.3736V84.6136H413.384V25.4136H427.064V45.9736C428.45 44.0002 430.344 42.4269 432.744 41.2536C435.144 40.0802 437.837 39.4936 440.824 39.4936Z" fill="#242B38"/>
<path d="M512.89 39.9736L484.89 105.814H470.17L480.41 83.0936L462.25 39.9736H477.53L487.85 67.8936L498.09 39.9736H512.89Z" fill="#242B38"/>
</svg>
